<svg width="31" height="31" viewBox="0 0 31 31" fill="none" xmlns="http://www.w3.org/2000/svg">
<path d="M3.22949 24.5416V9.04163H27.7712V24.5416C27.7712 25.9625 26.6087 27.125 25.1878 27.125H5.81283C4.39199 27.125 3.22949 25.9625 3.22949 24.5416Z" fill="#CFD8DC"/>
<path d="M27.7712 6.45833V10.3333H3.22949V6.45833C3.22949 5.0375 4.39199 3.875 5.81283 3.875H25.1878C26.6087 3.875 27.7712 5.0375 27.7712 6.45833Z" fill="#F44336"/>
<path d="M21.3125 8.39587C22.3826 8.39587 23.25 7.52843 23.25 6.45837C23.25 5.38832 22.3826 4.52087 21.3125 4.52087C20.2424 4.52087 19.375 5.38832 19.375 6.45837C19.375 7.52843 20.2424 8.39587 21.3125 8.39587Z" fill="#B71C1C"/>
<path d="M9.6875 8.39587C10.7576 8.39587 11.625 7.52843 11.625 6.45837C11.625 5.38832 10.7576 4.52087 9.6875 4.52087C8.61745 4.52087 7.75 5.38832 7.75 6.45837C7.75 7.52843 8.61745 8.39587 9.6875 8.39587Z" fill="#B71C1C"/>
<path d="M21.3122 1.9375C20.6018 1.9375 20.0205 2.51875 20.0205 3.22917V6.45833C20.0205 7.16875 20.6018 7.75 21.3122 7.75C22.0226 7.75 22.6038 7.16875 22.6038 6.45833V3.22917C22.6038 2.51875 22.0226 1.9375 21.3122 1.9375ZM9.68717 1.9375C8.97676 1.9375 8.39551 2.51875 8.39551 3.22917V6.45833C8.39551 7.16875 8.97676 7.75 9.68717 7.75C10.3976 7.75 10.9788 7.16875 10.9788 6.45833V3.22917C10.9788 2.51875 10.3976 1.9375 9.68717 1.9375Z" fill="#B0BEC5"/>
<path d="M8.39551 12.9166H10.9788V15.5H8.39551V12.9166ZM12.2705 12.9166H14.8538V15.5H12.2705V12.9166ZM16.1455 12.9166H18.7288V15.5H16.1455V12.9166ZM20.0205 12.9166H22.6038V15.5H20.0205V12.9166ZM8.39551 16.7916H10.9788V19.375H8.39551V16.7916ZM12.2705 16.7916H14.8538V19.375H12.2705V16.7916ZM16.1455 16.7916H18.7288V19.375H16.1455V16.7916ZM20.0205 16.7916H22.6038V19.375H20.0205V16.7916ZM8.39551 20.6666H10.9788V23.25H8.39551V20.6666ZM12.2705 20.6666H14.8538V23.25H12.2705V20.6666ZM16.1455 20.6666H18.7288V23.25H16.1455V20.6666ZM20.0205 20.6666H22.6038V23.25H20.0205V20.6666Z" fill="#90A4AE"/>
</svg>
