<svg width="33" height="34" viewBox="0 0 33 34" fill="none" xmlns="http://www.w3.org/2000/svg">
<path d="M11.55 23.875L16.5 18.925L21.45 23.875L23.375 21.95L18.425 17L23.375 12.05L21.45 10.125L16.5 15.075L11.55 10.125L9.625 12.05L14.575 17L9.625 21.95L11.55 23.875ZM16.5 30.75C14.5979 30.75 12.8104 30.3891 11.1375 29.6672C9.46458 28.9453 8.00938 27.9656 6.77188 26.7281C5.53438 25.4906 4.55469 24.0354 3.83281 22.3625C3.11094 20.6896 2.75 18.9021 2.75 17C2.75 15.0979 3.11094 13.3104 3.83281 11.6375C4.55469 9.96458 5.53438 8.50938 6.77188 7.27188C8.00938 6.03438 9.46458 5.05469 11.1375 4.33281C12.8104 3.61094 14.5979 3.25 16.5 3.25C18.4021 3.25 20.1896 3.61094 21.8625 4.33281C23.5354 5.05469 24.9906 6.03438 26.2281 7.27188C27.4656 8.50938 28.4453 9.96458 29.1672 11.6375C29.8891 13.3104 30.25 15.0979 30.25 17C30.25 18.9021 29.8891 20.6896 29.1672 22.3625C28.4453 24.0354 27.4656 25.4906 26.2281 26.7281C24.9906 27.9656 23.5354 28.9453 21.8625 29.6672C20.1896 30.3891 18.4021 30.75 16.5 30.75ZM16.5 28C19.5708 28 22.1719 26.9344 24.3031 24.8031C26.4344 22.6719 27.5 20.0708 27.5 17C27.5 13.9292 26.4344 11.3281 24.3031 9.19688C22.1719 7.06563 19.5708 6 16.5 6C13.4292 6 10.8281 7.06563 8.69688 9.19688C6.56563 11.3281 5.5 13.9292 5.5 17C5.5 20.0708 6.56563 22.6719 8.69688 24.8031C10.8281 26.9344 13.4292 28 16.5 28Z" fill="#BB6464"/>
</svg>
