<svg width="32" height="32" viewBox="0 0 32 32" fill="none" xmlns="http://www.w3.org/2000/svg">
<path d="M16.0003 29.3333C23.3641 29.3333 29.3337 23.3638 29.3337 16C29.3337 8.63622 23.3641 2.66669 16.0003 2.66669C8.63653 2.66669 2.66699 8.63622 2.66699 16C2.66699 23.3638 8.63653 29.3333 16.0003 29.3333Z" fill="#00ACC1"/>
<path d="M15.9997 26.6666C21.8907 26.6666 26.6663 21.891 26.6663 16C26.6663 10.1089 21.8907 5.33331 15.9997 5.33331C10.1086 5.33331 5.33301 10.1089 5.33301 16C5.33301 21.891 10.1086 26.6666 15.9997 26.6666Z" fill="#EEEEEE"/>
<path d="M15.333 7.33331H16.6663V16H15.333V7.33331Z" fill="black"/>
<path d="M20.8568 19.7693L19.7735 20.8533L15.4375 16.5173L16.5215 15.4327L20.8568 19.7693Z" fill="black"/>
<path d="M16.0003 17.3334C16.7367 17.3334 17.3337 16.7364 17.3337 16C17.3337 15.2636 16.7367 14.6667 16.0003 14.6667C15.2639 14.6667 14.667 15.2636 14.667 16C14.667 16.7364 15.2639 17.3334 16.0003 17.3334Z" fill="black"/>
<path d="M15.9997 16.6666C16.3679 16.6666 16.6663 16.3682 16.6663 16C16.6663 15.6318 16.3679 15.3333 15.9997 15.3333C15.6315 15.3333 15.333 15.6318 15.333 16C15.333 16.3682 15.6315 16.6666 15.9997 16.6666Z" fill="#00ACC1"/>
</svg>
