<svg width="42" height="38" viewBox="0 0 42 38" fill="none" xmlns="http://www.w3.org/2000/svg">
<path d="M33.0511 12.1259C32.718 12.0255 32.3572 12.0172 32.0098 12.102C31.6623 12.1867 31.3422 12.3612 31.086 12.6054L26.3101 17.1274L20.8935 12.8732C20.637 12.676 20.3264 12.5493 19.9933 12.5061C19.6602 12.4629 19.3166 12.5047 18.9974 12.6272C18.6782 12.7497 18.3949 12.9486 18.1763 13.2036C17.9577 13.4585 17.8116 13.7605 17.7529 14.0787L16.5743 20.8646L9.99927 20.6998C9.64491 20.6902 9.28985 20.7749 8.97423 20.9442C8.65861 21.1136 8.39502 21.3608 8.21326 21.6581C8.03149 21.9554 7.9388 22.2908 7.94567 22.6264C7.95253 22.962 8.05867 23.2845 8.2521 23.5573L15.4309 33.7433C15.5692 33.9408 15.7499 34.1076 15.9619 34.2337C16.174 34.3597 16.4131 34.4424 16.6647 34.4766C17.0061 34.525 17.3595 34.4843 17.6876 34.3588C17.8469 34.2974 17.9974 34.2155 18.1347 34.1155C22.8159 30.7889 28.3011 28.6834 34.0058 28.0232C34.5244 27.9569 35.0042 27.6997 35.3399 27.3079C35.5058 27.1151 35.6293 26.8937 35.7026 26.6578C35.776 26.4219 35.7976 26.1766 35.7661 25.9374L34.2964 13.5598C34.2567 13.2279 34.1191 12.9177 33.899 12.6643C33.6789 12.4109 33.3852 12.2244 33.0511 12.1259Z" fill="#FFCA04"/>
<circle cx="17.9217" cy="9.82661" r="4" transform="rotate(-21 17.9217 9.82661)" fill="#FFCA04"/>
<circle cx="22.9383" cy="22.8968" r="3" transform="rotate(-21 22.9383 22.8968)" fill="#C0824A"/>
<circle cx="33.7875" cy="10.6985" r="2.5" transform="rotate(-21 33.7875 10.6985)" fill="#FFCA04"/>
<circle cx="6.71425" cy="21.0912" r="2.5" transform="rotate(-21 6.71425 21.0912)" fill="#FFCA04"/>
<circle cx="16.4741" cy="26.9849" r="1.5" transform="rotate(-21 16.4741 26.9849)" fill="#C0824A"/>
<circle cx="30.478" cy="21.6094" r="1.5" transform="rotate(-21 30.478 21.6094)" fill="#C0824A"/>
</svg>
