<svg width="22" height="22" viewBox="0 0 22 22" fill="none" xmlns="http://www.w3.org/2000/svg">
<path d="M16.5001 16.646C15.2681 17.963 13.8761 19.188 12.6181 20.367C12.1783 20.7752 11.6001 21.0014 11.0001 21C10.4004 21.0012 9.82259 20.775 9.38309 20.367C5.41209 16.626 0.0900872 12.447 2.68509 6.38C3.02109 5.598 3.46609 4.635 4.00009 4M6.00009 2.486C7.4895 1.52005 9.22587 1.0041 11.0011 1C14.5441 1 17.9131 3.1 19.3161 6.38C20.6601 9.522 19.8801 12.164 18.2611 14.5" fill="white"/>
<path d="M16.5001 16.646C15.2681 17.963 13.8761 19.188 12.6181 20.367C12.1783 20.7752 11.6001 21.0014 11.0001 21C10.4004 21.0012 9.82259 20.775 9.38309 20.367C5.41209 16.626 0.0900872 12.447 2.68509 6.38C3.02109 5.598 3.46609 4.635 4.00009 4M6.00009 2.486C7.4895 1.52005 9.22587 1.0041 11.0011 1C14.5441 1 17.9131 3.1 19.3161 6.38C20.6601 9.522 19.8801 12.164 18.2611 14.5" stroke="#CC2828" stroke-width="1.5" stroke-linecap="round" stroke-linejoin="round"/>
<path d="M8 8C7.665 8.537 7.5 9.32 7.5 10C7.5 10.9283 7.86875 11.8185 8.52513 12.4749C9.1815 13.1313 10.0717 13.5 11 13.5C11.66 13.5 12.473 13.317 13 13M10.5 6.535C11.0388 6.45707 11.5883 6.50589 12.1049 6.67759C12.6215 6.84929 13.091 7.13913 13.4759 7.52408C13.8609 7.90902 14.1507 8.37846 14.3224 8.89506C14.4941 9.41167 14.5429 9.96121 14.465 10.5M1 1L21 21L1 1Z" fill="white"/>
<path d="M8 8C7.665 8.537 7.5 9.32 7.5 10C7.5 10.9283 7.86875 11.8185 8.52513 12.4749C9.1815 13.1313 10.0717 13.5 11 13.5C11.66 13.5 12.473 13.317 13 13M10.5 6.535C11.0388 6.45707 11.5883 6.50589 12.1049 6.67759C12.6215 6.84929 13.091 7.13913 13.4759 7.52408C13.8609 7.90902 14.1507 8.37846 14.3224 8.89506C14.4941 9.41167 14.5429 9.96121 14.465 10.5M1 1L21 21" stroke="#CC2828" stroke-width="1.5" stroke-linecap="round" stroke-linejoin="round"/>
</svg>
