<svg width="28" height="28" viewBox="0 0 28 28" fill="none" xmlns="http://www.w3.org/2000/svg">
<path fill-rule="evenodd" clip-rule="evenodd" d="M6.99479 8.16671C6.99479 6.61961 7.60937 5.13588 8.70334 4.04192C9.7973 2.94796 11.281 2.33337 12.8281 2.33337C14.3752 2.33337 15.859 2.94796 16.9529 4.04192C18.0469 5.13588 18.6615 6.61961 18.6615 8.16671C18.6615 9.7138 18.0469 11.1975 16.9529 12.2915C15.859 13.3855 14.3752 14 12.8281 14C11.281 14 9.7973 13.3855 8.70334 12.2915C7.60937 11.1975 6.99479 9.7138 6.99479 8.16671ZM12.8281 4.66671C12.3685 4.66671 11.9134 4.75724 11.4887 4.93313C11.0641 5.10902 10.6783 5.36683 10.3533 5.69183C10.0282 6.01684 9.77044 6.40268 9.59455 6.82732C9.41866 7.25196 9.32813 7.70708 9.32813 8.16671C9.32813 8.62634 9.41866 9.08146 9.59455 9.5061C9.77044 9.93074 10.0282 10.3166 10.3533 10.6416C10.6783 10.9666 11.0641 11.2244 11.4887 11.4003C11.9134 11.5762 12.3685 11.6667 12.8281 11.6667C13.7564 11.6667 14.6466 11.298 15.303 10.6416C15.9594 9.98521 16.3281 9.09497 16.3281 8.16671C16.3281 7.23845 15.9594 6.34821 15.303 5.69183C14.6466 5.03546 13.7564 4.66671 12.8281 4.66671ZM5.14329 20.5345C4.76646 21.0129 4.66146 21.3745 4.66146 21.5834C4.66146 21.721 4.70229 21.854 4.90063 22.0314C5.13046 22.2367 5.54229 22.463 6.19563 22.6649C7.50229 23.0685 9.41096 23.2727 11.686 23.3217C11.8392 23.3249 11.9902 23.3583 12.1306 23.4199C12.2709 23.4815 12.3977 23.5701 12.5037 23.6807C12.6098 23.7914 12.693 23.9218 12.7487 24.0645C12.8044 24.2073 12.8313 24.3597 12.8281 24.5129C12.8249 24.6661 12.7915 24.8172 12.7299 24.9575C12.6683 25.0978 12.5797 25.2246 12.4691 25.3307C12.3585 25.4367 12.2281 25.52 12.0853 25.5756C11.9425 25.6313 11.7902 25.6583 11.637 25.655C9.30713 25.6049 7.13363 25.3972 5.50729 24.8944C4.69529 24.6424 3.92763 24.2912 3.34663 23.772C2.73296 23.2237 2.32812 22.4864 2.32812 21.5834C2.32812 20.6652 2.74579 19.8065 3.31279 19.0879C3.88913 18.3587 4.68596 17.6879 5.62046 17.1162C7.49063 15.9775 10.034 15.1667 12.8281 15.1667C13.35 15.1667 13.8618 15.1939 14.3635 15.2484C14.6712 15.281 14.9533 15.4346 15.1478 15.6752C15.3423 15.9159 15.4333 16.224 15.4006 16.5317C15.368 16.8394 15.2144 17.1216 14.9738 17.3161C14.7331 17.5106 14.425 17.6015 14.1173 17.5689C13.6965 17.523 13.2668 17.5 12.8281 17.5C10.468 17.5 8.34463 18.1884 6.83613 19.1089C6.08129 19.5685 5.51079 20.0679 5.14329 20.5345ZM24.7433 16.373C24.4724 16.1021 24.1509 15.8872 23.797 15.7406C23.4431 15.594 23.0637 15.5185 22.6806 15.5185C22.2975 15.5185 21.9182 15.594 21.5643 15.7406C21.2104 15.8872 20.8888 16.1021 20.618 16.373L16.6303 20.3595C16.3626 20.6275 16.189 20.975 16.1356 21.35L15.7506 24.0427C15.7246 24.2223 15.7409 24.4056 15.7981 24.5778C15.8553 24.75 15.952 24.9065 16.0803 25.0349C16.2086 25.1632 16.3651 25.2598 16.5374 25.3171C16.7096 25.3743 16.8928 25.3906 17.0725 25.3645L19.7651 24.9795C20.1401 24.9262 20.4877 24.7526 20.7556 24.4849L24.7421 20.4972C25.2889 19.9503 25.5961 19.2085 25.5961 18.4351C25.5961 17.6617 25.2901 16.92 24.7433 16.373ZM22.2676 18.0227C22.3776 17.9165 22.525 17.8577 22.6779 17.859C22.8309 17.8603 22.9772 17.9217 23.0854 18.0298C23.1935 18.138 23.2549 18.2843 23.2562 18.4372C23.2575 18.5902 23.1987 18.7375 23.0925 18.8475L19.2425 22.6975L18.28 22.8352L18.4176 21.8727L22.2676 18.0227Z" fill="#545454"/>
</svg>
