<svg width="36" height="39" viewBox="0 0 36 39" fill="none" xmlns="http://www.w3.org/2000/svg">
<path d="M1 0C0.447716 0 0 0.447715 0 1V38C0 38.5523 0.447715 39 1 39H2.27273C2.82501 39 3.27273 38.5523 3.27273 38V27C3.27273 26.4477 3.72044 26 4.27273 26H35C35.5523 26 36 25.5523 36 25V1C36 0.447716 35.5523 0 35 0H1ZM3.27273 4.25C3.27273 3.69772 3.72044 3.25 4.27273 3.25H7.18182C7.7341 3.25 8.18182 3.69772 8.18182 4.25V8.125H13.0909V4.25C13.0909 3.69772 13.5386 3.25 14.0909 3.25H17C17.5523 3.25 18 3.69772 18 4.25V8.125H22.9091V4.25C22.9091 3.69772 23.3568 3.25 23.9091 3.25H26.8182C27.3705 3.25 27.8182 3.69772 27.8182 4.25V8.125H31.7273C32.2796 8.125 32.7273 8.57271 32.7273 9.125V12C32.7273 12.5523 32.2796 13 31.7273 13H27.8182V17.875H31.7273C32.2796 17.875 32.7273 18.3227 32.7273 18.875V21.75C32.7273 22.3023 32.2796 22.75 31.7273 22.75H28.8182C28.2659 22.75 27.8182 22.3023 27.8182 21.75V17.875H22.9091V21.75C22.9091 22.3023 22.4614 22.75 21.9091 22.75H19C18.4477 22.75 18 22.3023 18 21.75V17.875H13.0909V21.75C13.0909 22.3023 12.6432 22.75 12.0909 22.75H9.18182C8.62953 22.75 8.18182 22.3023 8.18182 21.75V17.875H4.27273C3.72044 17.875 3.27273 17.4273 3.27273 16.875V14C3.27273 13.4477 3.72044 13 4.27273 13H8.18182V8.125H4.27273C3.72044 8.125 3.27273 7.67728 3.27273 7.125V4.25ZM8.18182 13V17.875H13.0909V13H8.18182ZM13.0909 13H18V8.125H13.0909V13ZM18 13V17.875H22.9091V13H18ZM22.9091 13H27.8182V8.125H22.9091V13Z" fill="#F8F8F8"/>
</svg>
