<svg width="29" height="29" viewBox="0 0 29 29" fill="none" xmlns="http://www.w3.org/2000/svg">
<path d="M22.9583 3.625H6.04167C5.40073 3.625 4.78604 3.87961 4.33283 4.33283C3.87961 4.78604 3.625 5.40073 3.625 6.04167V22.9583C3.625 23.5993 3.87961 24.214 4.33283 24.6672C4.78604 25.1204 5.40073 25.375 6.04167 25.375H22.9583C23.5993 25.375 24.214 25.1204 24.6672 24.6672C25.1204 24.214 25.375 23.5993 25.375 22.9583V6.04167C25.375 5.40073 25.1204 4.78604 24.6672 4.33283C24.214 3.87961 23.5993 3.625 22.9583 3.625ZM22.9583 22.9583H6.04167V6.04167H22.9583V22.9583ZM10.875 20.5417H8.45833V14.5H10.875V20.5417ZM15.7083 20.5417H13.2917V8.45833H15.7083V20.5417ZM20.5417 20.5417H18.125V12.0833H20.5417V20.5417Z" fill="#545454"/>
</svg>
