<svg width="34" height="34" viewBox="0 0 34 34" fill="none" xmlns="http://www.w3.org/2000/svg">
<path d="M26.9997 20.3333H14.4997L17.833 17H26.9997M6.99967 20.3333V16.1666L18.4663 4.73331C18.783 4.41665 19.3163 4.41665 19.6497 4.73331L22.583 7.68331C22.9163 8.01665 22.9163 8.53331 22.583 8.86665L11.1163 20.3333M30.333 0.333313H3.66634C2.78229 0.333313 1.93444 0.684502 1.30932 1.30962C0.684197 1.93474 0.333008 2.78259 0.333008 3.66665V33.6666L6.99967 27H30.333C31.2171 27 32.0649 26.6488 32.69 26.0237C33.3152 25.3985 33.6663 24.5507 33.6663 23.6666V3.66665C33.6663 2.78259 33.3152 1.93474 32.69 1.30962C32.0649 0.684502 31.2171 0.333313 30.333 0.333313Z" fill="#F8F8F8"/>
</svg>
