<svg width="31" height="31" viewBox="0 0 31 31" fill="none" xmlns="http://www.w3.org/2000/svg">
<path d="M25.0985 20.679V20.6792C25.0985 23.7402 20.9505 26.2217 15.8336 26.2217C11.4101 26.2217 7.71173 24.3669 6.79051 21.8866L6.38878 21.7901V21.0943L6.20884 21.0135C5.79888 20.8296 5.79888 20.5285 6.20884 20.3446L6.38878 20.2638V14.093L11.9698 15.6406C13.1459 15.3173 14.4544 15.1367 15.8336 15.1367C17.2981 15.1367 18.6829 15.3403 19.9142 15.7022L25.0985 14.4563V20.679Z" fill="#132028"/>
<path d="M7.42253 23.5583L7.73452 26.9543C7.79368 27.5981 7.31972 28.168 6.67586 28.2271C6.03201 28.2863 5.4622 27.8123 5.40304 27.1685C5.3969 27.0972 5.3969 27.0255 5.40304 26.9543L5.71504 23.5583C5.75833 23.0867 6.17568 22.7396 6.64722 22.783C7.06548 22.8214 7.38577 23.1545 7.42253 23.5583Z" fill="#FFB636"/>
<path d="M14.3079 20.9241L0.637345 13.3366C-0.018438 12.9726 -0.018438 12.377 0.637345 12.013L14.3079 4.42559C14.9637 4.06159 16.0369 4.06159 16.6927 4.42559L30.3633 12.0131C31.019 12.3771 31.019 12.9727 30.3633 13.3367L16.6927 20.9241C16.0369 21.2881 14.9638 21.2881 14.3079 20.9241Z" fill="#464A4C"/>
<path d="M6.56903 23.9657C5.59894 23.9657 4.8125 23.1793 4.8125 22.2092V21.7549C4.8125 20.7848 5.59894 19.9983 6.56903 19.9983C7.53911 19.9983 8.32555 20.7847 8.32555 21.7549V22.2092C8.32555 23.1793 7.53911 23.9657 6.56903 23.9657Z" fill="#FFD592"/>
<path d="M6.56868 22.3334C6.06421 22.3334 5.65527 21.9245 5.65527 21.42V17.2646C5.65527 16.94 5.82759 16.6398 6.10786 16.476L15.039 11.2572C15.4746 11.0027 16.034 11.1495 16.2885 11.5851C16.543 12.0206 16.3962 12.58 15.9607 12.8345L7.48209 17.7888V21.4201C7.48209 21.9245 7.0731 22.3334 6.56868 22.3334Z" fill="#FFB636"/>
<path d="M17.5783 12.0457C17.5783 12.8514 16.6476 13.5045 15.4996 13.5045C14.3516 13.5045 13.4209 12.8514 13.4209 12.0457C13.4209 11.24 14.3516 10.5869 15.4996 10.5869C16.6476 10.5869 17.5783 11.24 17.5783 12.0457Z" fill="#132028"/>
</svg>
