<svg width="45" height="45" viewBox="0 0 45 45" fill="none" xmlns="http://www.w3.org/2000/svg">
<path d="M18.6528 6.88219C19.7967 6.13437 21.1337 5.73611 22.5003 5.73611C23.8669 5.73611 25.2039 6.13437 26.3478 6.88219L41.5522 16.8216C41.7463 16.9485 41.906 17.1214 42.0171 17.325C42.1282 17.5286 42.1872 17.7565 42.1889 17.9884C42.1905 18.2204 42.1348 18.4491 42.0267 18.6543C41.9185 18.8594 41.7613 19.0347 41.569 19.1644L26.4434 29.4019C25.2798 30.1896 23.9069 30.6106 22.5017 30.6106C21.0965 30.6106 19.7236 30.1896 18.56 29.4019L5.6253 20.6522V29.5313C5.6253 29.9042 5.47714 30.2619 5.21342 30.5256C4.94969 30.7893 4.59201 30.9375 4.21905 30.9375C3.84609 30.9375 3.4884 30.7893 3.22468 30.5256C2.96096 30.2619 2.8128 29.9042 2.8128 29.5313V18.2812L2.81842 18.1406C2.79297 17.8846 2.83825 17.6265 2.94933 17.3944C3.06041 17.1623 3.23304 16.9651 3.44842 16.8244L18.6528 6.88219ZM8.4378 32.3409V25.9481L16.9822 31.7334C18.6112 32.8362 20.5332 33.4255 22.5003 33.4255C24.4674 33.4255 26.3894 32.8362 28.0184 31.7334L36.5628 25.9481V32.3438C36.5629 32.6776 36.4443 33.0006 36.2281 33.255L36.2253 33.2606L36.2197 33.2663L36.2028 33.2859L36.1465 33.3478L35.9553 33.5559C35.7242 33.7973 35.486 34.0318 35.2409 34.2591C34.6222 34.83 33.7137 35.5837 32.5437 36.3403C30.2094 37.8478 26.7809 39.3778 22.5031 39.3778C18.2197 39.3778 14.794 37.8478 12.4569 36.3403C11.4993 35.7258 10.5969 35.0294 9.75967 34.2591C9.44407 33.9693 9.14188 33.6652 8.85405 33.3478L8.7978 33.2859L8.78092 33.2663L8.7753 33.2606L9.84405 32.3466C8.77249 33.255 8.7753 33.2578 8.7753 33.2578C8.55746 33.0031 8.43777 32.6789 8.4378 32.3438" fill="#FF82AC"/>
</svg>
