<svg width="21" height="21" viewBox="0 0 21 21" fill="none" xmlns="http://www.w3.org/2000/svg">
<path d="M7.06388 10.6697L3.6855 7.29135C2.3555 8.74122 1.8515 10.1937 1.84275 10.2235L1.75 10.5L1.84188 10.7765C1.86113 10.8351 3.86838 16.625 10.5473 16.625C11.3601 16.625 12.1004 16.5357 12.7803 16.3861L10.3775 13.9833C9.51237 13.9409 8.69396 13.5782 8.08149 12.9657C7.46901 12.3533 7.10629 11.5349 7.06388 10.6697ZM10.5473 4.37497C8.92413 4.37497 7.59413 4.72847 6.4855 5.24822L3.24363 2.00635L2.00638 3.2436L17.7564 18.9936L18.9936 17.7563L16.1079 14.8706C18.4161 13.1617 19.2395 10.8132 19.2518 10.7765L19.3436 10.5L19.2518 10.2235C19.2325 10.1648 17.2261 4.37497 10.5473 4.37497ZM12.215 10.9777C12.3786 10.3853 12.2395 9.7186 11.7845 9.26272C11.3295 8.80685 10.6619 8.6686 10.0695 8.83222L8.75 7.51272C9.29081 7.18042 9.91251 7.00305 10.5473 6.99997C12.4775 6.99997 14.0473 8.56972 14.0473 10.5C14.0447 11.1346 13.8669 11.7562 13.5336 12.2963L12.215 10.9777Z" fill="#F8F8F8"/>
</svg>
