<svg width="50" height="50" viewBox="0 0 50 50" fill="none" xmlns="http://www.w3.org/2000/svg">
<path d="M25 45.8334L20.8333 33.3334H4.16663L8.33329 45.8334H25ZM25 45.8334H33.3333M25 27.0834V26.0417C25 22.1126 25 20.1501 23.7791 18.9292C22.5583 17.7084 20.5958 17.7084 16.6666 17.7084C12.7375 17.7084 10.775 17.7084 9.55413 18.9292C8.33329 20.1501 8.33329 22.1126 8.33329 26.0417V27.0834M29.1666 36.4584H41.6666C42.7717 36.4584 43.8315 36.8974 44.6129 37.6788C45.3943 38.4602 45.8333 39.52 45.8333 40.6251V41.6667C45.8333 42.7718 45.3943 43.8316 44.6129 44.613C43.8315 45.3944 42.7717 45.8334 41.6666 45.8334H39.5833M39.5833 27.0834C39.5833 28.1885 39.1443 29.2483 38.3629 30.0297C37.5815 30.8111 36.5217 31.2501 35.4166 31.2501C34.3116 31.2501 33.2517 30.8111 32.4703 30.0297C31.6889 29.2483 31.25 28.1885 31.25 27.0834C31.25 25.9783 31.6889 24.9185 32.4703 24.1371C33.2517 23.3557 34.3116 22.9167 35.4166 22.9167C36.5217 22.9167 37.5815 23.3557 38.3629 24.1371C39.1443 24.9185 39.5833 25.9783 39.5833 27.0834ZM20.8333 8.33341C20.8333 9.43848 20.3943 10.4983 19.6129 11.2797C18.8315 12.0611 17.7717 12.5001 16.6666 12.5001C15.5616 12.5001 14.5017 12.0611 13.7203 11.2797C12.9389 10.4983 12.5 9.43848 12.5 8.33341C12.5 7.22835 12.9389 6.16854 13.7203 5.38714C14.5017 4.60573 15.5616 4.16675 16.6666 4.16675C17.7717 4.16675 18.8315 4.60573 19.6129 5.38714C20.3943 6.16854 20.8333 7.22835 20.8333 8.33341Z" stroke="#F8F8F8" stroke-width="4" stroke-linecap="round" stroke-linejoin="round"/>
</svg>
