<svg width="46" height="46" viewBox="0 0 46 46" fill="none" xmlns="http://www.w3.org/2000/svg">
<path d="M23.0002 42.1667L19.1668 30.6667H3.8335L7.66683 42.1667H23.0002ZM23.0002 42.1667H30.6668M23.0002 24.9167V23.9583C23.0002 20.3435 23.0002 18.538 21.877 17.4148C20.7538 16.2917 18.9483 16.2917 15.3335 16.2917C11.7187 16.2917 9.91316 16.2917 8.79 17.4148C7.66683 18.538 7.66683 20.3435 7.66683 23.9583V24.9167M26.8335 33.5417H38.3335C39.3502 33.5417 40.3252 33.9455 41.0441 34.6644C41.763 35.3833 42.1668 36.3583 42.1668 37.375V38.3333C42.1668 39.35 41.763 40.325 41.0441 41.0439C40.3252 41.7628 39.3502 42.1667 38.3335 42.1667H36.4168M36.4168 24.9167C36.4168 25.9333 36.013 26.9083 35.2941 27.6272C34.5752 28.3461 33.6002 28.75 32.5835 28.75C31.5668 28.75 30.5918 28.3461 29.8729 27.6272C29.154 26.9083 28.7502 25.9333 28.7502 24.9167C28.7502 23.9 29.154 22.925 29.8729 22.2061C30.5918 21.4872 31.5668 21.0833 32.5835 21.0833C33.6002 21.0833 34.5752 21.4872 35.2941 22.2061C36.013 22.925 36.4168 23.9 36.4168 24.9167ZM19.1668 7.66666C19.1668 8.68333 18.763 9.65835 18.0441 10.3772C17.3252 11.0961 16.3502 11.5 15.3335 11.5C14.3168 11.5 13.3418 11.0961 12.6229 10.3772C11.904 9.65835 11.5002 8.68333 11.5002 7.66666C11.5002 6.65 11.904 5.67497 12.6229 4.95609C13.3418 4.2372 14.3168 3.83333 15.3335 3.83333C16.3502 3.83333 17.3252 4.2372 18.0441 4.95609C18.763 5.67497 19.1668 6.65 19.1668 7.66666Z" stroke="#16DBCC" stroke-width="4" stroke-linecap="round" stroke-linejoin="round"/>
</svg>
