<svg width="20" height="20" viewBox="0 0 20 20" fill="none" xmlns="http://www.w3.org/2000/svg">
<path d="M1.50856 8.10625C1.74297 7.87191 2.06086 7.74027 2.39231 7.74027C2.72377 7.74027 3.04165 7.87191 3.27606 8.10625L7.69606 12.5263L16.5336 3.6875C16.6496 3.57136 16.7874 3.47922 16.9391 3.41634C17.0907 3.35345 17.2533 3.32106 17.4175 3.321C17.5817 3.32094 17.7443 3.35322 17.896 3.416C18.0477 3.47878 18.1855 3.57082 18.3017 3.68688C18.4178 3.80293 18.51 3.94073 18.5729 4.09239C18.6357 4.24406 18.6681 4.40663 18.6682 4.57081C18.6682 4.735 18.636 4.89759 18.5732 5.0493C18.5104 5.20101 18.4184 5.33886 18.3023 5.455L7.69606 16.0613L1.50856 9.87375C1.27422 9.63934 1.14258 9.32146 1.14258 8.99C1.14258 8.65855 1.27422 8.34066 1.50856 8.10625Z" fill="#F8F8F8"/>
</svg>
