<svg width="49" height="49" viewBox="0 0 49 49" fill="none" xmlns="http://www.w3.org/2000/svg">
<path d="M14.894 34.7083C7.20711 14.802 18.0953 5.99834 24.5 4.08325C30.9047 5.99834 41.7929 14.802 34.1061 34.7083C32.9464 34.0713 29.4 32.7952 24.5 32.7952C19.6 32.7952 16.0536 34.0713 14.894 34.7083Z" stroke="#F8F8F8" stroke-width="3" stroke-linecap="round" stroke-linejoin="round"/>
<path d="M35.7292 31.7641C38.6733 32.0356 42.2789 32.8339 44.8779 34.7082C44.8779 34.7082 45.9457 24.6305 36.75 22.4582M13.2709 31.7641C10.3268 32.0356 6.7212 32.8339 4.12216 34.7082C4.12216 34.7082 3.05436 24.6305 12.25 22.4582M19.3959 38.7915C19.3959 38.7915 20.2472 43.8957 24.5 44.9165C28.7528 43.8957 29.6042 38.7915 29.6042 38.7915M28.5834 18.3748C28.5834 17.2919 28.1532 16.2533 27.3874 15.4875C26.6216 14.7217 25.583 14.2915 24.5 14.2915C23.4171 14.2915 22.3785 14.7217 21.6127 15.4875C20.8469 16.2533 20.4167 17.2919 20.4167 18.3748C20.4167 19.4578 20.8469 20.4964 21.6127 21.2622C22.3785 22.028 23.4171 22.4582 24.5 22.4582C25.583 22.4582 26.6216 22.028 27.3874 21.2622C28.1532 20.4964 28.5834 19.4578 28.5834 18.3748Z" stroke="#F8F8F8" stroke-width="3" stroke-linecap="round" stroke-linejoin="round"/>
</svg>
