<svg width="21" height="21" viewBox="0 0 21 21" fill="none" xmlns="http://www.w3.org/2000/svg">
<path fill-rule="evenodd" clip-rule="evenodd" d="M6.5625 4.26562V5.25H3.60938C3.3483 5.25 3.09792 5.35371 2.91332 5.53832C2.72871 5.72292 2.625 5.9733 2.625 6.23438C2.625 6.49545 2.72871 6.74583 2.91332 6.93043C3.09792 7.11504 3.3483 7.21875 3.60938 7.21875H4.00312L5.07281 17.9156C5.12161 18.4011 5.34896 18.8512 5.71078 19.1786C6.0726 19.506 6.54311 19.6873 7.03106 19.6875H13.9689C14.4569 19.6873 14.9274 19.506 15.2892 19.1786C15.651 18.8512 15.8784 18.4011 15.9272 17.9156L16.9969 7.21875H17.3906C17.6517 7.21875 17.9021 7.11504 18.0867 6.93043C18.2713 6.74583 18.375 6.49545 18.375 6.23438C18.375 5.9733 18.2713 5.72292 18.0867 5.53832C17.9021 5.35371 17.6517 5.25 17.3906 5.25H14.4375V4.26562C14.4375 3.48241 14.1264 2.73127 13.5725 2.17745C13.0187 1.62363 12.2676 1.3125 11.4844 1.3125H9.51562C8.73241 1.3125 7.98127 1.62363 7.42745 2.17745C6.87363 2.73127 6.5625 3.48241 6.5625 4.26562ZM9.51562 3.28125C9.25455 3.28125 9.00417 3.38496 8.81957 3.56957C8.63496 3.75417 8.53125 4.00455 8.53125 4.26562V5.25H12.4688V4.26562C12.4688 4.00455 12.365 3.75417 12.1804 3.56957C11.9958 3.38496 11.7454 3.28125 11.4844 3.28125H9.51562ZM7.94063 7.875C8.06993 7.86846 8.19926 7.8875 8.3212 7.93102C8.44313 7.97454 8.55529 8.04168 8.65124 8.12861C8.74719 8.21554 8.82505 8.32054 8.88036 8.4376C8.93567 8.55467 8.96734 8.68149 8.97356 8.81081L9.3345 16.0296C9.34412 16.2883 9.25145 16.5403 9.07654 16.7312C8.90164 16.9221 8.65859 17.0364 8.40003 17.0493C8.14147 17.0622 7.88822 16.9728 7.69512 16.8004C7.50203 16.6279 7.38464 16.3864 7.36837 16.128L7.00744 8.90925C7.00072 8.78005 7.01953 8.65079 7.0628 8.52886C7.10608 8.40693 7.17296 8.29473 7.25963 8.19868C7.3463 8.10262 7.45106 8.02459 7.56791 7.96905C7.68476 7.91351 7.81141 7.88155 7.94063 7.875ZM13.0594 7.875C13.1886 7.88139 13.3153 7.91318 13.4322 7.96857C13.5491 8.02395 13.6539 8.10183 13.7407 8.19777C13.8275 8.2937 13.8946 8.4058 13.938 8.52766C13.9814 8.64951 14.0004 8.77874 13.9939 8.90794L13.6329 16.1267C13.6167 16.3851 13.4993 16.6266 13.3062 16.7991C13.1131 16.9715 12.8598 17.0609 12.6013 17.048C12.3427 17.035 12.0997 16.9208 11.9248 16.7299C11.7499 16.539 11.6572 16.287 11.6668 16.0282L12.0277 8.8095C12.041 8.54902 12.1571 8.30444 12.3505 8.12948C12.5439 7.95451 12.7989 7.86214 13.0594 7.875Z" fill="#F8F8F8"/>
</svg>
