<svg width="17" height="25" viewBox="0 0 17 25" fill="none" xmlns="http://www.w3.org/2000/svg">
<path d="M8.5 11.5357C7.69488 11.5357 6.92273 11.2159 6.35343 10.6466C5.78412 10.0773 5.46429 9.30512 5.46429 8.5C5.46429 7.69488 5.78412 6.92273 6.35343 6.35343C6.92273 5.78412 7.69488 5.46429 8.5 5.46429C9.30512 5.46429 10.0773 5.78412 10.6466 6.35343C11.2159 6.92273 11.5357 7.69488 11.5357 8.5C11.5357 8.89866 11.4572 9.29341 11.3046 9.66172C11.1521 10.03 10.9285 10.3647 10.6466 10.6466C10.3647 10.9285 10.03 11.1521 9.66172 11.3046C9.29341 11.4572 8.89866 11.5357 8.5 11.5357ZM8.5 0C6.24566 0 4.08365 0.895533 2.48959 2.48959C0.895533 4.08365 0 6.24566 0 8.5C0 14.875 8.5 24.2857 8.5 24.2857C8.5 24.2857 17 14.875 17 8.5C17 6.24566 16.1045 4.08365 14.5104 2.48959C12.9163 0.895533 10.7543 0 8.5 0Z" fill="#CC2828"/>
</svg>
