<svg xmlns="http://www.w3.org/2000/svg" width="295.716" height="295.714" viewBox="0 0 295.716 295.714">
  <g id="Grupo_64514" data-name="Grupo 64514" transform="translate(-106.999 -437.507)">
    <path id="Trazado_13628" data-name="Trazado 13628" d="M242.426,293.2a1778.4,1778.4,0,0,1-189.137,0c-26.035-1.49-49.276-24.736-50.774-50.771a1778.387,1778.387,0,0,1,0-189.137C4.006,27.255,27.254,4.015,53.289,2.517a1778.386,1778.386,0,0,1,189.137,0C268.464,4.015,291.7,27.255,293.2,53.29a1778.383,1778.383,0,0,1,0,189.137c-1.5,26.033-24.736,49.273-50.773,50.773" transform="translate(107 437.506)" fill="#ececec"/>
    <g id="Grupo_64513" data-name="Grupo 64513">
      <path id="Trazado_13629" data-name="Trazado 13629" d="M134.087,24.63H30.874A1.189,1.189,0,0,0,29.69,25.7l-.256,2.428h-.01l-.2,1.9-.018.183a14.4,14.4,0,0,0,1.453,7.768,4.483,4.483,0,0,0,3.061,2.372A167.622,167.622,0,0,1,66.524,51.7,169.489,169.489,0,0,1,86.209,62.549,15.763,15.763,0,0,0,99.973,64.3a44.028,44.028,0,0,1,15-2.488,43.117,43.117,0,0,1,6.582.472q7.611,1.18,12.153,5.305a19.843,19.843,0,0,1,5.767,10.236A41.565,41.565,0,0,1,140.126,92L129.539,194.054a2.267,2.267,0,0,0,2.254,2.5h38.98a2.267,2.267,0,0,0,2.254-2.033L184.587,83.1q2.7-26.055-8.426-41.312Q163,24.633,134.087,24.63" transform="translate(151.085 474.77)" fill="#1b1b19"/>
      <path id="Trazado_13630" data-name="Trazado 13630" d="M46.1,35.249a3.562,3.562,0,0,0-5.147,2.96l-.008.065L26.48,178.578a2.266,2.266,0,0,0,2.254,2.5h39.3a2.267,2.267,0,0,0,2.254-2.033l10.339-99.66a41.232,41.232,0,0,1,1.734-8.391,13.426,13.426,0,0,0-4.187-14.209A164.067,164.067,0,0,0,46.1,35.249" transform="translate(147.047 490.246)" fill="#00beb0"/>
    </g>
  </g>
</svg>
