<svg width="246" height="246" viewBox="0 0 246 246" fill="none" xmlns="http://www.w3.org/2000/svg">
<g clip-path="url(#clip0_254_1850)">
<g filter="url(#filter0_iii_254_1850)">
<path d="M0 115C0 51.4872 51.4873 0 115 0H127C192.722 0 246 53.2781 246 119V127C246 192.722 192.722 246 127 246H123C55.069 246 0 190.931 0 123V115Z" fill="url(#paint0_radial_254_1850)"/>
</g>
<mask id="mask0_254_1850" style="mask-type:alpha" maskUnits="userSpaceOnUse" x="49" y="137" width="147" height="74">
<path d="M51.9 137.5C51.0713 137.5 50.6569 137.5 50.3144 137.63C49.7673 137.837 49.3122 138.311 49.1266 138.865C49.0104 139.213 49.0259 139.608 49.0572 140.4C49.7846 158.839 57.4287 176.373 70.5277 189.472C84.3116 203.256 103.007 211 122.5 211C141.993 211 160.688 203.256 174.472 189.472C187.571 176.373 195.215 158.839 195.943 140.4C195.974 139.608 195.99 139.213 195.873 138.865C195.688 138.311 195.233 137.837 194.686 137.63C194.343 137.5 193.929 137.5 193.1 137.5L122.5 137.5L51.9 137.5Z" fill="url(#paint1_linear_254_1850)"/>
</mask>
<g mask="url(#mask0_254_1850)">
<g filter="url(#filter1_i_254_1850)">
<path d="M72.2 137.5C66.5926 137.5 63.7889 137.5 60.6473 138.92C56.382 140.847 51.8392 147.11 51.3311 151.763C50.9568 155.19 51.515 156.899 52.6313 160.317C56.1881 171.208 62.2754 181.22 70.5277 189.472C84.3116 203.256 103.007 211 122.5 211C141.993 211 160.688 203.256 174.472 189.472C183.073 180.872 189.322 170.36 192.805 158.934C193.846 155.522 194.366 153.817 193.97 150.644C193.427 146.289 189.209 140.593 185.202 138.804C182.283 137.5 179.605 137.5 174.25 137.5L122.5 137.5L72.2 137.5Z" fill="url(#paint2_linear_254_1850)"/>
</g>
<g filter="url(#filter2_i_254_1850)">
<rect x="32.8965" y="177.5" width="180" height="44" fill="white"/>
</g>
<g filter="url(#filter3_i_254_1850)">
<rect x="32.8965" y="133.5" width="180" height="44" fill="white"/>
</g>
</g>
<g filter="url(#filter4_i_254_1850)">
<path d="M101.54 115.5C105.66 115.5 109.081 112.122 108.197 108.098C106.794 101.711 103.591 95.8008 98.8952 91.1048C92.4252 84.6348 83.65 81 74.5 81C65.35 81 56.5748 84.6348 50.1048 91.1048C45.6509 95.5587 42.5406 101.105 41.0346 107.114C39.8974 111.652 43.7924 115.5 48.4706 115.5C52.8564 115.5 56.2631 111.781 58.1273 107.811C59.0089 105.934 60.215 104.204 61.7097 102.71C65.1019 99.3176 69.7027 97.4118 74.5 97.4118C79.2973 97.4118 83.8981 99.3176 87.2903 102.71C88.5423 103.962 89.5918 105.378 90.4178 106.909C92.7658 111.26 96.5961 115.5 101.54 115.5Z" fill="#C4C4C4"/>
<path d="M101.54 115.5C105.66 115.5 109.081 112.122 108.197 108.098C106.794 101.711 103.591 95.8008 98.8952 91.1048C92.4252 84.6348 83.65 81 74.5 81C65.35 81 56.5748 84.6348 50.1048 91.1048C45.6509 95.5587 42.5406 101.105 41.0346 107.114C39.8974 111.652 43.7924 115.5 48.4706 115.5C52.8564 115.5 56.2631 111.781 58.1273 107.811C59.0089 105.934 60.215 104.204 61.7097 102.71C65.1019 99.3176 69.7027 97.4118 74.5 97.4118C79.2973 97.4118 83.8981 99.3176 87.2903 102.71C88.5423 103.962 89.5918 105.378 90.4178 106.909C92.7658 111.26 96.5961 115.5 101.54 115.5Z" fill="#221725"/>
</g>
<g filter="url(#filter5_i_254_1850)">
<path d="M198.54 115.5C202.66 115.5 206.081 112.122 205.197 108.098C203.794 101.711 200.591 95.8008 195.895 91.1048C189.425 84.6348 180.65 81 171.5 81C162.35 81 153.575 84.6348 147.105 91.1048C142.651 95.5587 139.541 101.105 138.035 107.114C136.897 111.652 140.792 115.5 145.471 115.5C149.856 115.5 153.263 111.781 155.127 107.811C156.009 105.934 157.215 104.204 158.71 102.71C162.102 99.3176 166.703 97.4118 171.5 97.4118C176.297 97.4118 180.898 99.3176 184.29 102.71C185.542 103.962 186.592 105.378 187.418 106.909C189.766 111.26 193.596 115.5 198.54 115.5Z" fill="#C4C4C4"/>
<path d="M198.54 115.5C202.66 115.5 206.081 112.122 205.197 108.098C203.794 101.711 200.591 95.8008 195.895 91.1048C189.425 84.6348 180.65 81 171.5 81C162.35 81 153.575 84.6348 147.105 91.1048C142.651 95.5587 139.541 101.105 138.035 107.114C136.897 111.652 140.792 115.5 145.471 115.5C149.856 115.5 153.263 111.781 155.127 107.811C156.009 105.934 157.215 104.204 158.71 102.71C162.102 99.3176 166.703 97.4118 171.5 97.4118C176.297 97.4118 180.898 99.3176 184.29 102.71C185.542 103.962 186.592 105.378 187.418 106.909C189.766 111.26 193.596 115.5 198.54 115.5Z" fill="#221725"/>
</g>
</g>
<defs>
<filter id="filter0_iii_254_1850" x="-11" y="-24" width="278" height="326" filterUnits="userSpaceOnUse" color-interpolation-filters="sRGB">
<feFlood flood-opacity="0" result="BackgroundImageFix"/>
<feBlend mode="normal" in="SourceGraphic" in2="BackgroundImageFix" result="shape"/>
<feColorMatrix in="SourceAlpha" type="matrix" values="0 0 0 0 0 0 0 0 0 0 0 0 0 0 0 0 0 0 127 0" result="hardAlpha"/>
<feMorphology radius="8" operator="erode" in="SourceAlpha" result="effect1_innerShadow_254_1850"/>
<feOffset dx="21" dy="73"/>
<feGaussianBlur stdDeviation="24"/>
<feComposite in2="hardAlpha" operator="arithmetic" k2="-1" k3="1"/>
<feColorMatrix type="matrix" values="0 0 0 0 0.682806 0 0 0 0 0.0652778 0 0 0 0 0.783333 0 0 0 0.14 0"/>
<feBlend mode="normal" in2="shape" result="effect1_innerShadow_254_1850"/>
<feColorMatrix in="SourceAlpha" type="matrix" values="0 0 0 0 0 0 0 0 0 0 0 0 0 0 0 0 0 0 127 0" result="hardAlpha"/>
<feOffset dy="-24"/>
<feGaussianBlur stdDeviation="15.5"/>
<feComposite in2="hardAlpha" operator="arithmetic" k2="-1" k3="1"/>
<feColorMatrix type="matrix" values="0 0 0 0 0.943639 0 0 0 0 0.223611 0 0 0 0 0.958333 0 0 0 0.44 0"/>
<feBlend mode="normal" in2="effect1_innerShadow_254_1850" result="effect2_innerShadow_254_1850"/>
<feColorMatrix in="SourceAlpha" type="matrix" values="0 0 0 0 0 0 0 0 0 0 0 0 0 0 0 0 0 0 127 0" result="hardAlpha"/>
<feOffset dx="-11" dy="30"/>
<feGaussianBlur stdDeviation="15.5"/>
<feComposite in2="hardAlpha" operator="arithmetic" k2="-1" k3="1"/>
<feColorMatrix type="matrix" values="0 0 0 0 1 0 0 0 0 0.766722 0 0 0 0 0.693056 0 0 0 0.68 0"/>
<feBlend mode="normal" in2="effect2_innerShadow_254_1850" result="effect3_innerShadow_254_1850"/>
</filter>
<filter id="filter1_i_254_1850" x="51.2148" y="137.5" width="142.888" height="77.5" filterUnits="userSpaceOnUse" color-interpolation-filters="sRGB">
<feFlood flood-opacity="0" result="BackgroundImageFix"/>
<feBlend mode="normal" in="SourceGraphic" in2="BackgroundImageFix" result="shape"/>
<feColorMatrix in="SourceAlpha" type="matrix" values="0 0 0 0 0 0 0 0 0 0 0 0 0 0 0 0 0 0 127 0" result="hardAlpha"/>
<feOffset dy="4"/>
<feGaussianBlur stdDeviation="8"/>
<feComposite in2="hardAlpha" operator="arithmetic" k2="-1" k3="1"/>
<feColorMatrix type="matrix" values="0 0 0 0 0 0 0 0 0 0 0 0 0 0 0 0 0 0 0.25 0"/>
<feBlend mode="normal" in2="shape" result="effect1_innerShadow_254_1850"/>
</filter>
<filter id="filter2_i_254_1850" x="32.8965" y="174.5" width="180" height="47" filterUnits="userSpaceOnUse" color-interpolation-filters="sRGB">
<feFlood flood-opacity="0" result="BackgroundImageFix"/>
<feBlend mode="normal" in="SourceGraphic" in2="BackgroundImageFix" result="shape"/>
<feColorMatrix in="SourceAlpha" type="matrix" values="0 0 0 0 0 0 0 0 0 0 0 0 0 0 0 0 0 0 127 0" result="hardAlpha"/>
<feOffset dy="-3"/>
<feGaussianBlur stdDeviation="8"/>
<feComposite in2="hardAlpha" operator="arithmetic" k2="-1" k3="1"/>
<feColorMatrix type="matrix" values="0 0 0 0 0 0 0 0 0 0 0 0 0 0 0 0 0 0 0.47 0"/>
<feBlend mode="normal" in2="shape" result="effect1_innerShadow_254_1850"/>
</filter>
<filter id="filter3_i_254_1850" x="32.8965" y="130.5" width="180" height="47" filterUnits="userSpaceOnUse" color-interpolation-filters="sRGB">
<feFlood flood-opacity="0" result="BackgroundImageFix"/>
<feBlend mode="normal" in="SourceGraphic" in2="BackgroundImageFix" result="shape"/>
<feColorMatrix in="SourceAlpha" type="matrix" values="0 0 0 0 0 0 0 0 0 0 0 0 0 0 0 0 0 0 127 0" result="hardAlpha"/>
<feOffset dy="-3"/>
<feGaussianBlur stdDeviation="8"/>
<feComposite in2="hardAlpha" operator="arithmetic" k2="-1" k3="1"/>
<feColorMatrix type="matrix" values="0 0 0 0 0 0 0 0 0 0 0 0 0 0 0 0 0 0 0.47 0"/>
<feBlend mode="normal" in2="shape" result="effect1_innerShadow_254_1850"/>
</filter>
<filter id="filter4_i_254_1850" x="40.835" y="81" width="67.502" height="34.5" filterUnits="userSpaceOnUse" color-interpolation-filters="sRGB">
<feFlood flood-opacity="0" result="BackgroundImageFix"/>
<feBlend mode="normal" in="SourceGraphic" in2="BackgroundImageFix" result="shape"/>
<feColorMatrix in="SourceAlpha" type="matrix" values="0 0 0 0 0 0 0 0 0 0 0 0 0 0 0 0 0 0 127 0" result="hardAlpha"/>
<feMorphology radius="26.45" operator="dilate" in="SourceAlpha" result="effect1_innerShadow_254_1850"/>
<feOffset dx="9.2" dy="-7"/>
<feGaussianBlur stdDeviation="10.35"/>
<feComposite in2="hardAlpha" operator="arithmetic" k2="-1" k3="1"/>
<feColorMatrix type="matrix" values="0 0 0 0 0.462111 0 0 0 0 0.203767 0 0 0 0 0.504167 0 0 0 0.35 0"/>
<feBlend mode="normal" in2="shape" result="effect1_innerShadow_254_1850"/>
</filter>
<filter id="filter5_i_254_1850" x="137.835" y="81" width="67.502" height="34.5" filterUnits="userSpaceOnUse" color-interpolation-filters="sRGB">
<feFlood flood-opacity="0" result="BackgroundImageFix"/>
<feBlend mode="normal" in="SourceGraphic" in2="BackgroundImageFix" result="shape"/>
<feColorMatrix in="SourceAlpha" type="matrix" values="0 0 0 0 0 0 0 0 0 0 0 0 0 0 0 0 0 0 127 0" result="hardAlpha"/>
<feMorphology radius="26.45" operator="dilate" in="SourceAlpha" result="effect1_innerShadow_254_1850"/>
<feOffset dx="9.2" dy="-9"/>
<feGaussianBlur stdDeviation="10.35"/>
<feComposite in2="hardAlpha" operator="arithmetic" k2="-1" k3="1"/>
<feColorMatrix type="matrix" values="0 0 0 0 0.462111 0 0 0 0 0.203767 0 0 0 0 0.504167 0 0 0 0.35 0"/>
<feBlend mode="normal" in2="shape" result="effect1_innerShadow_254_1850"/>
</filter>
<radialGradient id="paint0_radial_254_1850" cx="0" cy="0" r="1" gradientUnits="userSpaceOnUse" gradientTransform="translate(109 16) rotate(86.5167) scale(230.426)">
<stop offset="0.576389" stop-color="#FFBB0C"/>
<stop offset="1" stop-color="#FFC907"/>
</radialGradient>
<linearGradient id="paint1_linear_254_1850" x1="122.5" y1="211" x2="107.5" y2="125" gradientUnits="userSpaceOnUse">
<stop stop-color="#FB39A2"/>
<stop offset="1" stop-color="#C520FF"/>
</linearGradient>
<linearGradient id="paint2_linear_254_1850" x1="122.5" y1="211" x2="77.5" y2="116" gradientUnits="userSpaceOnUse">
<stop stop-color="#3A2EC0"/>
<stop offset="1" stop-color="#FF20C1"/>
</linearGradient>
<clipPath id="clip0_254_1850">
<rect width="246" height="246" fill="white"/>
</clipPath>
</defs>
</svg>
