<svg width="246" height="246" viewBox="0 0 246 246" fill="none" xmlns="http://www.w3.org/2000/svg">
<g clip-path="url(#clip0_254_1894)">
<g filter="url(#filter0_iii_254_1894)">
<path d="M0 115C0 51.4872 51.4873 0 115 0H127C192.722 0 246 53.2781 246 119V127C246 192.722 192.722 246 127 246H123C55.069 246 0 190.931 0 123V115Z" fill="url(#paint0_radial_254_1894)"/>
</g>
<g filter="url(#filter1_i_254_1894)">
<path d="M101.54 115.5C105.66 115.5 109.081 112.122 108.197 108.098C106.794 101.711 103.591 95.8008 98.8952 91.1048C92.4252 84.6348 83.65 81 74.5 81C65.35 81 56.5748 84.6348 50.1048 91.1048C45.6509 95.5587 42.5406 101.105 41.0346 107.114C39.8974 111.652 43.7924 115.5 48.4706 115.5C52.8564 115.5 56.2631 111.781 58.1273 107.811C59.0089 105.934 60.215 104.204 61.7097 102.71C65.1019 99.3176 69.7027 97.4118 74.5 97.4118C79.2973 97.4118 83.8981 99.3176 87.2903 102.71C88.5423 103.962 89.5918 105.378 90.4178 106.909C92.7658 111.26 96.5961 115.5 101.54 115.5Z" fill="#C4C4C4"/>
<path d="M101.54 115.5C105.66 115.5 109.081 112.122 108.197 108.098C106.794 101.711 103.591 95.8008 98.8952 91.1048C92.4252 84.6348 83.65 81 74.5 81C65.35 81 56.5748 84.6348 50.1048 91.1048C45.6509 95.5587 42.5406 101.105 41.0346 107.114C39.8974 111.652 43.7924 115.5 48.4706 115.5C52.8564 115.5 56.2631 111.781 58.1273 107.811C59.0089 105.934 60.215 104.204 61.7097 102.71C65.1019 99.3176 69.7027 97.4118 74.5 97.4118C79.2973 97.4118 83.8981 99.3176 87.2903 102.71C88.5423 103.962 89.5918 105.378 90.4178 106.909C92.7658 111.26 96.5961 115.5 101.54 115.5Z" fill="#221725"/>
</g>
<g filter="url(#filter2_i_254_1894)">
<path d="M198.54 115.5C202.66 115.5 206.081 112.122 205.197 108.098C203.794 101.711 200.591 95.8008 195.895 91.1048C189.425 84.6348 180.65 81 171.5 81C162.35 81 153.575 84.6348 147.105 91.1048C142.651 95.5587 139.541 101.105 138.035 107.114C136.897 111.652 140.792 115.5 145.471 115.5C149.856 115.5 153.263 111.781 155.127 107.811C156.009 105.934 157.215 104.204 158.71 102.71C162.102 99.3176 166.703 97.4118 171.5 97.4118C176.297 97.4118 180.898 99.3176 184.29 102.71C185.542 103.962 186.592 105.378 187.418 106.909C189.766 111.26 193.596 115.5 198.54 115.5Z" fill="#C4C4C4"/>
<path d="M198.54 115.5C202.66 115.5 206.081 112.122 205.197 108.098C203.794 101.711 200.591 95.8008 195.895 91.1048C189.425 84.6348 180.65 81 171.5 81C162.35 81 153.575 84.6348 147.105 91.1048C142.651 95.5587 139.541 101.105 138.035 107.114C136.897 111.652 140.792 115.5 145.471 115.5C149.856 115.5 153.263 111.781 155.127 107.811C156.009 105.934 157.215 104.204 158.71 102.71C162.102 99.3176 166.703 97.4118 171.5 97.4118C176.297 97.4118 180.898 99.3176 184.29 102.71C185.542 103.962 186.592 105.378 187.418 106.909C189.766 111.26 193.596 115.5 198.54 115.5Z" fill="#221725"/>
</g>
<g filter="url(#filter3_iii_254_1894)">
<path d="M176.643 145.251L135.5 166.5L167.616 187.952C167.868 188.121 167.994 188.205 168.094 188.27C180.928 196.66 198.231 190.998 203.623 176.645C203.665 176.533 203.717 176.39 203.821 176.105C203.934 175.795 203.99 175.639 204.031 175.524C209.347 160.433 197.917 144.689 181.922 145.07C181.799 145.072 181.634 145.078 181.303 145.09L176.643 145.251Z" fill="#C4C4C4"/>
<path d="M176.643 145.251L135.5 166.5L167.616 187.952C167.868 188.121 167.994 188.205 168.094 188.27C180.928 196.66 198.231 190.998 203.623 176.645C203.665 176.533 203.717 176.39 203.821 176.105C203.934 175.795 203.99 175.639 204.031 175.524C209.347 160.433 197.917 144.689 181.922 145.07C181.799 145.072 181.634 145.078 181.303 145.09L176.643 145.251Z" fill="url(#paint1_radial_254_1894)"/>
</g>
<path d="M160.443 152.907C162.435 150.762 166.188 151.586 167.505 154.2C168.838 156.845 170.748 159.923 173.34 162.552C176.935 166.2 183.567 170.173 188.28 172.759C190.552 174.006 190.648 177.326 188.404 178.624C187.066 179.398 185.42 179.399 184.101 178.592C180.595 176.447 173.599 171.992 169.433 168.155C165.28 164.329 161.945 159.98 160.094 157.365C159.12 155.988 159.296 154.143 160.443 152.907Z" fill="black" fill-opacity="0.21"/>
<g filter="url(#filter4_ii_254_1894)">
<mask id="path-6-inside-1_254_1894" fill="white">
<path d="M178.213 126.527C182.947 126.869 186.554 131.034 185.458 135.652C183.369 144.449 179.202 152.734 173.218 159.878C165.337 169.287 154.658 176.292 142.532 180.008C130.406 183.725 117.377 183.984 105.093 180.755C95.7517 178.299 87.16 173.91 79.9294 167.951C76.2321 164.904 76.6807 159.328 80.4149 156.326C83.8295 153.582 88.7497 154.033 92.2061 156.725C97.3062 160.697 103.261 163.64 109.702 165.333C118.733 167.707 128.313 167.516 137.229 164.784C146.144 162.051 153.996 156.901 159.791 149.982C163.724 145.287 166.59 139.92 168.251 134.214C169.559 129.72 173.545 126.19 178.213 126.527Z"/>
</mask>
<path d="M178.213 126.527C182.947 126.869 186.554 131.034 185.458 135.652C183.369 144.449 179.202 152.734 173.218 159.878C165.337 169.287 154.658 176.292 142.532 180.008C130.406 183.725 117.377 183.984 105.093 180.755C95.7517 178.299 87.16 173.91 79.9294 167.951C76.2321 164.904 76.6807 159.328 80.4149 156.326C83.8295 153.582 88.7497 154.033 92.2061 156.725C97.3062 160.697 103.261 163.64 109.702 165.333C118.733 167.707 128.313 167.516 137.229 164.784C146.144 162.051 153.996 156.901 159.791 149.982C163.724 145.287 166.59 139.92 168.251 134.214C169.559 129.72 173.545 126.19 178.213 126.527Z" stroke="url(#paint2_linear_254_1894)" stroke-width="22" stroke-linejoin="round" mask="url(#path-6-inside-1_254_1894)"/>
</g>
</g>
<defs>
<filter id="filter0_iii_254_1894" x="-11" y="-24" width="278" height="326" filterUnits="userSpaceOnUse" color-interpolation-filters="sRGB">
<feFlood flood-opacity="0" result="BackgroundImageFix"/>
<feBlend mode="normal" in="SourceGraphic" in2="BackgroundImageFix" result="shape"/>
<feColorMatrix in="SourceAlpha" type="matrix" values="0 0 0 0 0 0 0 0 0 0 0 0 0 0 0 0 0 0 127 0" result="hardAlpha"/>
<feMorphology radius="8" operator="erode" in="SourceAlpha" result="effect1_innerShadow_254_1894"/>
<feOffset dx="21" dy="73"/>
<feGaussianBlur stdDeviation="24"/>
<feComposite in2="hardAlpha" operator="arithmetic" k2="-1" k3="1"/>
<feColorMatrix type="matrix" values="0 0 0 0 0.682806 0 0 0 0 0.0652778 0 0 0 0 0.783333 0 0 0 0.14 0"/>
<feBlend mode="normal" in2="shape" result="effect1_innerShadow_254_1894"/>
<feColorMatrix in="SourceAlpha" type="matrix" values="0 0 0 0 0 0 0 0 0 0 0 0 0 0 0 0 0 0 127 0" result="hardAlpha"/>
<feOffset dy="-24"/>
<feGaussianBlur stdDeviation="15.5"/>
<feComposite in2="hardAlpha" operator="arithmetic" k2="-1" k3="1"/>
<feColorMatrix type="matrix" values="0 0 0 0 0.943639 0 0 0 0 0.223611 0 0 0 0 0.958333 0 0 0 0.44 0"/>
<feBlend mode="normal" in2="effect1_innerShadow_254_1894" result="effect2_innerShadow_254_1894"/>
<feColorMatrix in="SourceAlpha" type="matrix" values="0 0 0 0 0 0 0 0 0 0 0 0 0 0 0 0 0 0 127 0" result="hardAlpha"/>
<feOffset dx="-11" dy="30"/>
<feGaussianBlur stdDeviation="15.5"/>
<feComposite in2="hardAlpha" operator="arithmetic" k2="-1" k3="1"/>
<feColorMatrix type="matrix" values="0 0 0 0 1 0 0 0 0 0.766722 0 0 0 0 0.693056 0 0 0 0.68 0"/>
<feBlend mode="normal" in2="effect2_innerShadow_254_1894" result="effect3_innerShadow_254_1894"/>
</filter>
<filter id="filter1_i_254_1894" x="40.835" y="81" width="67.502" height="34.5" filterUnits="userSpaceOnUse" color-interpolation-filters="sRGB">
<feFlood flood-opacity="0" result="BackgroundImageFix"/>
<feBlend mode="normal" in="SourceGraphic" in2="BackgroundImageFix" result="shape"/>
<feColorMatrix in="SourceAlpha" type="matrix" values="0 0 0 0 0 0 0 0 0 0 0 0 0 0 0 0 0 0 127 0" result="hardAlpha"/>
<feMorphology radius="26.45" operator="dilate" in="SourceAlpha" result="effect1_innerShadow_254_1894"/>
<feOffset dx="9.2" dy="-7"/>
<feGaussianBlur stdDeviation="10.35"/>
<feComposite in2="hardAlpha" operator="arithmetic" k2="-1" k3="1"/>
<feColorMatrix type="matrix" values="0 0 0 0 0.462111 0 0 0 0 0.203767 0 0 0 0 0.504167 0 0 0 0.35 0"/>
<feBlend mode="normal" in2="shape" result="effect1_innerShadow_254_1894"/>
</filter>
<filter id="filter2_i_254_1894" x="137.835" y="81" width="67.502" height="34.5" filterUnits="userSpaceOnUse" color-interpolation-filters="sRGB">
<feFlood flood-opacity="0" result="BackgroundImageFix"/>
<feBlend mode="normal" in="SourceGraphic" in2="BackgroundImageFix" result="shape"/>
<feColorMatrix in="SourceAlpha" type="matrix" values="0 0 0 0 0 0 0 0 0 0 0 0 0 0 0 0 0 0 127 0" result="hardAlpha"/>
<feMorphology radius="26.45" operator="dilate" in="SourceAlpha" result="effect1_innerShadow_254_1894"/>
<feOffset dx="9.2" dy="-9"/>
<feGaussianBlur stdDeviation="10.35"/>
<feComposite in2="hardAlpha" operator="arithmetic" k2="-1" k3="1"/>
<feColorMatrix type="matrix" values="0 0 0 0 0.462111 0 0 0 0 0.203767 0 0 0 0 0.504167 0 0 0 0.35 0"/>
<feBlend mode="normal" in2="shape" result="effect1_innerShadow_254_1894"/>
</filter>
<filter id="filter3_iii_254_1894" x="132.234" y="134.175" width="73.1169" height="62.3635" filterUnits="userSpaceOnUse" color-interpolation-filters="sRGB">
<feFlood flood-opacity="0" result="BackgroundImageFix"/>
<feBlend mode="normal" in="SourceGraphic" in2="BackgroundImageFix" result="shape"/>
<feColorMatrix in="SourceAlpha" type="matrix" values="0 0 0 0 0 0 0 0 0 0 0 0 0 0 0 0 0 0 127 0" result="hardAlpha"/>
<feOffset dy="4.35512"/>
<feGaussianBlur stdDeviation="5.4439"/>
<feComposite in2="hardAlpha" operator="arithmetic" k2="-1" k3="1"/>
<feColorMatrix type="matrix" values="0 0 0 0 0 0 0 0 0 0 0 0 0 0 0 0 0 0 0.25 0"/>
<feBlend mode="normal" in2="shape" result="effect1_innerShadow_254_1894"/>
<feColorMatrix in="SourceAlpha" type="matrix" values="0 0 0 0 0 0 0 0 0 0 0 0 0 0 0 0 0 0 127 0" result="hardAlpha"/>
<feOffset dx="-3.26634" dy="4.35512"/>
<feGaussianBlur stdDeviation="2.17756"/>
<feComposite in2="hardAlpha" operator="arithmetic" k2="-1" k3="1"/>
<feColorMatrix type="matrix" values="0 0 0 0 1 0 0 0 0 1 0 0 0 0 1 0 0 0 0.29 0"/>
<feBlend mode="normal" in2="effect1_innerShadow_254_1894" result="effect2_innerShadow_254_1894"/>
<feColorMatrix in="SourceAlpha" type="matrix" values="0 0 0 0 0 0 0 0 0 0 0 0 0 0 0 0 0 0 127 0" result="hardAlpha"/>
<feOffset dy="-10.8878"/>
<feGaussianBlur stdDeviation="5.4439"/>
<feComposite in2="hardAlpha" operator="arithmetic" k2="-1" k3="1"/>
<feColorMatrix type="matrix" values="0 0 0 0 0.828932 0 0 0 0 0.0596354 0 0 0 0 0.954167 0 0 0 0.6 0"/>
<feBlend mode="normal" in2="effect2_innerShadow_254_1894" result="effect3_innerShadow_254_1894"/>
</filter>
<filter id="filter4_ii_254_1894" x="77.374" y="126.505" width="108.281" height="56.4954" filterUnits="userSpaceOnUse" color-interpolation-filters="sRGB">
<feFlood flood-opacity="0" result="BackgroundImageFix"/>
<feBlend mode="normal" in="SourceGraphic" in2="BackgroundImageFix" result="shape"/>
<feColorMatrix in="SourceAlpha" type="matrix" values="0 0 0 0 0 0 0 0 0 0 0 0 0 0 0 0 0 0 127 0" result="hardAlpha"/>
<feMorphology radius="26.45" operator="dilate" in="SourceAlpha" result="effect1_innerShadow_254_1894"/>
<feOffset dy="-20"/>
<feGaussianBlur stdDeviation="7"/>
<feComposite in2="hardAlpha" operator="arithmetic" k2="-1" k3="1"/>
<feColorMatrix type="matrix" values="0 0 0 0 0.3625 0 0 0 0 0.3625 0 0 0 0 0.3625 0 0 0 0.97 0"/>
<feBlend mode="normal" in2="shape" result="effect1_innerShadow_254_1894"/>
<feColorMatrix in="SourceAlpha" type="matrix" values="0 0 0 0 0 0 0 0 0 0 0 0 0 0 0 0 0 0 127 0" result="hardAlpha"/>
<feMorphology radius="26.45" operator="dilate" in="SourceAlpha" result="effect2_innerShadow_254_1894"/>
<feOffset dx="9.2" dy="-9"/>
<feGaussianBlur stdDeviation="10.35"/>
<feComposite in2="hardAlpha" operator="arithmetic" k2="-1" k3="1"/>
<feColorMatrix type="matrix" values="0 0 0 0 0.462111 0 0 0 0 0.203767 0 0 0 0 0.504167 0 0 0 0.35 0"/>
<feBlend mode="normal" in2="effect1_innerShadow_254_1894" result="effect2_innerShadow_254_1894"/>
</filter>
<radialGradient id="paint0_radial_254_1894" cx="0" cy="0" r="1" gradientUnits="userSpaceOnUse" gradientTransform="translate(109 16) rotate(86.5167) scale(230.426)">
<stop offset="0.576389" stop-color="#FFBB0C"/>
<stop offset="1" stop-color="#FFC907"/>
</radialGradient>
<radialGradient id="paint1_radial_254_1894" cx="0" cy="0" r="1" gradientUnits="userSpaceOnUse" gradientTransform="translate(158.989 162.419) rotate(64.8545) scale(50.1444 41.4853)">
<stop stop-color="#FC4141"/>
<stop offset="1" stop-color="#FF0F0F"/>
</radialGradient>
<linearGradient id="paint2_linear_254_1894" x1="87.398" y1="115.298" x2="127.504" y2="179.893" gradientUnits="userSpaceOnUse">
<stop stop-color="#402C41"/>
<stop offset="1" stop-color="#0C0B0E"/>
</linearGradient>
<clipPath id="clip0_254_1894">
<rect width="246" height="246" fill="white"/>
</clipPath>
</defs>
</svg>
