<svg width="246" height="246" viewBox="0 0 246 246" fill="none" xmlns="http://www.w3.org/2000/svg">
<g clip-path="url(#clip0_254_1830)">
<g filter="url(#filter0_iii_254_1830)">
<path d="M0 115C0 51.4872 51.4873 0 115 0H127C192.722 0 246 53.2781 246 119V127C246 192.722 192.722 246 127 246H123C55.069 246 0 190.931 0 123V115Z" fill="url(#paint0_radial_254_1830)"/>
</g>
<mask id="mask0_254_1830" style="mask-type:alpha" maskUnits="userSpaceOnUse" x="51" y="137" width="144" height="74">
<path d="M72.2 137.5C66.5926 137.5 63.7889 137.5 60.6473 138.92C56.382 140.847 51.8392 147.11 51.3311 151.763C50.9568 155.19 51.515 156.899 52.6313 160.317C56.1881 171.208 62.2754 181.22 70.5277 189.472C84.3116 203.256 103.007 211 122.5 211C141.993 211 160.688 203.256 174.472 189.472C183.073 180.872 189.322 170.36 192.805 158.934C193.846 155.522 194.366 153.817 193.97 150.644C193.427 146.289 189.209 140.593 185.202 138.804C182.283 137.5 179.605 137.5 174.25 137.5L122.5 137.5L72.2 137.5Z" fill="url(#paint1_linear_254_1830)"/>
</mask>
<g mask="url(#mask0_254_1830)">
<g filter="url(#filter1_i_254_1830)">
<path d="M72.2 137.5C66.5926 137.5 63.7889 137.5 60.6473 138.92C56.382 140.847 51.8392 147.11 51.3311 151.763C50.9568 155.19 51.515 156.899 52.6313 160.317C56.1881 171.208 62.2754 181.22 70.5277 189.472C84.3116 203.256 103.007 211 122.5 211C141.993 211 160.688 203.256 174.472 189.472C183.073 180.872 189.322 170.36 192.805 158.934C193.846 155.522 194.366 153.817 193.97 150.644C193.427 146.289 189.209 140.593 185.202 138.804C182.283 137.5 179.605 137.5 174.25 137.5L122.5 137.5L72.2 137.5Z" fill="url(#paint2_linear_254_1830)"/>
</g>
<g filter="url(#filter2_i_254_1830)">
<path d="M51.4587 141.68C48.6775 135.302 53.1592 128 60.1171 128H183.771C185.28 128 181.509 128 182.528 128.177C187.262 128.999 193.391 139.489 191.783 144.016C191.437 144.991 196.575 135.873 194.52 139.52C191.911 144.149 191.518 152 186.204 152H55.862C52.0072 152 52.9996 145.213 51.4587 141.68Z" fill="white"/>
</g>
<g filter="url(#filter3_iii_254_1830)">
<ellipse cx="122" cy="197" rx="29" ry="23" fill="url(#paint3_radial_254_1830)"/>
</g>
</g>
<g filter="url(#filter4_di_254_1830)">
<path fill-rule="evenodd" clip-rule="evenodd" d="M200.687 122.524C212.192 114.404 219.706 101.006 219.706 85.8531C219.706 61.0814 199.625 41 174.853 41C150.081 41 130 61.0814 130 85.8531C130 100.687 137.201 113.839 148.299 122.005C155.077 115.647 164.195 111.754 174.221 111.754C184.518 111.754 193.856 115.86 200.687 122.524Z" fill="#FAFAFA"/>
</g>
<g filter="url(#filter5_i_254_1830)">
<rect x="150.995" y="61.9954" width="47.6923" height="47.6923" rx="23.8462" fill="#2C2F36"/>
</g>
<g filter="url(#filter6_di_254_1830)">
<path fill-rule="evenodd" clip-rule="evenodd" d="M98.3454 122.524C109.851 114.404 117.364 101.006 117.364 85.8531C117.364 61.0814 97.2831 41 72.5113 41C47.7396 41 27.6582 61.0814 27.6582 85.8531C27.6582 100.687 34.8594 113.839 45.9567 122.005C52.7356 115.647 61.853 111.754 71.8796 111.754C82.1765 111.754 91.5143 115.86 98.3454 122.524Z" fill="#FAFAFA"/>
</g>
<g filter="url(#filter7_i_254_1830)">
<rect x="48.6533" y="61.9954" width="47.6923" height="47.6923" rx="23.8462" fill="#2C2F36"/>
</g>
</g>
<defs>
<filter id="filter0_iii_254_1830" x="-11" y="-24" width="278" height="326" filterUnits="userSpaceOnUse" color-interpolation-filters="sRGB">
<feFlood flood-opacity="0" result="BackgroundImageFix"/>
<feBlend mode="normal" in="SourceGraphic" in2="BackgroundImageFix" result="shape"/>
<feColorMatrix in="SourceAlpha" type="matrix" values="0 0 0 0 0 0 0 0 0 0 0 0 0 0 0 0 0 0 127 0" result="hardAlpha"/>
<feMorphology radius="8" operator="erode" in="SourceAlpha" result="effect1_innerShadow_254_1830"/>
<feOffset dx="21" dy="73"/>
<feGaussianBlur stdDeviation="24"/>
<feComposite in2="hardAlpha" operator="arithmetic" k2="-1" k3="1"/>
<feColorMatrix type="matrix" values="0 0 0 0 0.682806 0 0 0 0 0.0652778 0 0 0 0 0.783333 0 0 0 0.14 0"/>
<feBlend mode="normal" in2="shape" result="effect1_innerShadow_254_1830"/>
<feColorMatrix in="SourceAlpha" type="matrix" values="0 0 0 0 0 0 0 0 0 0 0 0 0 0 0 0 0 0 127 0" result="hardAlpha"/>
<feOffset dy="-24"/>
<feGaussianBlur stdDeviation="15.5"/>
<feComposite in2="hardAlpha" operator="arithmetic" k2="-1" k3="1"/>
<feColorMatrix type="matrix" values="0 0 0 0 0.943639 0 0 0 0 0.223611 0 0 0 0 0.958333 0 0 0 0.44 0"/>
<feBlend mode="normal" in2="effect1_innerShadow_254_1830" result="effect2_innerShadow_254_1830"/>
<feColorMatrix in="SourceAlpha" type="matrix" values="0 0 0 0 0 0 0 0 0 0 0 0 0 0 0 0 0 0 127 0" result="hardAlpha"/>
<feOffset dx="-11" dy="30"/>
<feGaussianBlur stdDeviation="15.5"/>
<feComposite in2="hardAlpha" operator="arithmetic" k2="-1" k3="1"/>
<feColorMatrix type="matrix" values="0 0 0 0 1 0 0 0 0 0.766722 0 0 0 0 0.693056 0 0 0 0.68 0"/>
<feBlend mode="normal" in2="effect2_innerShadow_254_1830" result="effect3_innerShadow_254_1830"/>
</filter>
<filter id="filter1_i_254_1830" x="51.2148" y="137.5" width="142.888" height="77.5" filterUnits="userSpaceOnUse" color-interpolation-filters="sRGB">
<feFlood flood-opacity="0" result="BackgroundImageFix"/>
<feBlend mode="normal" in="SourceGraphic" in2="BackgroundImageFix" result="shape"/>
<feColorMatrix in="SourceAlpha" type="matrix" values="0 0 0 0 0 0 0 0 0 0 0 0 0 0 0 0 0 0 127 0" result="hardAlpha"/>
<feOffset dy="4"/>
<feGaussianBlur stdDeviation="8"/>
<feComposite in2="hardAlpha" operator="arithmetic" k2="-1" k3="1"/>
<feColorMatrix type="matrix" values="0 0 0 0 0 0 0 0 0 0 0 0 0 0 0 0 0 0 0.25 0"/>
<feBlend mode="normal" in2="shape" result="effect1_innerShadow_254_1830"/>
</filter>
<filter id="filter2_i_254_1830" x="50.623" y="125" width="144.384" height="27" filterUnits="userSpaceOnUse" color-interpolation-filters="sRGB">
<feFlood flood-opacity="0" result="BackgroundImageFix"/>
<feBlend mode="normal" in="SourceGraphic" in2="BackgroundImageFix" result="shape"/>
<feColorMatrix in="SourceAlpha" type="matrix" values="0 0 0 0 0 0 0 0 0 0 0 0 0 0 0 0 0 0 127 0" result="hardAlpha"/>
<feOffset dy="-3"/>
<feGaussianBlur stdDeviation="8"/>
<feComposite in2="hardAlpha" operator="arithmetic" k2="-1" k3="1"/>
<feColorMatrix type="matrix" values="0 0 0 0 0 0 0 0 0 0 0 0 0 0 0 0 0 0 0.47 0"/>
<feBlend mode="normal" in2="shape" result="effect1_innerShadow_254_1830"/>
</filter>
<filter id="filter3_iii_254_1830" x="90" y="164" width="61" height="60" filterUnits="userSpaceOnUse" color-interpolation-filters="sRGB">
<feFlood flood-opacity="0" result="BackgroundImageFix"/>
<feBlend mode="normal" in="SourceGraphic" in2="BackgroundImageFix" result="shape"/>
<feColorMatrix in="SourceAlpha" type="matrix" values="0 0 0 0 0 0 0 0 0 0 0 0 0 0 0 0 0 0 127 0" result="hardAlpha"/>
<feOffset dy="4"/>
<feGaussianBlur stdDeviation="5"/>
<feComposite in2="hardAlpha" operator="arithmetic" k2="-1" k3="1"/>
<feColorMatrix type="matrix" values="0 0 0 0 0 0 0 0 0 0 0 0 0 0 0 0 0 0 0.25 0"/>
<feBlend mode="normal" in2="shape" result="effect1_innerShadow_254_1830"/>
<feColorMatrix in="SourceAlpha" type="matrix" values="0 0 0 0 0 0 0 0 0 0 0 0 0 0 0 0 0 0 127 0" result="hardAlpha"/>
<feOffset dx="-3" dy="4"/>
<feGaussianBlur stdDeviation="2"/>
<feComposite in2="hardAlpha" operator="arithmetic" k2="-1" k3="1"/>
<feColorMatrix type="matrix" values="0 0 0 0 1 0 0 0 0 1 0 0 0 0 1 0 0 0 0.29 0"/>
<feBlend mode="normal" in2="effect1_innerShadow_254_1830" result="effect2_innerShadow_254_1830"/>
<feColorMatrix in="SourceAlpha" type="matrix" values="0 0 0 0 0 0 0 0 0 0 0 0 0 0 0 0 0 0 127 0" result="hardAlpha"/>
<feOffset dy="-10"/>
<feGaussianBlur stdDeviation="5"/>
<feComposite in2="hardAlpha" operator="arithmetic" k2="-1" k3="1"/>
<feColorMatrix type="matrix" values="0 0 0 0 0.828932 0 0 0 0 0.0596354 0 0 0 0 0.954167 0 0 0 0.6 0"/>
<feBlend mode="normal" in2="effect2_innerShadow_254_1830" result="effect3_innerShadow_254_1830"/>
</filter>
<filter id="filter4_di_254_1830" x="109.785" y="25.8384" width="130.137" height="121.955" filterUnits="userSpaceOnUse" color-interpolation-filters="sRGB">
<feFlood flood-opacity="0" result="BackgroundImageFix"/>
<feColorMatrix in="SourceAlpha" type="matrix" values="0 0 0 0 0 0 0 0 0 0 0 0 0 0 0 0 0 0 127 0" result="hardAlpha"/>
<feOffset dy="5.05387"/>
<feGaussianBlur stdDeviation="10.1077"/>
<feColorMatrix type="matrix" values="0 0 0 0 0 0 0 0 0 0 0 0 0 0 0 0 0 0 0.25 0"/>
<feBlend mode="normal" in2="BackgroundImageFix" result="effect1_dropShadow_254_1830"/>
<feBlend mode="normal" in="SourceGraphic" in2="effect1_dropShadow_254_1830" result="shape"/>
<feColorMatrix in="SourceAlpha" type="matrix" values="0 0 0 0 0 0 0 0 0 0 0 0 0 0 0 0 0 0 127 0" result="hardAlpha"/>
<feOffset dy="-4.48531"/>
<feGaussianBlur stdDeviation="11.2133"/>
<feComposite in2="hardAlpha" operator="arithmetic" k2="-1" k3="1"/>
<feColorMatrix type="matrix" values="0 0 0 0 0 0 0 0 0 0 0 0 0 0 0 0 0 0 0.25 0"/>
<feBlend mode="normal" in2="shape" result="effect2_innerShadow_254_1830"/>
</filter>
<filter id="filter5_i_254_1830" x="150.995" y="61.9954" width="47.6924" height="47.6924" filterUnits="userSpaceOnUse" color-interpolation-filters="sRGB">
<feFlood flood-opacity="0" result="BackgroundImageFix"/>
<feBlend mode="normal" in="SourceGraphic" in2="BackgroundImageFix" result="shape"/>
<feColorMatrix in="SourceAlpha" type="matrix" values="0 0 0 0 0 0 0 0 0 0 0 0 0 0 0 0 0 0 127 0" result="hardAlpha"/>
<feMorphology radius="39.4207" operator="dilate" in="SourceAlpha" result="effect1_innerShadow_254_1830"/>
<feOffset dx="13.7115" dy="-41.1346"/>
<feGaussianBlur stdDeviation="15.4255"/>
<feComposite in2="hardAlpha" operator="arithmetic" k2="-1" k3="1"/>
<feColorMatrix type="matrix" values="0 0 0 0 0.462111 0 0 0 0 0.203767 0 0 0 0 0.504167 0 0 0 0.35 0"/>
<feBlend mode="normal" in2="shape" result="effect1_innerShadow_254_1830"/>
</filter>
<filter id="filter6_di_254_1830" x="7.4427" y="25.8384" width="130.137" height="121.955" filterUnits="userSpaceOnUse" color-interpolation-filters="sRGB">
<feFlood flood-opacity="0" result="BackgroundImageFix"/>
<feColorMatrix in="SourceAlpha" type="matrix" values="0 0 0 0 0 0 0 0 0 0 0 0 0 0 0 0 0 0 127 0" result="hardAlpha"/>
<feOffset dy="5.05387"/>
<feGaussianBlur stdDeviation="10.1077"/>
<feColorMatrix type="matrix" values="0 0 0 0 0 0 0 0 0 0 0 0 0 0 0 0 0 0 0.25 0"/>
<feBlend mode="normal" in2="BackgroundImageFix" result="effect1_dropShadow_254_1830"/>
<feBlend mode="normal" in="SourceGraphic" in2="effect1_dropShadow_254_1830" result="shape"/>
<feColorMatrix in="SourceAlpha" type="matrix" values="0 0 0 0 0 0 0 0 0 0 0 0 0 0 0 0 0 0 127 0" result="hardAlpha"/>
<feOffset dy="-4.48531"/>
<feGaussianBlur stdDeviation="11.2133"/>
<feComposite in2="hardAlpha" operator="arithmetic" k2="-1" k3="1"/>
<feColorMatrix type="matrix" values="0 0 0 0 0 0 0 0 0 0 0 0 0 0 0 0 0 0 0.25 0"/>
<feBlend mode="normal" in2="shape" result="effect2_innerShadow_254_1830"/>
</filter>
<filter id="filter7_i_254_1830" x="48.6533" y="61.9954" width="47.6924" height="47.6924" filterUnits="userSpaceOnUse" color-interpolation-filters="sRGB">
<feFlood flood-opacity="0" result="BackgroundImageFix"/>
<feBlend mode="normal" in="SourceGraphic" in2="BackgroundImageFix" result="shape"/>
<feColorMatrix in="SourceAlpha" type="matrix" values="0 0 0 0 0 0 0 0 0 0 0 0 0 0 0 0 0 0 127 0" result="hardAlpha"/>
<feMorphology radius="39.4207" operator="dilate" in="SourceAlpha" result="effect1_innerShadow_254_1830"/>
<feOffset dx="13.7115" dy="-41.1346"/>
<feGaussianBlur stdDeviation="15.4255"/>
<feComposite in2="hardAlpha" operator="arithmetic" k2="-1" k3="1"/>
<feColorMatrix type="matrix" values="0 0 0 0 0.462111 0 0 0 0 0.203767 0 0 0 0 0.504167 0 0 0 0.35 0"/>
<feBlend mode="normal" in2="shape" result="effect1_innerShadow_254_1830"/>
</filter>
<radialGradient id="paint0_radial_254_1830" cx="0" cy="0" r="1" gradientUnits="userSpaceOnUse" gradientTransform="translate(109 16) rotate(86.5167) scale(230.426)">
<stop offset="0.576389" stop-color="#FFBB0C"/>
<stop offset="1" stop-color="#FFC907"/>
</radialGradient>
<linearGradient id="paint1_linear_254_1830" x1="122.5" y1="211" x2="107.5" y2="125" gradientUnits="userSpaceOnUse">
<stop stop-color="#FB39A2"/>
<stop offset="1" stop-color="#C520FF"/>
</linearGradient>
<linearGradient id="paint2_linear_254_1830" x1="122.5" y1="211" x2="77.5" y2="116" gradientUnits="userSpaceOnUse">
<stop stop-color="#3A2EC0"/>
<stop offset="1" stop-color="#FF20C1"/>
</linearGradient>
<radialGradient id="paint3_radial_254_1830" cx="0" cy="0" r="1" gradientUnits="userSpaceOnUse" gradientTransform="translate(121.293 180.171) rotate(88.9826) scale(39.8355 50.2216)">
<stop stop-color="#FC4141"/>
<stop offset="1" stop-color="#FF0F0F"/>
</radialGradient>
<clipPath id="clip0_254_1830">
<rect width="246" height="246" fill="white"/>
</clipPath>
</defs>
</svg>
