<svg width="246" height="246" viewBox="0 0 246 246" fill="none" xmlns="http://www.w3.org/2000/svg">
<g clip-path="url(#clip0_254_1935)">
<g filter="url(#filter0_iii_254_1935)">
<path d="M0 115C0 51.4872 51.4873 0 115 0H127C192.722 0 246 53.2781 246 119V127C246 192.722 192.722 246 127 246H123C55.069 246 0 190.931 0 123V115Z" fill="url(#paint0_radial_254_1935)"/>
</g>
<mask id="mask0_254_1935" style="mask-type:alpha" maskUnits="userSpaceOnUse" x="51" y="137" width="144" height="74">
<path d="M72.2 137.5C66.5926 137.5 63.7889 137.5 60.6473 138.92C56.382 140.847 51.8392 147.11 51.3311 151.763C50.9568 155.19 51.515 156.899 52.6313 160.317C56.1881 171.208 62.2754 181.22 70.5277 189.472C84.3116 203.256 103.007 211 122.5 211C141.993 211 160.688 203.256 174.472 189.472C183.073 180.872 189.322 170.36 192.805 158.934C193.846 155.522 194.366 153.817 193.97 150.644C193.427 146.289 189.209 140.593 185.202 138.804C182.283 137.5 179.605 137.5 174.25 137.5L122.5 137.5L72.2 137.5Z" fill="url(#paint1_linear_254_1935)"/>
</mask>
<g mask="url(#mask0_254_1935)">
<g filter="url(#filter1_i_254_1935)">
<path d="M72.2 137.5C66.5926 137.5 63.7889 137.5 60.6473 138.92C56.382 140.847 51.8392 147.11 51.3311 151.763C50.9568 155.19 51.515 156.899 52.6313 160.317C56.1881 171.208 62.2754 181.22 70.5277 189.472C84.3116 203.256 103.007 211 122.5 211C141.993 211 160.688 203.256 174.472 189.472C183.073 180.872 189.322 170.36 192.805 158.934C193.846 155.522 194.366 153.817 193.97 150.644C193.427 146.289 189.209 140.593 185.202 138.804C182.283 137.5 179.605 137.5 174.25 137.5L122.5 137.5L72.2 137.5Z" fill="url(#paint2_linear_254_1935)"/>
</g>
<g filter="url(#filter2_i_254_1935)">
<path d="M94.4495 141.68C93.1974 134.589 98.5544 128 105.755 128H141.222C141.943 128 140.14 128 140.323 128.006C146.385 128.19 152.902 136.362 151.733 142.313C151.698 142.492 152.828 137.539 152.376 139.52C151.018 145.471 148.201 152 142.098 152H101C96.55 152 95.2233 146.062 94.4495 141.68Z" fill="white"/>
</g>
<g filter="url(#filter3_iii_254_1935)">
<ellipse cx="122" cy="197" rx="29" ry="23" fill="url(#paint3_radial_254_1935)"/>
</g>
</g>
<g filter="url(#filter4_diii_254_1935)">
<path fill-rule="evenodd" clip-rule="evenodd" d="M69 136C93.295 136 113.285 117.566 115.745 93.9225C115.774 93.8927 115.804 93.8629 115.833 93.8334C117.734 91.9327 120.312 90.8649 123 90.8649C125.688 90.8649 128.266 91.9327 130.167 93.8334C130.196 93.8629 130.226 93.8927 130.255 93.9225C132.715 117.566 152.705 136 177 136C202.957 136 224 114.957 224 89C224 63.0426 202.957 42 177 42C153.268 42 133.645 59.5885 130.454 82.441C128.106 81.4981 125.579 81 123 81C120.421 81 117.894 81.4981 115.546 82.441C112.355 59.5885 92.7315 42 69 42C43.0426 42 22 63.0426 22 89C22 114.957 43.0426 136 69 136ZM35.062 89C35.062 107.743 50.2566 122.938 69 122.938C87.7434 122.938 102.938 107.743 102.938 89C102.938 70.2566 87.7434 55.062 69 55.062C50.2566 55.062 35.062 70.2566 35.062 89ZM177 122.938C158.257 122.938 143.062 107.743 143.062 89C143.062 70.2566 158.257 55.062 177 55.062C195.743 55.062 210.938 70.2566 210.938 89C210.938 107.743 195.743 122.938 177 122.938Z" fill="url(#paint4_linear_254_1935)"/>
</g>
<g filter="url(#filter5_d_254_1935)">
<g filter="url(#filter6_i_254_1935)">
<circle cx="69.5" cy="89.5" r="35.5" fill="#FAFAFA"/>
</g>
<g filter="url(#filter7_i_254_1935)">
<rect x="50.6172" y="70.6169" width="37.7471" height="37.7471" rx="18.8736" fill="#2C2F36"/>
</g>
</g>
<g filter="url(#filter8_d_254_1935)">
<g filter="url(#filter9_i_254_1935)">
<circle cx="177.5" cy="89.5" r="35.5" fill="#FAFAFA"/>
</g>
<g filter="url(#filter10_i_254_1935)">
<rect x="158.617" y="70.6169" width="37.7471" height="37.7471" rx="18.8736" fill="#2C2F36"/>
</g>
</g>
</g>
<defs>
<filter id="filter0_iii_254_1935" x="-11" y="-24" width="278" height="326" filterUnits="userSpaceOnUse" color-interpolation-filters="sRGB">
<feFlood flood-opacity="0" result="BackgroundImageFix"/>
<feBlend mode="normal" in="SourceGraphic" in2="BackgroundImageFix" result="shape"/>
<feColorMatrix in="SourceAlpha" type="matrix" values="0 0 0 0 0 0 0 0 0 0 0 0 0 0 0 0 0 0 127 0" result="hardAlpha"/>
<feMorphology radius="8" operator="erode" in="SourceAlpha" result="effect1_innerShadow_254_1935"/>
<feOffset dx="21" dy="73"/>
<feGaussianBlur stdDeviation="24"/>
<feComposite in2="hardAlpha" operator="arithmetic" k2="-1" k3="1"/>
<feColorMatrix type="matrix" values="0 0 0 0 0.682806 0 0 0 0 0.0652778 0 0 0 0 0.783333 0 0 0 0.14 0"/>
<feBlend mode="normal" in2="shape" result="effect1_innerShadow_254_1935"/>
<feColorMatrix in="SourceAlpha" type="matrix" values="0 0 0 0 0 0 0 0 0 0 0 0 0 0 0 0 0 0 127 0" result="hardAlpha"/>
<feOffset dy="-24"/>
<feGaussianBlur stdDeviation="15.5"/>
<feComposite in2="hardAlpha" operator="arithmetic" k2="-1" k3="1"/>
<feColorMatrix type="matrix" values="0 0 0 0 0.943639 0 0 0 0 0.223611 0 0 0 0 0.958333 0 0 0 0.44 0"/>
<feBlend mode="normal" in2="effect1_innerShadow_254_1935" result="effect2_innerShadow_254_1935"/>
<feColorMatrix in="SourceAlpha" type="matrix" values="0 0 0 0 0 0 0 0 0 0 0 0 0 0 0 0 0 0 127 0" result="hardAlpha"/>
<feOffset dx="-11" dy="30"/>
<feGaussianBlur stdDeviation="15.5"/>
<feComposite in2="hardAlpha" operator="arithmetic" k2="-1" k3="1"/>
<feColorMatrix type="matrix" values="0 0 0 0 1 0 0 0 0 0.766722 0 0 0 0 0.693056 0 0 0 0.68 0"/>
<feBlend mode="normal" in2="effect2_innerShadow_254_1935" result="effect3_innerShadow_254_1935"/>
</filter>
<filter id="filter1_i_254_1935" x="51.2148" y="137.5" width="142.888" height="77.5" filterUnits="userSpaceOnUse" color-interpolation-filters="sRGB">
<feFlood flood-opacity="0" result="BackgroundImageFix"/>
<feBlend mode="normal" in="SourceGraphic" in2="BackgroundImageFix" result="shape"/>
<feColorMatrix in="SourceAlpha" type="matrix" values="0 0 0 0 0 0 0 0 0 0 0 0 0 0 0 0 0 0 127 0" result="hardAlpha"/>
<feOffset dy="4"/>
<feGaussianBlur stdDeviation="8"/>
<feComposite in2="hardAlpha" operator="arithmetic" k2="-1" k3="1"/>
<feColorMatrix type="matrix" values="0 0 0 0 0 0 0 0 0 0 0 0 0 0 0 0 0 0 0.25 0"/>
<feBlend mode="normal" in2="shape" result="effect1_innerShadow_254_1935"/>
</filter>
<filter id="filter2_i_254_1935" x="94.2676" y="125" width="58.2158" height="27" filterUnits="userSpaceOnUse" color-interpolation-filters="sRGB">
<feFlood flood-opacity="0" result="BackgroundImageFix"/>
<feBlend mode="normal" in="SourceGraphic" in2="BackgroundImageFix" result="shape"/>
<feColorMatrix in="SourceAlpha" type="matrix" values="0 0 0 0 0 0 0 0 0 0 0 0 0 0 0 0 0 0 127 0" result="hardAlpha"/>
<feOffset dy="-3"/>
<feGaussianBlur stdDeviation="8"/>
<feComposite in2="hardAlpha" operator="arithmetic" k2="-1" k3="1"/>
<feColorMatrix type="matrix" values="0 0 0 0 0 0 0 0 0 0 0 0 0 0 0 0 0 0 0.47 0"/>
<feBlend mode="normal" in2="shape" result="effect1_innerShadow_254_1935"/>
</filter>
<filter id="filter3_iii_254_1935" x="90" y="164" width="61" height="60" filterUnits="userSpaceOnUse" color-interpolation-filters="sRGB">
<feFlood flood-opacity="0" result="BackgroundImageFix"/>
<feBlend mode="normal" in="SourceGraphic" in2="BackgroundImageFix" result="shape"/>
<feColorMatrix in="SourceAlpha" type="matrix" values="0 0 0 0 0 0 0 0 0 0 0 0 0 0 0 0 0 0 127 0" result="hardAlpha"/>
<feOffset dy="4"/>
<feGaussianBlur stdDeviation="5"/>
<feComposite in2="hardAlpha" operator="arithmetic" k2="-1" k3="1"/>
<feColorMatrix type="matrix" values="0 0 0 0 0 0 0 0 0 0 0 0 0 0 0 0 0 0 0.25 0"/>
<feBlend mode="normal" in2="shape" result="effect1_innerShadow_254_1935"/>
<feColorMatrix in="SourceAlpha" type="matrix" values="0 0 0 0 0 0 0 0 0 0 0 0 0 0 0 0 0 0 127 0" result="hardAlpha"/>
<feOffset dx="-3" dy="4"/>
<feGaussianBlur stdDeviation="2"/>
<feComposite in2="hardAlpha" operator="arithmetic" k2="-1" k3="1"/>
<feColorMatrix type="matrix" values="0 0 0 0 1 0 0 0 0 1 0 0 0 0 1 0 0 0 0.29 0"/>
<feBlend mode="normal" in2="effect1_innerShadow_254_1935" result="effect2_innerShadow_254_1935"/>
<feColorMatrix in="SourceAlpha" type="matrix" values="0 0 0 0 0 0 0 0 0 0 0 0 0 0 0 0 0 0 127 0" result="hardAlpha"/>
<feOffset dy="-10"/>
<feGaussianBlur stdDeviation="5"/>
<feComposite in2="hardAlpha" operator="arithmetic" k2="-1" k3="1"/>
<feColorMatrix type="matrix" values="0 0 0 0 0.828932 0 0 0 0 0.0596354 0 0 0 0 0.954167 0 0 0 0.6 0"/>
<feBlend mode="normal" in2="effect2_innerShadow_254_1935" result="effect3_innerShadow_254_1935"/>
</filter>
<filter id="filter4_diii_254_1935" x="7" y="31" width="232" height="124" filterUnits="userSpaceOnUse" color-interpolation-filters="sRGB">
<feFlood flood-opacity="0" result="BackgroundImageFix"/>
<feColorMatrix in="SourceAlpha" type="matrix" values="0 0 0 0 0 0 0 0 0 0 0 0 0 0 0 0 0 0 127 0" result="hardAlpha"/>
<feOffset dy="4"/>
<feGaussianBlur stdDeviation="7.5"/>
<feColorMatrix type="matrix" values="0 0 0 0 0 0 0 0 0 0 0 0 0 0 0 0 0 0 0.25 0"/>
<feBlend mode="normal" in2="BackgroundImageFix" result="effect1_dropShadow_254_1935"/>
<feBlend mode="normal" in="SourceGraphic" in2="effect1_dropShadow_254_1935" result="shape"/>
<feColorMatrix in="SourceAlpha" type="matrix" values="0 0 0 0 0 0 0 0 0 0 0 0 0 0 0 0 0 0 127 0" result="hardAlpha"/>
<feOffset dx="11.1363" dy="-10"/>
<feGaussianBlur stdDeviation="6.06249"/>
<feComposite in2="hardAlpha" operator="arithmetic" k2="-1" k3="1"/>
<feColorMatrix type="matrix" values="0 0 0 0 0 0 0 0 0 0 0 0 0 0 0 0 0 0 0.25 0"/>
<feBlend mode="normal" in2="shape" result="effect2_innerShadow_254_1935"/>
<feColorMatrix in="SourceAlpha" type="matrix" values="0 0 0 0 0 0 0 0 0 0 0 0 0 0 0 0 0 0 127 0" result="hardAlpha"/>
<feOffset dx="-5.56814" dy="-3.34089"/>
<feGaussianBlur stdDeviation="7.23859"/>
<feComposite in2="hardAlpha" operator="arithmetic" k2="-1" k3="1"/>
<feColorMatrix type="matrix" values="0 0 0 0 1 0 0 0 0 1 0 0 0 0 1 0 0 0 0.29 0"/>
<feBlend mode="normal" in2="effect2_innerShadow_254_1935" result="effect3_innerShadow_254_1935"/>
<feColorMatrix in="SourceAlpha" type="matrix" values="0 0 0 0 0 0 0 0 0 0 0 0 0 0 0 0 0 0 127 0" result="hardAlpha"/>
<feOffset dy="-6"/>
<feGaussianBlur stdDeviation="6.06249"/>
<feComposite in2="hardAlpha" operator="arithmetic" k2="-1" k3="1"/>
<feColorMatrix type="matrix" values="0 0 0 0 0.2875 0 0 0 0 0.2875 0 0 0 0 0.2875 0 0 0 0.56 0"/>
<feBlend mode="normal" in2="effect3_innerShadow_254_1935" result="effect4_innerShadow_254_1935"/>
</filter>
<filter id="filter5_d_254_1935" x="19.6489" y="42.6702" width="99.7021" height="99.7021" filterUnits="userSpaceOnUse" color-interpolation-filters="sRGB">
<feFlood flood-opacity="0" result="BackgroundImageFix"/>
<feColorMatrix in="SourceAlpha" type="matrix" values="0 0 0 0 0 0 0 0 0 0 0 0 0 0 0 0 0 0 127 0" result="hardAlpha"/>
<feOffset dy="3.02128"/>
<feGaussianBlur stdDeviation="7.17553"/>
<feColorMatrix type="matrix" values="0 0 0 0 0 0 0 0 0 0 0 0 0 0 0 0 0 0 0.25 0"/>
<feBlend mode="normal" in2="BackgroundImageFix" result="effect1_dropShadow_254_1935"/>
<feBlend mode="normal" in="SourceGraphic" in2="effect1_dropShadow_254_1935" result="shape"/>
</filter>
<filter id="filter6_i_254_1935" x="34" y="50.45" width="71" height="74.55" filterUnits="userSpaceOnUse" color-interpolation-filters="sRGB">
<feFlood flood-opacity="0" result="BackgroundImageFix"/>
<feBlend mode="normal" in="SourceGraphic" in2="BackgroundImageFix" result="shape"/>
<feColorMatrix in="SourceAlpha" type="matrix" values="0 0 0 0 0 0 0 0 0 0 0 0 0 0 0 0 0 0 127 0" result="hardAlpha"/>
<feOffset dy="-3.55"/>
<feGaussianBlur stdDeviation="8.875"/>
<feComposite in2="hardAlpha" operator="arithmetic" k2="-1" k3="1"/>
<feColorMatrix type="matrix" values="0 0 0 0 0 0 0 0 0 0 0 0 0 0 0 0 0 0 0.25 0"/>
<feBlend mode="normal" in2="shape" result="effect1_innerShadow_254_1935"/>
</filter>
<filter id="filter7_i_254_1935" x="50.6172" y="70.6169" width="37.7471" height="37.7471" filterUnits="userSpaceOnUse" color-interpolation-filters="sRGB">
<feFlood flood-opacity="0" result="BackgroundImageFix"/>
<feBlend mode="normal" in="SourceGraphic" in2="BackgroundImageFix" result="shape"/>
<feColorMatrix in="SourceAlpha" type="matrix" values="0 0 0 0 0 0 0 0 0 0 0 0 0 0 0 0 0 0 127 0" result="hardAlpha"/>
<feMorphology radius="31.2004" operator="dilate" in="SourceAlpha" result="effect1_innerShadow_254_1935"/>
<feOffset dx="10.8523" dy="-32.5569"/>
<feGaussianBlur stdDeviation="12.2088"/>
<feComposite in2="hardAlpha" operator="arithmetic" k2="-1" k3="1"/>
<feColorMatrix type="matrix" values="0 0 0 0 0.462111 0 0 0 0 0.203767 0 0 0 0 0.504167 0 0 0 0.35 0"/>
<feBlend mode="normal" in2="shape" result="effect1_innerShadow_254_1935"/>
</filter>
<filter id="filter8_d_254_1935" x="127.649" y="42.6702" width="99.7021" height="99.7021" filterUnits="userSpaceOnUse" color-interpolation-filters="sRGB">
<feFlood flood-opacity="0" result="BackgroundImageFix"/>
<feColorMatrix in="SourceAlpha" type="matrix" values="0 0 0 0 0 0 0 0 0 0 0 0 0 0 0 0 0 0 127 0" result="hardAlpha"/>
<feOffset dy="3.02128"/>
<feGaussianBlur stdDeviation="7.17553"/>
<feColorMatrix type="matrix" values="0 0 0 0 0 0 0 0 0 0 0 0 0 0 0 0 0 0 0.25 0"/>
<feBlend mode="normal" in2="BackgroundImageFix" result="effect1_dropShadow_254_1935"/>
<feBlend mode="normal" in="SourceGraphic" in2="effect1_dropShadow_254_1935" result="shape"/>
</filter>
<filter id="filter9_i_254_1935" x="142" y="50.45" width="71" height="74.55" filterUnits="userSpaceOnUse" color-interpolation-filters="sRGB">
<feFlood flood-opacity="0" result="BackgroundImageFix"/>
<feBlend mode="normal" in="SourceGraphic" in2="BackgroundImageFix" result="shape"/>
<feColorMatrix in="SourceAlpha" type="matrix" values="0 0 0 0 0 0 0 0 0 0 0 0 0 0 0 0 0 0 127 0" result="hardAlpha"/>
<feOffset dy="-3.55"/>
<feGaussianBlur stdDeviation="8.875"/>
<feComposite in2="hardAlpha" operator="arithmetic" k2="-1" k3="1"/>
<feColorMatrix type="matrix" values="0 0 0 0 0 0 0 0 0 0 0 0 0 0 0 0 0 0 0.25 0"/>
<feBlend mode="normal" in2="shape" result="effect1_innerShadow_254_1935"/>
</filter>
<filter id="filter10_i_254_1935" x="158.617" y="70.6169" width="37.7471" height="37.7471" filterUnits="userSpaceOnUse" color-interpolation-filters="sRGB">
<feFlood flood-opacity="0" result="BackgroundImageFix"/>
<feBlend mode="normal" in="SourceGraphic" in2="BackgroundImageFix" result="shape"/>
<feColorMatrix in="SourceAlpha" type="matrix" values="0 0 0 0 0 0 0 0 0 0 0 0 0 0 0 0 0 0 127 0" result="hardAlpha"/>
<feMorphology radius="31.2004" operator="dilate" in="SourceAlpha" result="effect1_innerShadow_254_1935"/>
<feOffset dx="10.8523" dy="-32.5569"/>
<feGaussianBlur stdDeviation="12.2088"/>
<feComposite in2="hardAlpha" operator="arithmetic" k2="-1" k3="1"/>
<feColorMatrix type="matrix" values="0 0 0 0 0.462111 0 0 0 0 0.203767 0 0 0 0 0.504167 0 0 0 0.35 0"/>
<feBlend mode="normal" in2="shape" result="effect1_innerShadow_254_1935"/>
</filter>
<radialGradient id="paint0_radial_254_1935" cx="0" cy="0" r="1" gradientUnits="userSpaceOnUse" gradientTransform="translate(109 16) rotate(86.5167) scale(230.426)">
<stop offset="0.576389" stop-color="#FFBB0C"/>
<stop offset="1" stop-color="#FFC907"/>
</radialGradient>
<linearGradient id="paint1_linear_254_1935" x1="122.5" y1="211" x2="107.5" y2="125" gradientUnits="userSpaceOnUse">
<stop stop-color="#FB39A2"/>
<stop offset="1" stop-color="#C520FF"/>
</linearGradient>
<linearGradient id="paint2_linear_254_1935" x1="122.5" y1="211" x2="77.5" y2="116" gradientUnits="userSpaceOnUse">
<stop stop-color="#3A2EC0"/>
<stop offset="1" stop-color="#FF20C1"/>
</linearGradient>
<radialGradient id="paint3_radial_254_1935" cx="0" cy="0" r="1" gradientUnits="userSpaceOnUse" gradientTransform="translate(121.293 180.171) rotate(88.9826) scale(39.8355 50.2216)">
<stop stop-color="#FC4141"/>
<stop offset="1" stop-color="#FF0F0F"/>
</radialGradient>
<linearGradient id="paint4_linear_254_1935" x1="177" y1="42" x2="177" y2="136" gradientUnits="userSpaceOnUse">
<stop stop-color="#C4C4C4"/>
<stop offset="1" stop-color="#8E8E8E"/>
</linearGradient>
<clipPath id="clip0_254_1935">
<rect width="246" height="246" fill="white"/>
</clipPath>
</defs>
</svg>
