<svg width="246" height="246" viewBox="0 0 246 246" fill="none" xmlns="http://www.w3.org/2000/svg">
<g clip-path="url(#clip0_254_1912)">
<g filter="url(#filter0_iii_254_1912)">
<path d="M0 115C0 51.4872 51.4873 0 115 0H127C192.722 0 246 53.2781 246 119V127C246 192.722 192.722 246 127 246H123C55.069 246 0 190.931 0 123V115Z" fill="url(#paint0_radial_254_1912)"/>
</g>
<g filter="url(#filter1_f_254_1912)">
<circle cx="59.5" cy="132.5" r="35.5" fill="#FF4242"/>
</g>
<g filter="url(#filter2_f_254_1912)">
<circle cx="188.5" cy="132.5" r="35.5" fill="#FF4242"/>
</g>
<g filter="url(#filter3_i_254_1912)">
<path d="M101.54 63C105.66 63 109.081 66.3782 108.197 70.4022C106.794 76.7888 103.591 82.6992 98.8952 87.3952C92.4252 93.8652 83.65 97.5 74.5 97.5C65.35 97.5 56.5748 93.8652 50.1048 87.3952C45.6509 82.9413 42.5406 77.395 41.0346 71.386C39.8974 66.8481 43.7924 63 48.4706 63C52.8564 63 56.2631 66.7188 58.1273 70.6887C59.0089 72.5662 60.215 74.2955 61.7097 75.7903C65.1019 79.1824 69.7027 81.0882 74.5 81.0882C79.2973 81.0882 83.8981 79.1824 87.2903 75.7903C88.5423 74.5382 89.5918 73.1215 90.4178 71.5911C92.7658 67.2403 96.5961 63 101.54 63Z" fill="#C4C4C4"/>
<path d="M101.54 63C105.66 63 109.081 66.3782 108.197 70.4022C106.794 76.7888 103.591 82.6992 98.8952 87.3952C92.4252 93.8652 83.65 97.5 74.5 97.5C65.35 97.5 56.5748 93.8652 50.1048 87.3952C45.6509 82.9413 42.5406 77.395 41.0346 71.386C39.8974 66.8481 43.7924 63 48.4706 63C52.8564 63 56.2631 66.7188 58.1273 70.6887C59.0089 72.5662 60.215 74.2955 61.7097 75.7903C65.1019 79.1824 69.7027 81.0882 74.5 81.0882C79.2973 81.0882 83.8981 79.1824 87.2903 75.7903C88.5423 74.5382 89.5918 73.1215 90.4178 71.5911C92.7658 67.2403 96.5961 63 101.54 63Z" fill="#221725"/>
</g>
<g filter="url(#filter4_i_254_1912)">
<path d="M198.54 63C202.66 63 206.081 66.3782 205.197 70.4022C203.794 76.7888 200.591 82.6992 195.895 87.3952C189.425 93.8652 180.65 97.5 171.5 97.5C162.35 97.5 153.575 93.8652 147.105 87.3952C142.651 82.9413 139.541 77.395 138.035 71.386C136.897 66.8481 140.792 63 145.471 63C149.856 63 153.263 66.7188 155.127 70.6887C156.009 72.5662 157.215 74.2955 158.71 75.7903C162.102 79.1824 166.703 81.0882 171.5 81.0882C176.297 81.0882 180.898 79.1824 184.29 75.7903C185.542 74.5382 186.592 73.1215 187.418 71.5911C189.766 67.2403 193.596 63 198.54 63Z" fill="#C4C4C4"/>
<path d="M198.54 63C202.66 63 206.081 66.3782 205.197 70.4022C203.794 76.7888 200.591 82.6992 195.895 87.3952C189.425 93.8652 180.65 97.5 171.5 97.5C162.35 97.5 153.575 93.8652 147.105 87.3952C142.651 82.9413 139.541 77.395 138.035 71.386C136.897 66.8481 140.792 63 145.471 63C149.856 63 153.263 66.7188 155.127 70.6887C156.009 72.5662 157.215 74.2955 158.71 75.7903C162.102 79.1824 166.703 81.0882 171.5 81.0882C176.297 81.0882 180.898 79.1824 184.29 75.7903C185.542 74.5382 186.592 73.1215 187.418 71.5911C189.766 67.2403 193.596 63 198.54 63Z" fill="#221725"/>
</g>
<g filter="url(#filter5_diiii_254_1912)">
<mask id="path-6-inside-1_254_1912" fill="white">
<path d="M179.462 112.5C184.178 112.5 188.065 116.344 187.359 121.006C186.599 126.026 185.168 130.947 183.09 135.652C179.849 142.993 175.098 149.662 169.108 155.28C163.119 160.898 156.009 165.354 148.183 168.395C140.358 171.435 131.97 173 123.5 173C115.03 173 106.642 171.435 98.8169 168.395C90.9914 165.354 83.881 160.898 77.8916 155.28C71.9022 149.662 67.1512 142.993 63.9098 135.652C61.832 130.947 60.4006 126.026 59.6406 121.006C58.9348 116.344 62.8225 112.5 67.5377 112.5C72.253 112.5 75.9891 116.361 76.9448 120.978C77.5493 123.899 78.4659 126.762 79.6854 129.523C82.0687 134.92 85.562 139.824 89.9658 143.955C94.3695 148.085 99.5976 151.362 105.351 153.597C111.105 155.833 117.272 156.983 123.5 156.983C129.728 156.983 135.895 155.833 141.649 153.597C147.402 151.362 152.63 148.085 157.034 143.955C161.438 139.824 164.931 134.92 167.315 129.523C168.534 126.762 169.451 123.899 170.055 120.978C171.011 116.361 174.747 112.5 179.462 112.5Z"/>
</mask>
<path d="M179.462 112.5C184.178 112.5 188.065 116.344 187.359 121.006C186.599 126.026 185.168 130.947 183.09 135.652C179.849 142.993 175.098 149.662 169.108 155.28C163.119 160.898 156.009 165.354 148.183 168.395C140.358 171.435 131.97 173 123.5 173C115.03 173 106.642 171.435 98.8169 168.395C90.9914 165.354 83.881 160.898 77.8916 155.28C71.9022 149.662 67.1512 142.993 63.9098 135.652C61.832 130.947 60.4006 126.026 59.6406 121.006C58.9348 116.344 62.8225 112.5 67.5377 112.5C72.253 112.5 75.9891 116.361 76.9448 120.978C77.5493 123.899 78.4659 126.762 79.6854 129.523C82.0687 134.92 85.562 139.824 89.9658 143.955C94.3695 148.085 99.5976 151.362 105.351 153.597C111.105 155.833 117.272 156.983 123.5 156.983C129.728 156.983 135.895 155.833 141.649 153.597C147.402 151.362 152.63 148.085 157.034 143.955C161.438 139.824 164.931 134.92 167.315 129.523C168.534 126.762 169.451 123.899 170.055 120.978C171.011 116.361 174.747 112.5 179.462 112.5Z" stroke="url(#paint1_linear_254_1912)" stroke-width="22" stroke-linejoin="round" mask="url(#path-6-inside-1_254_1912)"/>
</g>
</g>
<defs>
<filter id="filter0_iii_254_1912" x="-11" y="-24" width="278" height="326" filterUnits="userSpaceOnUse" color-interpolation-filters="sRGB">
<feFlood flood-opacity="0" result="BackgroundImageFix"/>
<feBlend mode="normal" in="SourceGraphic" in2="BackgroundImageFix" result="shape"/>
<feColorMatrix in="SourceAlpha" type="matrix" values="0 0 0 0 0 0 0 0 0 0 0 0 0 0 0 0 0 0 127 0" result="hardAlpha"/>
<feMorphology radius="8" operator="erode" in="SourceAlpha" result="effect1_innerShadow_254_1912"/>
<feOffset dx="21" dy="73"/>
<feGaussianBlur stdDeviation="24"/>
<feComposite in2="hardAlpha" operator="arithmetic" k2="-1" k3="1"/>
<feColorMatrix type="matrix" values="0 0 0 0 0.682806 0 0 0 0 0.0652778 0 0 0 0 0.783333 0 0 0 0.14 0"/>
<feBlend mode="normal" in2="shape" result="effect1_innerShadow_254_1912"/>
<feColorMatrix in="SourceAlpha" type="matrix" values="0 0 0 0 0 0 0 0 0 0 0 0 0 0 0 0 0 0 127 0" result="hardAlpha"/>
<feOffset dy="-24"/>
<feGaussianBlur stdDeviation="15.5"/>
<feComposite in2="hardAlpha" operator="arithmetic" k2="-1" k3="1"/>
<feColorMatrix type="matrix" values="0 0 0 0 0.943639 0 0 0 0 0.223611 0 0 0 0 0.958333 0 0 0 0.44 0"/>
<feBlend mode="normal" in2="effect1_innerShadow_254_1912" result="effect2_innerShadow_254_1912"/>
<feColorMatrix in="SourceAlpha" type="matrix" values="0 0 0 0 0 0 0 0 0 0 0 0 0 0 0 0 0 0 127 0" result="hardAlpha"/>
<feOffset dx="-11" dy="30"/>
<feGaussianBlur stdDeviation="15.5"/>
<feComposite in2="hardAlpha" operator="arithmetic" k2="-1" k3="1"/>
<feColorMatrix type="matrix" values="0 0 0 0 1 0 0 0 0 0.766722 0 0 0 0 0.693056 0 0 0 0.68 0"/>
<feBlend mode="normal" in2="effect2_innerShadow_254_1912" result="effect3_innerShadow_254_1912"/>
</filter>
<filter id="filter1_f_254_1912" x="-15" y="58" width="149" height="149" filterUnits="userSpaceOnUse" color-interpolation-filters="sRGB">
<feFlood flood-opacity="0" result="BackgroundImageFix"/>
<feBlend mode="normal" in="SourceGraphic" in2="BackgroundImageFix" result="shape"/>
<feGaussianBlur stdDeviation="19.5" result="effect1_foregroundBlur_254_1912"/>
</filter>
<filter id="filter2_f_254_1912" x="114" y="58" width="149" height="149" filterUnits="userSpaceOnUse" color-interpolation-filters="sRGB">
<feFlood flood-opacity="0" result="BackgroundImageFix"/>
<feBlend mode="normal" in="SourceGraphic" in2="BackgroundImageFix" result="shape"/>
<feGaussianBlur stdDeviation="19.5" result="effect1_foregroundBlur_254_1912"/>
</filter>
<filter id="filter3_i_254_1912" x="40.8359" y="63" width="67.502" height="34.5" filterUnits="userSpaceOnUse" color-interpolation-filters="sRGB">
<feFlood flood-opacity="0" result="BackgroundImageFix"/>
<feBlend mode="normal" in="SourceGraphic" in2="BackgroundImageFix" result="shape"/>
<feColorMatrix in="SourceAlpha" type="matrix" values="0 0 0 0 0 0 0 0 0 0 0 0 0 0 0 0 0 0 127 0" result="hardAlpha"/>
<feMorphology radius="26.45" operator="dilate" in="SourceAlpha" result="effect1_innerShadow_254_1912"/>
<feOffset dx="9.2" dy="-7"/>
<feGaussianBlur stdDeviation="10.35"/>
<feComposite in2="hardAlpha" operator="arithmetic" k2="-1" k3="1"/>
<feColorMatrix type="matrix" values="0 0 0 0 0.462111 0 0 0 0 0.203767 0 0 0 0 0.504167 0 0 0 0.35 0"/>
<feBlend mode="normal" in2="shape" result="effect1_innerShadow_254_1912"/>
</filter>
<filter id="filter4_i_254_1912" x="137.836" y="63" width="67.502" height="34.5" filterUnits="userSpaceOnUse" color-interpolation-filters="sRGB">
<feFlood flood-opacity="0" result="BackgroundImageFix"/>
<feBlend mode="normal" in="SourceGraphic" in2="BackgroundImageFix" result="shape"/>
<feColorMatrix in="SourceAlpha" type="matrix" values="0 0 0 0 0 0 0 0 0 0 0 0 0 0 0 0 0 0 127 0" result="hardAlpha"/>
<feMorphology radius="26.45" operator="dilate" in="SourceAlpha" result="effect1_innerShadow_254_1912"/>
<feOffset dx="9.2" dy="-9"/>
<feGaussianBlur stdDeviation="10.35"/>
<feComposite in2="hardAlpha" operator="arithmetic" k2="-1" k3="1"/>
<feColorMatrix type="matrix" values="0 0 0 0 0.462111 0 0 0 0 0.203767 0 0 0 0 0.504167 0 0 0 0.35 0"/>
<feBlend mode="normal" in2="shape" result="effect1_innerShadow_254_1912"/>
</filter>
<filter id="filter5_diiii_254_1912" x="26.2233" y="95.8333" width="194.553" height="127.167" filterUnits="userSpaceOnUse" color-interpolation-filters="sRGB">
<feFlood flood-opacity="0" result="BackgroundImageFix"/>
<feColorMatrix in="SourceAlpha" type="matrix" values="0 0 0 0 0 0 0 0 0 0 0 0 0 0 0 0 0 0 127 0" result="hardAlpha"/>
<feOffset dy="16.6667"/>
<feGaussianBlur stdDeviation="16.6667"/>
<feColorMatrix type="matrix" values="0 0 0 0 0.0298758 0 0 0 0 0.0216858 0 0 0 0 0.0308333 0 0 0 0.24 0"/>
<feBlend mode="normal" in2="BackgroundImageFix" result="effect1_dropShadow_254_1912"/>
<feBlend mode="normal" in="SourceGraphic" in2="effect1_dropShadow_254_1912" result="shape"/>
<feColorMatrix in="SourceAlpha" type="matrix" values="0 0 0 0 0 0 0 0 0 0 0 0 0 0 0 0 0 0 127 0" result="hardAlpha"/>
<feOffset dy="5.18518"/>
<feGaussianBlur stdDeviation="2.59259"/>
<feComposite in2="hardAlpha" operator="arithmetic" k2="-1" k3="1"/>
<feColorMatrix type="matrix" values="0 0 0 0 0.17328 0 0 0 0 0.125777 0 0 0 0 0.178833 0 0 0 1 0"/>
<feBlend mode="normal" in2="shape" result="effect2_innerShadow_254_1912"/>
<feColorMatrix in="SourceAlpha" type="matrix" values="0 0 0 0 0 0 0 0 0 0 0 0 0 0 0 0 0 0 127 0" result="hardAlpha"/>
<feOffset dy="-2.59259"/>
<feGaussianBlur stdDeviation="1.2963"/>
<feComposite in2="hardAlpha" operator="arithmetic" k2="-1" k3="1"/>
<feColorMatrix type="matrix" values="0 0 0 0 0.119503 0 0 0 0 0.086743 0 0 0 0 0.123333 0 0 0 1 0"/>
<feBlend mode="normal" in2="effect2_innerShadow_254_1912" result="effect3_innerShadow_254_1912"/>
<feColorMatrix in="SourceAlpha" type="matrix" values="0 0 0 0 0 0 0 0 0 0 0 0 0 0 0 0 0 0 127 0" result="hardAlpha"/>
<feMorphology radius="26.45" operator="dilate" in="SourceAlpha" result="effect4_innerShadow_254_1912"/>
<feOffset dx="9.2" dy="-9"/>
<feGaussianBlur stdDeviation="10.35"/>
<feComposite in2="hardAlpha" operator="arithmetic" k2="-1" k3="1"/>
<feColorMatrix type="matrix" values="0 0 0 0 0.462111 0 0 0 0 0.203767 0 0 0 0 0.504167 0 0 0 0.35 0"/>
<feBlend mode="normal" in2="effect3_innerShadow_254_1912" result="effect4_innerShadow_254_1912"/>
<feColorMatrix in="SourceAlpha" type="matrix" values="0 0 0 0 0 0 0 0 0 0 0 0 0 0 0 0 0 0 127 0" result="hardAlpha"/>
<feMorphology radius="26.45" operator="dilate" in="SourceAlpha" result="effect5_innerShadow_254_1912"/>
<feOffset dx="9.2" dy="-9"/>
<feGaussianBlur stdDeviation="10.35"/>
<feComposite in2="hardAlpha" operator="arithmetic" k2="-1" k3="1"/>
<feColorMatrix type="matrix" values="0 0 0 0 0.462111 0 0 0 0 0.203767 0 0 0 0 0.504167 0 0 0 0.35 0"/>
<feBlend mode="normal" in2="effect4_innerShadow_254_1912" result="effect5_innerShadow_254_1912"/>
</filter>
<radialGradient id="paint0_radial_254_1912" cx="0" cy="0" r="1" gradientUnits="userSpaceOnUse" gradientTransform="translate(109 16) rotate(86.5167) scale(230.426)">
<stop offset="0.576389" stop-color="#FFBB0C"/>
<stop offset="1" stop-color="#FFC907"/>
</radialGradient>
<linearGradient id="paint1_linear_254_1912" x1="123.5" y1="52" x2="123.5" y2="173" gradientUnits="userSpaceOnUse">
<stop stop-color="#201721"/>
<stop offset="1" stop-color="#2B1F2C"/>
</linearGradient>
<clipPath id="clip0_254_1912">
<rect width="246" height="246" fill="white"/>
</clipPath>
</defs>
</svg>
