<svg width="246" height="246" viewBox="0 0 246 246" fill="none" xmlns="http://www.w3.org/2000/svg">
<g clip-path="url(#clip0_254_1868)">
<g filter="url(#filter0_iii_254_1868)">
<path d="M0 115C0 51.4872 51.4873 0 115 0H127C192.722 0 246 53.2781 246 119V127C246 192.722 192.722 246 127 246H123C55.069 246 0 190.931 0 123V115Z" fill="url(#paint0_radial_254_1868)"/>
</g>
<g filter="url(#filter1_i_254_1868)">
<path d="M101.54 116.5C105.66 116.5 109.081 113.122 108.197 109.098C106.794 102.711 103.591 96.8008 98.8952 92.1048C92.4252 85.6348 83.65 82 74.5 82C65.35 82 56.5748 85.6348 50.1048 92.1048C45.6509 96.5587 42.5406 102.105 41.0346 108.114C39.8974 112.652 43.7924 116.5 48.4706 116.5C52.8564 116.5 56.2631 112.781 58.1273 108.811C59.0089 106.934 60.215 105.204 61.7097 103.71C65.1019 100.318 69.7027 98.4118 74.5 98.4118C79.2973 98.4118 83.8981 100.318 87.2903 103.71C88.5423 104.962 89.5918 106.378 90.4178 107.909C92.7658 112.26 96.5961 116.5 101.54 116.5Z" fill="#C4C4C4"/>
<path d="M101.54 116.5C105.66 116.5 109.081 113.122 108.197 109.098C106.794 102.711 103.591 96.8008 98.8952 92.1048C92.4252 85.6348 83.65 82 74.5 82C65.35 82 56.5748 85.6348 50.1048 92.1048C45.6509 96.5587 42.5406 102.105 41.0346 108.114C39.8974 112.652 43.7924 116.5 48.4706 116.5C52.8564 116.5 56.2631 112.781 58.1273 108.811C59.0089 106.934 60.215 105.204 61.7097 103.71C65.1019 100.318 69.7027 98.4118 74.5 98.4118C79.2973 98.4118 83.8981 100.318 87.2903 103.71C88.5423 104.962 89.5918 106.378 90.4178 107.909C92.7658 112.26 96.5961 116.5 101.54 116.5Z" fill="#221725"/>
</g>
<g filter="url(#filter2_i_254_1868)">
<path d="M198.54 116.5C202.66 116.5 206.081 113.122 205.197 109.098C203.794 102.711 200.591 96.8008 195.895 92.1048C189.425 85.6348 180.65 82 171.5 82C162.35 82 153.575 85.6348 147.105 92.1048C142.651 96.5587 139.541 102.105 138.035 108.114C136.897 112.652 140.792 116.5 145.471 116.5C149.856 116.5 153.263 112.781 155.127 108.811C156.009 106.934 157.215 105.204 158.71 103.71C162.102 100.318 166.703 98.4118 171.5 98.4118C176.297 98.4118 180.898 100.318 184.29 103.71C185.542 104.962 186.592 106.378 187.418 107.909C189.766 112.26 193.596 116.5 198.54 116.5Z" fill="#C4C4C4"/>
<path d="M198.54 116.5C202.66 116.5 206.081 113.122 205.197 109.098C203.794 102.711 200.591 96.8008 195.895 92.1048C189.425 85.6348 180.65 82 171.5 82C162.35 82 153.575 85.6348 147.105 92.1048C142.651 96.5587 139.541 102.105 138.035 108.114C136.897 112.652 140.792 116.5 145.471 116.5C149.856 116.5 153.263 112.781 155.127 108.811C156.009 106.934 157.215 105.204 158.71 103.71C162.102 100.318 166.703 98.4118 171.5 98.4118C176.297 98.4118 180.898 100.318 184.29 103.71C185.542 104.962 186.592 106.378 187.418 107.909C189.766 112.26 193.596 116.5 198.54 116.5Z" fill="#221725"/>
</g>
<g filter="url(#filter3_diiii_254_1868)">
<mask id="path-4-inside-1_254_1868" fill="white">
<path d="M179.462 127.5C184.178 127.5 188.065 131.344 187.359 136.006C186.599 141.026 185.168 145.947 183.09 150.652C179.849 157.993 175.098 164.662 169.108 170.28C163.119 175.898 156.009 180.354 148.183 183.395C140.358 186.435 131.97 188 123.5 188C115.03 188 106.642 186.435 98.8169 183.395C90.9914 180.354 83.881 175.898 77.8916 170.28C71.9022 164.662 67.1512 157.993 63.9098 150.652C61.832 145.947 60.4006 141.026 59.6406 136.006C58.9348 131.344 62.8225 127.5 67.5377 127.5C72.253 127.5 75.9891 131.361 76.9448 135.978C77.5493 138.899 78.4659 141.762 79.6854 144.523C82.0687 149.92 85.562 154.824 89.9658 158.955C94.3695 163.085 99.5976 166.362 105.351 168.597C111.105 170.833 117.272 171.983 123.5 171.983C129.728 171.983 135.895 170.833 141.649 168.597C147.402 166.362 152.63 163.085 157.034 158.955C161.438 154.824 164.931 149.92 167.315 144.523C168.534 141.762 169.451 138.899 170.055 135.978C171.011 131.361 174.747 127.5 179.462 127.5Z"/>
</mask>
<path d="M179.462 127.5C184.178 127.5 188.065 131.344 187.359 136.006C186.599 141.026 185.168 145.947 183.09 150.652C179.849 157.993 175.098 164.662 169.108 170.28C163.119 175.898 156.009 180.354 148.183 183.395C140.358 186.435 131.97 188 123.5 188C115.03 188 106.642 186.435 98.8169 183.395C90.9914 180.354 83.881 175.898 77.8916 170.28C71.9022 164.662 67.1512 157.993 63.9098 150.652C61.832 145.947 60.4006 141.026 59.6406 136.006C58.9348 131.344 62.8225 127.5 67.5377 127.5C72.253 127.5 75.9891 131.361 76.9448 135.978C77.5493 138.899 78.4659 141.762 79.6854 144.523C82.0687 149.92 85.562 154.824 89.9658 158.955C94.3695 163.085 99.5976 166.362 105.351 168.597C111.105 170.833 117.272 171.983 123.5 171.983C129.728 171.983 135.895 170.833 141.649 168.597C147.402 166.362 152.63 163.085 157.034 158.955C161.438 154.824 164.931 149.92 167.315 144.523C168.534 141.762 169.451 138.899 170.055 135.978C171.011 131.361 174.747 127.5 179.462 127.5Z" stroke="url(#paint1_linear_254_1868)" stroke-width="22" stroke-linejoin="round" mask="url(#path-4-inside-1_254_1868)"/>
</g>
<g filter="url(#filter4_i_254_1868)">
<path d="M224.038 33.6174C224.039 33.6175 224.038 33.6215 224.035 33.6293C224.037 33.6214 224.038 33.6174 224.038 33.6174ZM220.164 30.5439C222.569 32.2545 223.501 33.4345 223.847 34C223.501 34.5655 222.569 35.7455 220.164 37.4561C215.937 40.4627 209.044 43.6625 199.446 46.5505C180.401 52.2808 153.37 56 123 56C92.6299 56 65.5993 52.2808 46.5544 46.5505C36.956 43.6625 30.0625 40.4627 25.8361 37.4561C23.4314 35.7455 22.4986 34.5655 22.1527 34C22.4986 33.4345 23.4314 32.2545 25.8361 30.5439C30.0625 27.5374 36.956 24.3375 46.5544 21.4495C65.5993 15.7192 92.6299 12 123 12C153.37 12 180.401 15.7192 199.446 21.4495C209.044 24.3375 215.937 27.5374 220.164 30.5439ZM21.9616 33.6174C21.9617 33.6174 21.963 33.6214 21.9651 33.6293C21.9625 33.6214 21.9614 33.6175 21.9616 33.6174ZM21.9616 34.3826C21.9614 34.3825 21.9624 34.3786 21.9651 34.3707C21.963 34.3786 21.9617 34.3826 21.9616 34.3826ZM224.035 34.3708C224.038 34.3786 224.039 34.3826 224.038 34.3826C224.038 34.3826 224.037 34.3787 224.035 34.3708Z" stroke="url(#paint2_linear_254_1868)" stroke-width="24"/>
</g>
</g>
<defs>
<filter id="filter0_iii_254_1868" x="-11" y="-24" width="278" height="326" filterUnits="userSpaceOnUse" color-interpolation-filters="sRGB">
<feFlood flood-opacity="0" result="BackgroundImageFix"/>
<feBlend mode="normal" in="SourceGraphic" in2="BackgroundImageFix" result="shape"/>
<feColorMatrix in="SourceAlpha" type="matrix" values="0 0 0 0 0 0 0 0 0 0 0 0 0 0 0 0 0 0 127 0" result="hardAlpha"/>
<feMorphology radius="8" operator="erode" in="SourceAlpha" result="effect1_innerShadow_254_1868"/>
<feOffset dx="21" dy="73"/>
<feGaussianBlur stdDeviation="24"/>
<feComposite in2="hardAlpha" operator="arithmetic" k2="-1" k3="1"/>
<feColorMatrix type="matrix" values="0 0 0 0 0.682806 0 0 0 0 0.0652778 0 0 0 0 0.783333 0 0 0 0.14 0"/>
<feBlend mode="normal" in2="shape" result="effect1_innerShadow_254_1868"/>
<feColorMatrix in="SourceAlpha" type="matrix" values="0 0 0 0 0 0 0 0 0 0 0 0 0 0 0 0 0 0 127 0" result="hardAlpha"/>
<feOffset dy="-24"/>
<feGaussianBlur stdDeviation="15.5"/>
<feComposite in2="hardAlpha" operator="arithmetic" k2="-1" k3="1"/>
<feColorMatrix type="matrix" values="0 0 0 0 0.943639 0 0 0 0 0.223611 0 0 0 0 0.958333 0 0 0 0.44 0"/>
<feBlend mode="normal" in2="effect1_innerShadow_254_1868" result="effect2_innerShadow_254_1868"/>
<feColorMatrix in="SourceAlpha" type="matrix" values="0 0 0 0 0 0 0 0 0 0 0 0 0 0 0 0 0 0 127 0" result="hardAlpha"/>
<feOffset dx="-11" dy="30"/>
<feGaussianBlur stdDeviation="15.5"/>
<feComposite in2="hardAlpha" operator="arithmetic" k2="-1" k3="1"/>
<feColorMatrix type="matrix" values="0 0 0 0 1 0 0 0 0 0.766722 0 0 0 0 0.693056 0 0 0 0.68 0"/>
<feBlend mode="normal" in2="effect2_innerShadow_254_1868" result="effect3_innerShadow_254_1868"/>
</filter>
<filter id="filter1_i_254_1868" x="40.835" y="82" width="67.502" height="34.5" filterUnits="userSpaceOnUse" color-interpolation-filters="sRGB">
<feFlood flood-opacity="0" result="BackgroundImageFix"/>
<feBlend mode="normal" in="SourceGraphic" in2="BackgroundImageFix" result="shape"/>
<feColorMatrix in="SourceAlpha" type="matrix" values="0 0 0 0 0 0 0 0 0 0 0 0 0 0 0 0 0 0 127 0" result="hardAlpha"/>
<feMorphology radius="26.45" operator="dilate" in="SourceAlpha" result="effect1_innerShadow_254_1868"/>
<feOffset dx="9.2" dy="-7"/>
<feGaussianBlur stdDeviation="10.35"/>
<feComposite in2="hardAlpha" operator="arithmetic" k2="-1" k3="1"/>
<feColorMatrix type="matrix" values="0 0 0 0 0.462111 0 0 0 0 0.203767 0 0 0 0 0.504167 0 0 0 0.35 0"/>
<feBlend mode="normal" in2="shape" result="effect1_innerShadow_254_1868"/>
</filter>
<filter id="filter2_i_254_1868" x="137.835" y="82" width="67.502" height="34.5" filterUnits="userSpaceOnUse" color-interpolation-filters="sRGB">
<feFlood flood-opacity="0" result="BackgroundImageFix"/>
<feBlend mode="normal" in="SourceGraphic" in2="BackgroundImageFix" result="shape"/>
<feColorMatrix in="SourceAlpha" type="matrix" values="0 0 0 0 0 0 0 0 0 0 0 0 0 0 0 0 0 0 127 0" result="hardAlpha"/>
<feMorphology radius="26.45" operator="dilate" in="SourceAlpha" result="effect1_innerShadow_254_1868"/>
<feOffset dx="9.2" dy="-9"/>
<feGaussianBlur stdDeviation="10.35"/>
<feComposite in2="hardAlpha" operator="arithmetic" k2="-1" k3="1"/>
<feColorMatrix type="matrix" values="0 0 0 0 0.462111 0 0 0 0 0.203767 0 0 0 0 0.504167 0 0 0 0.35 0"/>
<feBlend mode="normal" in2="shape" result="effect1_innerShadow_254_1868"/>
</filter>
<filter id="filter3_diiii_254_1868" x="26.2243" y="110.833" width="194.551" height="127.167" filterUnits="userSpaceOnUse" color-interpolation-filters="sRGB">
<feFlood flood-opacity="0" result="BackgroundImageFix"/>
<feColorMatrix in="SourceAlpha" type="matrix" values="0 0 0 0 0 0 0 0 0 0 0 0 0 0 0 0 0 0 127 0" result="hardAlpha"/>
<feOffset dy="16.6667"/>
<feGaussianBlur stdDeviation="16.6667"/>
<feColorMatrix type="matrix" values="0 0 0 0 0.0298758 0 0 0 0 0.0216858 0 0 0 0 0.0308333 0 0 0 0.24 0"/>
<feBlend mode="normal" in2="BackgroundImageFix" result="effect1_dropShadow_254_1868"/>
<feBlend mode="normal" in="SourceGraphic" in2="effect1_dropShadow_254_1868" result="shape"/>
<feColorMatrix in="SourceAlpha" type="matrix" values="0 0 0 0 0 0 0 0 0 0 0 0 0 0 0 0 0 0 127 0" result="hardAlpha"/>
<feOffset dy="5.18518"/>
<feGaussianBlur stdDeviation="2.59259"/>
<feComposite in2="hardAlpha" operator="arithmetic" k2="-1" k3="1"/>
<feColorMatrix type="matrix" values="0 0 0 0 0.17328 0 0 0 0 0.125777 0 0 0 0 0.178833 0 0 0 1 0"/>
<feBlend mode="normal" in2="shape" result="effect2_innerShadow_254_1868"/>
<feColorMatrix in="SourceAlpha" type="matrix" values="0 0 0 0 0 0 0 0 0 0 0 0 0 0 0 0 0 0 127 0" result="hardAlpha"/>
<feOffset dy="-2.59259"/>
<feGaussianBlur stdDeviation="1.2963"/>
<feComposite in2="hardAlpha" operator="arithmetic" k2="-1" k3="1"/>
<feColorMatrix type="matrix" values="0 0 0 0 0.119503 0 0 0 0 0.086743 0 0 0 0 0.123333 0 0 0 1 0"/>
<feBlend mode="normal" in2="effect2_innerShadow_254_1868" result="effect3_innerShadow_254_1868"/>
<feColorMatrix in="SourceAlpha" type="matrix" values="0 0 0 0 0 0 0 0 0 0 0 0 0 0 0 0 0 0 127 0" result="hardAlpha"/>
<feMorphology radius="26.45" operator="dilate" in="SourceAlpha" result="effect4_innerShadow_254_1868"/>
<feOffset dx="9.2" dy="-9"/>
<feGaussianBlur stdDeviation="10.35"/>
<feComposite in2="hardAlpha" operator="arithmetic" k2="-1" k3="1"/>
<feColorMatrix type="matrix" values="0 0 0 0 0.462111 0 0 0 0 0.203767 0 0 0 0 0.504167 0 0 0 0.35 0"/>
<feBlend mode="normal" in2="effect3_innerShadow_254_1868" result="effect4_innerShadow_254_1868"/>
<feColorMatrix in="SourceAlpha" type="matrix" values="0 0 0 0 0 0 0 0 0 0 0 0 0 0 0 0 0 0 127 0" result="hardAlpha"/>
<feMorphology radius="26.45" operator="dilate" in="SourceAlpha" result="effect5_innerShadow_254_1868"/>
<feOffset dx="9.2" dy="-9"/>
<feGaussianBlur stdDeviation="10.35"/>
<feComposite in2="hardAlpha" operator="arithmetic" k2="-1" k3="1"/>
<feColorMatrix type="matrix" values="0 0 0 0 0.462111 0 0 0 0 0.203767 0 0 0 0 0.504167 0 0 0 0.35 0"/>
<feBlend mode="normal" in2="effect4_innerShadow_254_1868" result="effect5_innerShadow_254_1868"/>
</filter>
<filter id="filter4_i_254_1868" x="10" y="-7" width="226" height="75" filterUnits="userSpaceOnUse" color-interpolation-filters="sRGB">
<feFlood flood-opacity="0" result="BackgroundImageFix"/>
<feBlend mode="normal" in="SourceGraphic" in2="BackgroundImageFix" result="shape"/>
<feColorMatrix in="SourceAlpha" type="matrix" values="0 0 0 0 0 0 0 0 0 0 0 0 0 0 0 0 0 0 127 0" result="hardAlpha"/>
<feOffset dy="-7"/>
<feGaussianBlur stdDeviation="6"/>
<feComposite in2="hardAlpha" operator="arithmetic" k2="-1" k3="1"/>
<feColorMatrix type="matrix" values="0 0 0 0 0.802667 0 0 0 0 0 0 0 0 0 0.933333 0 0 0 0.57 0"/>
<feBlend mode="normal" in2="shape" result="effect1_innerShadow_254_1868"/>
</filter>
<radialGradient id="paint0_radial_254_1868" cx="0" cy="0" r="1" gradientUnits="userSpaceOnUse" gradientTransform="translate(109 16) rotate(86.5167) scale(230.426)">
<stop offset="0.576389" stop-color="#FFBB0C"/>
<stop offset="1" stop-color="#FFC907"/>
</radialGradient>
<linearGradient id="paint1_linear_254_1868" x1="123.5" y1="67" x2="123.5" y2="188" gradientUnits="userSpaceOnUse">
<stop stop-color="#201721"/>
<stop offset="1" stop-color="#2B1F2C"/>
</linearGradient>
<linearGradient id="paint2_linear_254_1868" x1="123" y1="5.75609e-09" x2="123.029" y2="67.95" gradientUnits="userSpaceOnUse">
<stop stop-color="#3FEEEE"/>
<stop offset="1" stop-color="#43BBFF"/>
</linearGradient>
<clipPath id="clip0_254_1868">
<rect width="246" height="246" fill="white"/>
</clipPath>
</defs>
</svg>
