<svg width="246" height="246" viewBox="0 0 246 246" fill="none" xmlns="http://www.w3.org/2000/svg">
<g clip-path="url(#clip0_254_1889)">
<g filter="url(#filter0_iii_254_1889)">
<path d="M0 115C0 51.4872 51.4873 0 115 0H127C192.722 0 246 53.2781 246 119V127C246 192.722 192.722 246 127 246H123C55.069 246 0 190.931 0 123V115Z" fill="url(#paint0_radial_254_1889)"/>
</g>
<g filter="url(#filter1_f_254_1889)">
<circle cx="59.5" cy="132.5" r="35.5" fill="#FF4242"/>
</g>
<g filter="url(#filter2_f_254_1889)">
<circle cx="188.5" cy="132.5" r="35.5" fill="#FF4242"/>
</g>
<g filter="url(#filter3_i_254_1889)">
<path d="M101.54 97.5C105.66 97.5 109.081 94.1218 108.197 90.0978C106.794 83.7112 103.591 77.8008 98.8952 73.1048C92.4252 66.6348 83.65 63 74.5 63C65.35 63 56.5748 66.6348 50.1048 73.1048C45.6509 77.5587 42.5406 83.105 41.0346 89.114C39.8974 93.6519 43.7924 97.5 48.4706 97.5C52.8564 97.5 56.2631 93.7812 58.1273 89.8113C59.0089 87.9338 60.215 86.2045 61.7097 84.7097C65.1019 81.3176 69.7027 79.4118 74.5 79.4118C79.2973 79.4118 83.8981 81.3176 87.2903 84.7097C88.5423 85.9618 89.5918 87.3785 90.4178 88.9089C92.7658 93.2597 96.5961 97.5 101.54 97.5Z" fill="#C4C4C4"/>
<path d="M101.54 97.5C105.66 97.5 109.081 94.1218 108.197 90.0978C106.794 83.7112 103.591 77.8008 98.8952 73.1048C92.4252 66.6348 83.65 63 74.5 63C65.35 63 56.5748 66.6348 50.1048 73.1048C45.6509 77.5587 42.5406 83.105 41.0346 89.114C39.8974 93.6519 43.7924 97.5 48.4706 97.5C52.8564 97.5 56.2631 93.7812 58.1273 89.8113C59.0089 87.9338 60.215 86.2045 61.7097 84.7097C65.1019 81.3176 69.7027 79.4118 74.5 79.4118C79.2973 79.4118 83.8981 81.3176 87.2903 84.7097C88.5423 85.9618 89.5918 87.3785 90.4178 88.9089C92.7658 93.2597 96.5961 97.5 101.54 97.5Z" fill="#221725"/>
</g>
<g filter="url(#filter4_i_254_1889)">
<path d="M198.54 97.5C202.66 97.5 206.081 94.1218 205.197 90.0978C203.794 83.7112 200.591 77.8008 195.895 73.1048C189.425 66.6348 180.65 63 171.5 63C162.35 63 153.575 66.6348 147.105 73.1048C142.651 77.5587 139.541 83.105 138.035 89.114C136.897 93.6519 140.792 97.5 145.471 97.5C149.856 97.5 153.263 93.7812 155.127 89.8113C156.009 87.9338 157.215 86.2045 158.71 84.7097C162.102 81.3176 166.703 79.4118 171.5 79.4118C176.297 79.4118 180.898 81.3176 184.29 84.7097C185.542 85.9618 186.592 87.3785 187.418 88.9089C189.766 93.2597 193.596 97.5 198.54 97.5Z" fill="#C4C4C4"/>
<path d="M198.54 97.5C202.66 97.5 206.081 94.1218 205.197 90.0978C203.794 83.7112 200.591 77.8008 195.895 73.1048C189.425 66.6348 180.65 63 171.5 63C162.35 63 153.575 66.6348 147.105 73.1048C142.651 77.5587 139.541 83.105 138.035 89.114C136.897 93.6519 140.792 97.5 145.471 97.5C149.856 97.5 153.263 93.7812 155.127 89.8113C156.009 87.9338 157.215 86.2045 158.71 84.7097C162.102 81.3176 166.703 79.4118 171.5 79.4118C176.297 79.4118 180.898 81.3176 184.29 84.7097C185.542 85.9618 186.592 87.3785 187.418 88.9089C189.766 93.2597 193.596 97.5 198.54 97.5Z" fill="#221725"/>
</g>
<mask id="mask0_254_1889" style="mask-type:alpha" maskUnits="userSpaceOnUse" x="51" y="112" width="144" height="74">
<path d="M72.2 112C66.5926 112 63.7889 112 60.6473 113.42C56.382 115.347 51.8392 121.61 51.3311 126.263C50.9568 129.69 51.515 131.399 52.6313 134.817C56.1881 145.708 62.2754 155.72 70.5277 163.972C84.3116 177.756 103.007 185.5 122.5 185.5C141.993 185.5 160.688 177.756 174.472 163.972C183.073 155.372 189.322 144.86 192.805 133.434C193.846 130.022 194.366 128.317 193.97 125.144C193.427 120.789 189.209 115.093 185.202 113.304C182.283 112 179.605 112 174.25 112L122.5 112L72.2 112Z" fill="url(#paint1_linear_254_1889)"/>
</mask>
<g mask="url(#mask0_254_1889)">
<g filter="url(#filter5_i_254_1889)">
<path d="M72.2 112C66.5926 112 63.7889 112 60.6473 113.42C56.382 115.347 51.8392 121.61 51.3311 126.263C50.9568 129.69 51.515 131.399 52.6313 134.817C56.1881 145.708 62.2754 155.72 70.5277 163.972C84.3116 177.756 103.007 185.5 122.5 185.5C141.993 185.5 160.688 177.756 174.472 163.972C183.073 155.372 189.322 144.86 192.805 133.434C193.846 130.022 194.366 128.317 193.97 125.144C193.427 120.789 189.209 115.093 185.202 113.304C182.283 112 179.605 112 174.25 112L122.5 112L72.2 112Z" fill="url(#paint2_linear_254_1889)"/>
</g>
<g filter="url(#filter6_i_254_1889)">
<path d="M51.4587 116.18C48.6775 109.802 53.1592 102.5 60.1171 102.5H183.771C185.28 102.5 181.509 102.5 182.528 102.677C187.262 103.499 193.391 113.989 191.783 118.516C191.437 119.491 196.575 110.373 194.52 114.02C191.911 118.649 191.518 126.5 186.204 126.5H55.862C52.0072 126.5 52.9996 119.713 51.4587 116.18Z" fill="white"/>
</g>
<g filter="url(#filter7_iii_254_1889)">
<ellipse cx="122" cy="171.5" rx="29" ry="23" fill="url(#paint3_radial_254_1889)"/>
</g>
</g>
</g>
<defs>
<filter id="filter0_iii_254_1889" x="-11" y="-24" width="278" height="326" filterUnits="userSpaceOnUse" color-interpolation-filters="sRGB">
<feFlood flood-opacity="0" result="BackgroundImageFix"/>
<feBlend mode="normal" in="SourceGraphic" in2="BackgroundImageFix" result="shape"/>
<feColorMatrix in="SourceAlpha" type="matrix" values="0 0 0 0 0 0 0 0 0 0 0 0 0 0 0 0 0 0 127 0" result="hardAlpha"/>
<feMorphology radius="8" operator="erode" in="SourceAlpha" result="effect1_innerShadow_254_1889"/>
<feOffset dx="21" dy="73"/>
<feGaussianBlur stdDeviation="24"/>
<feComposite in2="hardAlpha" operator="arithmetic" k2="-1" k3="1"/>
<feColorMatrix type="matrix" values="0 0 0 0 0.682806 0 0 0 0 0.0652778 0 0 0 0 0.783333 0 0 0 0.14 0"/>
<feBlend mode="normal" in2="shape" result="effect1_innerShadow_254_1889"/>
<feColorMatrix in="SourceAlpha" type="matrix" values="0 0 0 0 0 0 0 0 0 0 0 0 0 0 0 0 0 0 127 0" result="hardAlpha"/>
<feOffset dy="-24"/>
<feGaussianBlur stdDeviation="15.5"/>
<feComposite in2="hardAlpha" operator="arithmetic" k2="-1" k3="1"/>
<feColorMatrix type="matrix" values="0 0 0 0 0.943639 0 0 0 0 0.223611 0 0 0 0 0.958333 0 0 0 0.44 0"/>
<feBlend mode="normal" in2="effect1_innerShadow_254_1889" result="effect2_innerShadow_254_1889"/>
<feColorMatrix in="SourceAlpha" type="matrix" values="0 0 0 0 0 0 0 0 0 0 0 0 0 0 0 0 0 0 127 0" result="hardAlpha"/>
<feOffset dx="-11" dy="30"/>
<feGaussianBlur stdDeviation="15.5"/>
<feComposite in2="hardAlpha" operator="arithmetic" k2="-1" k3="1"/>
<feColorMatrix type="matrix" values="0 0 0 0 1 0 0 0 0 0.766722 0 0 0 0 0.693056 0 0 0 0.68 0"/>
<feBlend mode="normal" in2="effect2_innerShadow_254_1889" result="effect3_innerShadow_254_1889"/>
</filter>
<filter id="filter1_f_254_1889" x="-15" y="58" width="149" height="149" filterUnits="userSpaceOnUse" color-interpolation-filters="sRGB">
<feFlood flood-opacity="0" result="BackgroundImageFix"/>
<feBlend mode="normal" in="SourceGraphic" in2="BackgroundImageFix" result="shape"/>
<feGaussianBlur stdDeviation="19.5" result="effect1_foregroundBlur_254_1889"/>
</filter>
<filter id="filter2_f_254_1889" x="114" y="58" width="149" height="149" filterUnits="userSpaceOnUse" color-interpolation-filters="sRGB">
<feFlood flood-opacity="0" result="BackgroundImageFix"/>
<feBlend mode="normal" in="SourceGraphic" in2="BackgroundImageFix" result="shape"/>
<feGaussianBlur stdDeviation="19.5" result="effect1_foregroundBlur_254_1889"/>
</filter>
<filter id="filter3_i_254_1889" x="40.835" y="63" width="67.502" height="34.5" filterUnits="userSpaceOnUse" color-interpolation-filters="sRGB">
<feFlood flood-opacity="0" result="BackgroundImageFix"/>
<feBlend mode="normal" in="SourceGraphic" in2="BackgroundImageFix" result="shape"/>
<feColorMatrix in="SourceAlpha" type="matrix" values="0 0 0 0 0 0 0 0 0 0 0 0 0 0 0 0 0 0 127 0" result="hardAlpha"/>
<feMorphology radius="26.45" operator="dilate" in="SourceAlpha" result="effect1_innerShadow_254_1889"/>
<feOffset dx="9.2" dy="-7"/>
<feGaussianBlur stdDeviation="10.35"/>
<feComposite in2="hardAlpha" operator="arithmetic" k2="-1" k3="1"/>
<feColorMatrix type="matrix" values="0 0 0 0 0.462111 0 0 0 0 0.203767 0 0 0 0 0.504167 0 0 0 0.35 0"/>
<feBlend mode="normal" in2="shape" result="effect1_innerShadow_254_1889"/>
</filter>
<filter id="filter4_i_254_1889" x="137.835" y="63" width="67.502" height="34.5" filterUnits="userSpaceOnUse" color-interpolation-filters="sRGB">
<feFlood flood-opacity="0" result="BackgroundImageFix"/>
<feBlend mode="normal" in="SourceGraphic" in2="BackgroundImageFix" result="shape"/>
<feColorMatrix in="SourceAlpha" type="matrix" values="0 0 0 0 0 0 0 0 0 0 0 0 0 0 0 0 0 0 127 0" result="hardAlpha"/>
<feMorphology radius="26.45" operator="dilate" in="SourceAlpha" result="effect1_innerShadow_254_1889"/>
<feOffset dx="9.2" dy="-9"/>
<feGaussianBlur stdDeviation="10.35"/>
<feComposite in2="hardAlpha" operator="arithmetic" k2="-1" k3="1"/>
<feColorMatrix type="matrix" values="0 0 0 0 0.462111 0 0 0 0 0.203767 0 0 0 0 0.504167 0 0 0 0.35 0"/>
<feBlend mode="normal" in2="shape" result="effect1_innerShadow_254_1889"/>
</filter>
<filter id="filter5_i_254_1889" x="51.2148" y="112" width="142.888" height="77.5" filterUnits="userSpaceOnUse" color-interpolation-filters="sRGB">
<feFlood flood-opacity="0" result="BackgroundImageFix"/>
<feBlend mode="normal" in="SourceGraphic" in2="BackgroundImageFix" result="shape"/>
<feColorMatrix in="SourceAlpha" type="matrix" values="0 0 0 0 0 0 0 0 0 0 0 0 0 0 0 0 0 0 127 0" result="hardAlpha"/>
<feOffset dy="4"/>
<feGaussianBlur stdDeviation="8"/>
<feComposite in2="hardAlpha" operator="arithmetic" k2="-1" k3="1"/>
<feColorMatrix type="matrix" values="0 0 0 0 0 0 0 0 0 0 0 0 0 0 0 0 0 0 0.25 0"/>
<feBlend mode="normal" in2="shape" result="effect1_innerShadow_254_1889"/>
</filter>
<filter id="filter6_i_254_1889" x="50.623" y="99.5" width="144.384" height="27" filterUnits="userSpaceOnUse" color-interpolation-filters="sRGB">
<feFlood flood-opacity="0" result="BackgroundImageFix"/>
<feBlend mode="normal" in="SourceGraphic" in2="BackgroundImageFix" result="shape"/>
<feColorMatrix in="SourceAlpha" type="matrix" values="0 0 0 0 0 0 0 0 0 0 0 0 0 0 0 0 0 0 127 0" result="hardAlpha"/>
<feOffset dy="-3"/>
<feGaussianBlur stdDeviation="8"/>
<feComposite in2="hardAlpha" operator="arithmetic" k2="-1" k3="1"/>
<feColorMatrix type="matrix" values="0 0 0 0 0 0 0 0 0 0 0 0 0 0 0 0 0 0 0.47 0"/>
<feBlend mode="normal" in2="shape" result="effect1_innerShadow_254_1889"/>
</filter>
<filter id="filter7_iii_254_1889" x="90" y="138.5" width="61" height="60" filterUnits="userSpaceOnUse" color-interpolation-filters="sRGB">
<feFlood flood-opacity="0" result="BackgroundImageFix"/>
<feBlend mode="normal" in="SourceGraphic" in2="BackgroundImageFix" result="shape"/>
<feColorMatrix in="SourceAlpha" type="matrix" values="0 0 0 0 0 0 0 0 0 0 0 0 0 0 0 0 0 0 127 0" result="hardAlpha"/>
<feOffset dy="4"/>
<feGaussianBlur stdDeviation="5"/>
<feComposite in2="hardAlpha" operator="arithmetic" k2="-1" k3="1"/>
<feColorMatrix type="matrix" values="0 0 0 0 0 0 0 0 0 0 0 0 0 0 0 0 0 0 0.25 0"/>
<feBlend mode="normal" in2="shape" result="effect1_innerShadow_254_1889"/>
<feColorMatrix in="SourceAlpha" type="matrix" values="0 0 0 0 0 0 0 0 0 0 0 0 0 0 0 0 0 0 127 0" result="hardAlpha"/>
<feOffset dx="-3" dy="4"/>
<feGaussianBlur stdDeviation="2"/>
<feComposite in2="hardAlpha" operator="arithmetic" k2="-1" k3="1"/>
<feColorMatrix type="matrix" values="0 0 0 0 1 0 0 0 0 1 0 0 0 0 1 0 0 0 0.29 0"/>
<feBlend mode="normal" in2="effect1_innerShadow_254_1889" result="effect2_innerShadow_254_1889"/>
<feColorMatrix in="SourceAlpha" type="matrix" values="0 0 0 0 0 0 0 0 0 0 0 0 0 0 0 0 0 0 127 0" result="hardAlpha"/>
<feOffset dy="-10"/>
<feGaussianBlur stdDeviation="5"/>
<feComposite in2="hardAlpha" operator="arithmetic" k2="-1" k3="1"/>
<feColorMatrix type="matrix" values="0 0 0 0 0.828932 0 0 0 0 0.0596354 0 0 0 0 0.954167 0 0 0 0.6 0"/>
<feBlend mode="normal" in2="effect2_innerShadow_254_1889" result="effect3_innerShadow_254_1889"/>
</filter>
<radialGradient id="paint0_radial_254_1889" cx="0" cy="0" r="1" gradientUnits="userSpaceOnUse" gradientTransform="translate(109 16) rotate(86.5167) scale(230.426)">
<stop offset="0.576389" stop-color="#FFBB0C"/>
<stop offset="1" stop-color="#FFC907"/>
</radialGradient>
<linearGradient id="paint1_linear_254_1889" x1="122.5" y1="185.5" x2="107.5" y2="99.5" gradientUnits="userSpaceOnUse">
<stop stop-color="#FB39A2"/>
<stop offset="1" stop-color="#C520FF"/>
</linearGradient>
<linearGradient id="paint2_linear_254_1889" x1="122.5" y1="185.5" x2="77.5" y2="90.5" gradientUnits="userSpaceOnUse">
<stop stop-color="#3A2EC0"/>
<stop offset="1" stop-color="#FF20C1"/>
</linearGradient>
<radialGradient id="paint3_radial_254_1889" cx="0" cy="0" r="1" gradientUnits="userSpaceOnUse" gradientTransform="translate(121.293 154.671) rotate(88.9826) scale(39.8355 50.2216)">
<stop stop-color="#FC4141"/>
<stop offset="1" stop-color="#FF0F0F"/>
</radialGradient>
<clipPath id="clip0_254_1889">
<rect width="246" height="246" fill="white"/>
</clipPath>
</defs>
</svg>
