<svg width="246" height="246" viewBox="0 0 246 246" fill="none" xmlns="http://www.w3.org/2000/svg">
<g clip-path="url(#clip0_254_1873)">
<g filter="url(#filter0_iii_254_1873)">
<path d="M0 115C0 51.4872 51.4873 0 115 0H127C192.722 0 246 53.2781 246 119V127C246 192.722 192.722 246 127 246H123C55.069 246 0 190.931 0 123V115Z" fill="url(#paint0_radial_254_1873)"/>
</g>
<g filter="url(#filter1_f_254_1873)">
<circle cx="59.5" cy="132.5" r="35.5" fill="#FF4242"/>
</g>
<g filter="url(#filter2_f_254_1873)">
<circle cx="188.5" cy="132.5" r="35.5" fill="#FF4242"/>
</g>
<g filter="url(#filter3_i_254_1873)">
<path d="M101.54 97.5C105.66 97.5 109.081 94.1218 108.197 90.0978C106.794 83.7112 103.591 77.8008 98.8952 73.1048C92.4252 66.6348 83.65 63 74.5 63C65.35 63 56.5748 66.6348 50.1048 73.1048C45.6509 77.5587 42.5406 83.105 41.0346 89.114C39.8974 93.6519 43.7924 97.5 48.4706 97.5C52.8564 97.5 56.2631 93.7812 58.1273 89.8113C59.0089 87.9338 60.215 86.2045 61.7097 84.7097C65.1019 81.3176 69.7027 79.4118 74.5 79.4118C79.2973 79.4118 83.8981 81.3176 87.2903 84.7097C88.5423 85.9618 89.5918 87.3785 90.4178 88.9089C92.7658 93.2597 96.5961 97.5 101.54 97.5Z" fill="#C4C4C4"/>
<path d="M101.54 97.5C105.66 97.5 109.081 94.1218 108.197 90.0978C106.794 83.7112 103.591 77.8008 98.8952 73.1048C92.4252 66.6348 83.65 63 74.5 63C65.35 63 56.5748 66.6348 50.1048 73.1048C45.6509 77.5587 42.5406 83.105 41.0346 89.114C39.8974 93.6519 43.7924 97.5 48.4706 97.5C52.8564 97.5 56.2631 93.7812 58.1273 89.8113C59.0089 87.9338 60.215 86.2045 61.7097 84.7097C65.1019 81.3176 69.7027 79.4118 74.5 79.4118C79.2973 79.4118 83.8981 81.3176 87.2903 84.7097C88.5423 85.9618 89.5918 87.3785 90.4178 88.9089C92.7658 93.2597 96.5961 97.5 101.54 97.5Z" fill="#221725"/>
</g>
<g filter="url(#filter4_i_254_1873)">
<path d="M198.54 97.5C202.66 97.5 206.081 94.1218 205.197 90.0978C203.794 83.7112 200.591 77.8008 195.895 73.1048C189.425 66.6348 180.65 63 171.5 63C162.35 63 153.575 66.6348 147.105 73.1048C142.651 77.5587 139.541 83.105 138.035 89.114C136.897 93.6519 140.792 97.5 145.471 97.5C149.856 97.5 153.263 93.7812 155.127 89.8113C156.009 87.9338 157.215 86.2045 158.71 84.7097C162.102 81.3176 166.703 79.4118 171.5 79.4118C176.297 79.4118 180.898 81.3176 184.29 84.7097C185.542 85.9618 186.592 87.3785 187.418 88.9089C189.766 93.2597 193.596 97.5 198.54 97.5Z" fill="#C4C4C4"/>
<path d="M198.54 97.5C202.66 97.5 206.081 94.1218 205.197 90.0978C203.794 83.7112 200.591 77.8008 195.895 73.1048C189.425 66.6348 180.65 63 171.5 63C162.35 63 153.575 66.6348 147.105 73.1048C142.651 77.5587 139.541 83.105 138.035 89.114C136.897 93.6519 140.792 97.5 145.471 97.5C149.856 97.5 153.263 93.7812 155.127 89.8113C156.009 87.9338 157.215 86.2045 158.71 84.7097C162.102 81.3176 166.703 79.4118 171.5 79.4118C176.297 79.4118 180.898 81.3176 184.29 84.7097C185.542 85.9618 186.592 87.3785 187.418 88.9089C189.766 93.2597 193.596 97.5 198.54 97.5Z" fill="#221725"/>
</g>
<g filter="url(#filter5_diiii_254_1873)">
<mask id="path-6-inside-1_254_1873" fill="white">
<path d="M179.462 102.5C184.178 102.5 188.065 106.344 187.359 111.006C186.599 116.026 185.168 120.947 183.09 125.652C179.849 132.993 175.098 139.662 169.108 145.28C163.119 150.898 156.009 155.354 148.183 158.395C140.358 161.435 131.97 163 123.5 163C115.03 163 106.642 161.435 98.8169 158.395C90.9914 155.354 83.881 150.898 77.8916 145.28C71.9022 139.662 67.1512 132.993 63.9098 125.652C61.832 120.947 60.4006 116.026 59.6406 111.006C58.9348 106.344 62.8225 102.5 67.5377 102.5C72.253 102.5 75.9891 106.361 76.9448 110.978C77.5493 113.899 78.4659 116.762 79.6854 119.523C82.0687 124.92 85.562 129.824 89.9658 133.955C94.3695 138.085 99.5976 141.362 105.351 143.597C111.105 145.833 117.272 146.983 123.5 146.983C129.728 146.983 135.895 145.833 141.649 143.597C147.402 141.362 152.63 138.085 157.034 133.955C161.438 129.824 164.931 124.92 167.315 119.523C168.534 116.762 169.451 113.899 170.055 110.978C171.011 106.361 174.747 102.5 179.462 102.5Z"/>
</mask>
<path d="M179.462 102.5C184.178 102.5 188.065 106.344 187.359 111.006C186.599 116.026 185.168 120.947 183.09 125.652C179.849 132.993 175.098 139.662 169.108 145.28C163.119 150.898 156.009 155.354 148.183 158.395C140.358 161.435 131.97 163 123.5 163C115.03 163 106.642 161.435 98.8169 158.395C90.9914 155.354 83.881 150.898 77.8916 145.28C71.9022 139.662 67.1512 132.993 63.9098 125.652C61.832 120.947 60.4006 116.026 59.6406 111.006C58.9348 106.344 62.8225 102.5 67.5377 102.5C72.253 102.5 75.9891 106.361 76.9448 110.978C77.5493 113.899 78.4659 116.762 79.6854 119.523C82.0687 124.92 85.562 129.824 89.9658 133.955C94.3695 138.085 99.5976 141.362 105.351 143.597C111.105 145.833 117.272 146.983 123.5 146.983C129.728 146.983 135.895 145.833 141.649 143.597C147.402 141.362 152.63 138.085 157.034 133.955C161.438 129.824 164.931 124.92 167.315 119.523C168.534 116.762 169.451 113.899 170.055 110.978C171.011 106.361 174.747 102.5 179.462 102.5Z" stroke="url(#paint1_linear_254_1873)" stroke-width="22" stroke-linejoin="round" mask="url(#path-6-inside-1_254_1873)"/>
</g>
<g filter="url(#filter6_ii_254_1873)">
<path d="M82.2943 26.2728C81.1766 23.6754 79.5649 21.3218 77.5496 19.3435C75.5328 17.3594 73.1549 15.7826 70.5452 14.6989C67.8391 13.5707 64.9367 12.9933 62.0065 13.0001C57.8956 13.0001 53.8847 14.1298 50.3992 16.2638C49.5653 16.7743 48.7732 17.335 48.0227 17.9459C47.2722 17.335 46.48 16.7743 45.6462 16.2638C42.1607 14.1298 38.1498 13.0001 34.0389 13.0001C31.0787 13.0001 28.2102 13.5691 25.5002 14.6989C22.8819 15.7868 20.522 17.3518 18.4958 19.3435C16.4778 21.3195 14.8658 23.6738 13.7511 26.2728C12.592 28.9759 12 31.8463 12 34.8005C12 37.5872 12.567 40.4911 13.6927 43.4453C14.635 45.9141 15.9858 48.4749 17.7119 51.0608C20.447 55.1531 24.2077 59.4211 28.8773 63.7477C36.6155 70.9197 44.2787 75.8739 44.6039 76.0748L46.5801 77.3468C47.4557 77.9075 48.5814 77.9075 49.4569 77.3468L51.4332 76.0748C51.7584 75.8655 59.4132 70.9197 67.1597 63.7477C71.8293 59.4211 75.59 55.1531 78.3251 51.0608C80.0512 48.4749 81.4104 45.9141 82.3443 43.4453C83.47 40.4911 84.037 37.5872 84.037 34.8005C84.0454 31.8463 83.4533 28.9759 82.2943 26.2728Z" fill="#FA043F"/>
</g>
<g filter="url(#filter7_f_254_1873)">
<ellipse cx="63.9662" cy="48.3076" rx="9.58292" ry="23.1312" transform="rotate(31.4444 63.9662 48.3076)" fill="white" fill-opacity="0.81"/>
</g>
<g filter="url(#filter8_ii_254_1873)">
<path d="M13.7784 181.535C14.9182 178.886 16.5617 176.486 18.6168 174.469C20.6735 172.445 23.0983 170.838 25.7595 169.732C28.519 168.582 31.4788 167.993 34.4669 168C38.659 168 42.7491 169.152 46.3034 171.328C47.1537 171.849 47.9616 172.421 48.7268 173.044C49.4921 172.421 50.3 171.849 51.1503 171.328C54.7046 169.152 58.7947 168 62.9868 168C66.0055 168 68.9306 168.58 71.6942 169.732C74.3642 170.842 76.7706 172.438 78.8369 174.469C80.8947 176.484 82.5386 178.885 83.6753 181.535C84.8572 184.291 85.4609 187.219 85.4609 190.231C85.4609 193.073 84.8827 196.034 83.7348 199.047C82.7739 201.564 81.3964 204.175 79.6362 206.812C76.8471 210.986 73.0122 215.338 68.2503 219.75C60.3593 227.063 52.5448 232.116 52.2132 232.32L50.1979 233.618C49.3051 234.189 48.1571 234.189 47.2643 233.618L45.249 232.32C44.9174 232.107 37.1114 227.063 29.2119 219.75C24.45 215.338 20.6151 210.986 17.826 206.812C16.0658 204.175 14.6798 201.564 13.7274 199.047C12.5795 196.034 12.0013 193.073 12.0013 190.231C11.9928 187.219 12.5965 184.291 13.7784 181.535Z" fill="#FA043F"/>
</g>
<g filter="url(#filter9_f_254_1873)">
<ellipse cx="9.77217" cy="23.588" rx="9.77217" ry="23.588" transform="matrix(-0.853146 0.521671 0.521671 0.853146 28.502 178.783)" fill="white" fill-opacity="0.81"/>
</g>
<g filter="url(#filter10_ii_254_1873)">
<path d="M239.045 156.547C237.819 153.701 236.053 151.121 233.844 148.953C231.634 146.778 229.027 145.05 226.167 143.862C223.201 142.626 220.02 141.993 216.809 142C212.303 142 207.907 143.238 204.087 145.577C203.173 146.137 202.304 146.751 201.482 147.421C200.659 146.751 199.791 146.137 198.877 145.577C195.057 143.238 190.661 142 186.155 142C182.911 142 179.767 142.624 176.797 143.862C173.927 145.054 171.34 146.77 169.12 148.953C166.908 151.118 165.141 153.699 163.919 156.547C162.649 159.51 162 162.656 162 165.894C162 168.948 162.621 172.131 163.855 175.369C164.888 178.075 166.369 180.881 168.26 183.716C171.258 188.201 175.38 192.879 180.498 197.621C188.979 205.482 197.378 210.912 197.735 211.132L199.901 212.526C200.86 213.14 202.094 213.14 203.054 212.526L205.22 211.132C205.576 210.902 213.966 205.482 222.457 197.621C227.575 192.879 231.696 188.201 234.694 183.716C236.586 180.881 238.076 178.075 239.099 175.369C240.333 172.131 240.955 168.948 240.955 165.894C240.964 162.656 240.315 159.51 239.045 156.547Z" fill="#FA043F"/>
</g>
<g filter="url(#filter11_f_254_1873)">
<ellipse cx="218.956" cy="180.698" rx="10.5031" ry="25.3524" transform="rotate(31.4444 218.956 180.698)" fill="white" fill-opacity="0.81"/>
</g>
</g>
<defs>
<filter id="filter0_iii_254_1873" x="-11" y="-24" width="278" height="326" filterUnits="userSpaceOnUse" color-interpolation-filters="sRGB">
<feFlood flood-opacity="0" result="BackgroundImageFix"/>
<feBlend mode="normal" in="SourceGraphic" in2="BackgroundImageFix" result="shape"/>
<feColorMatrix in="SourceAlpha" type="matrix" values="0 0 0 0 0 0 0 0 0 0 0 0 0 0 0 0 0 0 127 0" result="hardAlpha"/>
<feMorphology radius="8" operator="erode" in="SourceAlpha" result="effect1_innerShadow_254_1873"/>
<feOffset dx="21" dy="73"/>
<feGaussianBlur stdDeviation="24"/>
<feComposite in2="hardAlpha" operator="arithmetic" k2="-1" k3="1"/>
<feColorMatrix type="matrix" values="0 0 0 0 0.682806 0 0 0 0 0.0652778 0 0 0 0 0.783333 0 0 0 0.14 0"/>
<feBlend mode="normal" in2="shape" result="effect1_innerShadow_254_1873"/>
<feColorMatrix in="SourceAlpha" type="matrix" values="0 0 0 0 0 0 0 0 0 0 0 0 0 0 0 0 0 0 127 0" result="hardAlpha"/>
<feOffset dy="-24"/>
<feGaussianBlur stdDeviation="15.5"/>
<feComposite in2="hardAlpha" operator="arithmetic" k2="-1" k3="1"/>
<feColorMatrix type="matrix" values="0 0 0 0 0.943639 0 0 0 0 0.223611 0 0 0 0 0.958333 0 0 0 0.44 0"/>
<feBlend mode="normal" in2="effect1_innerShadow_254_1873" result="effect2_innerShadow_254_1873"/>
<feColorMatrix in="SourceAlpha" type="matrix" values="0 0 0 0 0 0 0 0 0 0 0 0 0 0 0 0 0 0 127 0" result="hardAlpha"/>
<feOffset dx="-11" dy="30"/>
<feGaussianBlur stdDeviation="15.5"/>
<feComposite in2="hardAlpha" operator="arithmetic" k2="-1" k3="1"/>
<feColorMatrix type="matrix" values="0 0 0 0 1 0 0 0 0 0.766722 0 0 0 0 0.693056 0 0 0 0.68 0"/>
<feBlend mode="normal" in2="effect2_innerShadow_254_1873" result="effect3_innerShadow_254_1873"/>
</filter>
<filter id="filter1_f_254_1873" x="-15" y="58" width="149" height="149" filterUnits="userSpaceOnUse" color-interpolation-filters="sRGB">
<feFlood flood-opacity="0" result="BackgroundImageFix"/>
<feBlend mode="normal" in="SourceGraphic" in2="BackgroundImageFix" result="shape"/>
<feGaussianBlur stdDeviation="19.5" result="effect1_foregroundBlur_254_1873"/>
</filter>
<filter id="filter2_f_254_1873" x="114" y="58" width="149" height="149" filterUnits="userSpaceOnUse" color-interpolation-filters="sRGB">
<feFlood flood-opacity="0" result="BackgroundImageFix"/>
<feBlend mode="normal" in="SourceGraphic" in2="BackgroundImageFix" result="shape"/>
<feGaussianBlur stdDeviation="19.5" result="effect1_foregroundBlur_254_1873"/>
</filter>
<filter id="filter3_i_254_1873" x="40.8359" y="63" width="67.502" height="34.5" filterUnits="userSpaceOnUse" color-interpolation-filters="sRGB">
<feFlood flood-opacity="0" result="BackgroundImageFix"/>
<feBlend mode="normal" in="SourceGraphic" in2="BackgroundImageFix" result="shape"/>
<feColorMatrix in="SourceAlpha" type="matrix" values="0 0 0 0 0 0 0 0 0 0 0 0 0 0 0 0 0 0 127 0" result="hardAlpha"/>
<feMorphology radius="26.45" operator="dilate" in="SourceAlpha" result="effect1_innerShadow_254_1873"/>
<feOffset dx="9.2" dy="-7"/>
<feGaussianBlur stdDeviation="10.35"/>
<feComposite in2="hardAlpha" operator="arithmetic" k2="-1" k3="1"/>
<feColorMatrix type="matrix" values="0 0 0 0 0.462111 0 0 0 0 0.203767 0 0 0 0 0.504167 0 0 0 0.35 0"/>
<feBlend mode="normal" in2="shape" result="effect1_innerShadow_254_1873"/>
</filter>
<filter id="filter4_i_254_1873" x="137.836" y="63" width="67.502" height="34.5" filterUnits="userSpaceOnUse" color-interpolation-filters="sRGB">
<feFlood flood-opacity="0" result="BackgroundImageFix"/>
<feBlend mode="normal" in="SourceGraphic" in2="BackgroundImageFix" result="shape"/>
<feColorMatrix in="SourceAlpha" type="matrix" values="0 0 0 0 0 0 0 0 0 0 0 0 0 0 0 0 0 0 127 0" result="hardAlpha"/>
<feMorphology radius="26.45" operator="dilate" in="SourceAlpha" result="effect1_innerShadow_254_1873"/>
<feOffset dx="9.2" dy="-9"/>
<feGaussianBlur stdDeviation="10.35"/>
<feComposite in2="hardAlpha" operator="arithmetic" k2="-1" k3="1"/>
<feColorMatrix type="matrix" values="0 0 0 0 0.462111 0 0 0 0 0.203767 0 0 0 0 0.504167 0 0 0 0.35 0"/>
<feBlend mode="normal" in2="shape" result="effect1_innerShadow_254_1873"/>
</filter>
<filter id="filter5_diiii_254_1873" x="26.2233" y="85.8333" width="194.553" height="127.167" filterUnits="userSpaceOnUse" color-interpolation-filters="sRGB">
<feFlood flood-opacity="0" result="BackgroundImageFix"/>
<feColorMatrix in="SourceAlpha" type="matrix" values="0 0 0 0 0 0 0 0 0 0 0 0 0 0 0 0 0 0 127 0" result="hardAlpha"/>
<feOffset dy="16.6667"/>
<feGaussianBlur stdDeviation="16.6667"/>
<feColorMatrix type="matrix" values="0 0 0 0 0.0298758 0 0 0 0 0.0216858 0 0 0 0 0.0308333 0 0 0 0.24 0"/>
<feBlend mode="normal" in2="BackgroundImageFix" result="effect1_dropShadow_254_1873"/>
<feBlend mode="normal" in="SourceGraphic" in2="effect1_dropShadow_254_1873" result="shape"/>
<feColorMatrix in="SourceAlpha" type="matrix" values="0 0 0 0 0 0 0 0 0 0 0 0 0 0 0 0 0 0 127 0" result="hardAlpha"/>
<feOffset dy="5.18518"/>
<feGaussianBlur stdDeviation="2.59259"/>
<feComposite in2="hardAlpha" operator="arithmetic" k2="-1" k3="1"/>
<feColorMatrix type="matrix" values="0 0 0 0 0.17328 0 0 0 0 0.125777 0 0 0 0 0.178833 0 0 0 1 0"/>
<feBlend mode="normal" in2="shape" result="effect2_innerShadow_254_1873"/>
<feColorMatrix in="SourceAlpha" type="matrix" values="0 0 0 0 0 0 0 0 0 0 0 0 0 0 0 0 0 0 127 0" result="hardAlpha"/>
<feOffset dy="-2.59259"/>
<feGaussianBlur stdDeviation="1.2963"/>
<feComposite in2="hardAlpha" operator="arithmetic" k2="-1" k3="1"/>
<feColorMatrix type="matrix" values="0 0 0 0 0.119503 0 0 0 0 0.086743 0 0 0 0 0.123333 0 0 0 1 0"/>
<feBlend mode="normal" in2="effect2_innerShadow_254_1873" result="effect3_innerShadow_254_1873"/>
<feColorMatrix in="SourceAlpha" type="matrix" values="0 0 0 0 0 0 0 0 0 0 0 0 0 0 0 0 0 0 127 0" result="hardAlpha"/>
<feMorphology radius="26.45" operator="dilate" in="SourceAlpha" result="effect4_innerShadow_254_1873"/>
<feOffset dx="9.2" dy="-9"/>
<feGaussianBlur stdDeviation="10.35"/>
<feComposite in2="hardAlpha" operator="arithmetic" k2="-1" k3="1"/>
<feColorMatrix type="matrix" values="0 0 0 0 0.462111 0 0 0 0 0.203767 0 0 0 0 0.504167 0 0 0 0.35 0"/>
<feBlend mode="normal" in2="effect3_innerShadow_254_1873" result="effect4_innerShadow_254_1873"/>
<feColorMatrix in="SourceAlpha" type="matrix" values="0 0 0 0 0 0 0 0 0 0 0 0 0 0 0 0 0 0 127 0" result="hardAlpha"/>
<feMorphology radius="26.45" operator="dilate" in="SourceAlpha" result="effect5_innerShadow_254_1873"/>
<feOffset dx="9.2" dy="-9"/>
<feGaussianBlur stdDeviation="10.35"/>
<feComposite in2="hardAlpha" operator="arithmetic" k2="-1" k3="1"/>
<feColorMatrix type="matrix" values="0 0 0 0 0.462111 0 0 0 0 0.203767 0 0 0 0 0.504167 0 0 0 0.35 0"/>
<feBlend mode="normal" in2="effect4_innerShadow_254_1873" result="effect5_innerShadow_254_1873"/>
</filter>
<filter id="filter6_ii_254_1873" x="10.0173" y="6.39109" width="75.3416" height="76.6634" filterUnits="userSpaceOnUse" color-interpolation-filters="sRGB">
<feFlood flood-opacity="0" result="BackgroundImageFix"/>
<feBlend mode="normal" in="SourceGraphic" in2="BackgroundImageFix" result="shape"/>
<feColorMatrix in="SourceAlpha" type="matrix" values="0 0 0 0 0 0 0 0 0 0 0 0 0 0 0 0 0 0 127 0" result="hardAlpha"/>
<feOffset dx="1.32178" dy="-6.60891"/>
<feGaussianBlur stdDeviation="7.60025"/>
<feComposite in2="hardAlpha" operator="arithmetic" k2="-1" k3="1"/>
<feColorMatrix type="matrix" values="0 0 0 0 0.796575 0 0 0 0 0.16125 0 0 0 0 0.9 0 0 0 0.6 0"/>
<feBlend mode="normal" in2="shape" result="effect1_innerShadow_254_1873"/>
<feColorMatrix in="SourceAlpha" type="matrix" values="0 0 0 0 0 0 0 0 0 0 0 0 0 0 0 0 0 0 127 0" result="hardAlpha"/>
<feOffset dx="-1.98267" dy="5.28713"/>
<feGaussianBlur stdDeviation="3.96535"/>
<feComposite in2="hardAlpha" operator="arithmetic" k2="-1" k3="1"/>
<feColorMatrix type="matrix" values="0 0 0 0 1 0 0 0 0 1 0 0 0 0 1 0 0 0 0.6 0"/>
<feBlend mode="normal" in2="effect1_innerShadow_254_1873" result="effect2_innerShadow_254_1873"/>
</filter>
<filter id="filter7_f_254_1873" x="28.2402" y="6.79656" width="71.4513" height="83.0221" filterUnits="userSpaceOnUse" color-interpolation-filters="sRGB">
<feFlood flood-opacity="0" result="BackgroundImageFix"/>
<feBlend mode="normal" in="SourceGraphic" in2="BackgroundImageFix" result="shape"/>
<feGaussianBlur stdDeviation="10.5743" result="effect1_foregroundBlur_254_1873"/>
</filter>
<filter id="filter8_ii_254_1873" x="9.98012" y="161.261" width="76.8287" height="78.1774" filterUnits="userSpaceOnUse" color-interpolation-filters="sRGB">
<feFlood flood-opacity="0" result="BackgroundImageFix"/>
<feBlend mode="normal" in="SourceGraphic" in2="BackgroundImageFix" result="shape"/>
<feColorMatrix in="SourceAlpha" type="matrix" values="0 0 0 0 0 0 0 0 0 0 0 0 0 0 0 0 0 0 127 0" result="hardAlpha"/>
<feOffset dx="1.34789" dy="-6.73943"/>
<feGaussianBlur stdDeviation="7.75034"/>
<feComposite in2="hardAlpha" operator="arithmetic" k2="-1" k3="1"/>
<feColorMatrix type="matrix" values="0 0 0 0 0.796575 0 0 0 0 0.16125 0 0 0 0 0.9 0 0 0 0.6 0"/>
<feBlend mode="normal" in2="shape" result="effect1_innerShadow_254_1873"/>
<feColorMatrix in="SourceAlpha" type="matrix" values="0 0 0 0 0 0 0 0 0 0 0 0 0 0 0 0 0 0 127 0" result="hardAlpha"/>
<feOffset dx="-2.02183" dy="5.39154"/>
<feGaussianBlur stdDeviation="4.04366"/>
<feComposite in2="hardAlpha" operator="arithmetic" k2="-1" k3="1"/>
<feColorMatrix type="matrix" values="0 0 0 0 1 0 0 0 0 1 0 0 0 0 1 0 0 0 0.6 0"/>
<feBlend mode="normal" in2="effect1_innerShadow_254_1873" result="effect2_innerShadow_254_1873"/>
</filter>
<filter id="filter9_f_254_1873" x="-3.9607" y="161.674" width="72.8628" height="84.6616" filterUnits="userSpaceOnUse" color-interpolation-filters="sRGB">
<feFlood flood-opacity="0" result="BackgroundImageFix"/>
<feBlend mode="normal" in="SourceGraphic" in2="BackgroundImageFix" result="shape"/>
<feGaussianBlur stdDeviation="10.7831" result="effect1_foregroundBlur_254_1873"/>
</filter>
<filter id="filter10_ii_254_1873" x="159.827" y="134.756" width="82.5769" height="84.0252" filterUnits="userSpaceOnUse" color-interpolation-filters="sRGB">
<feFlood flood-opacity="0" result="BackgroundImageFix"/>
<feBlend mode="normal" in="SourceGraphic" in2="BackgroundImageFix" result="shape"/>
<feColorMatrix in="SourceAlpha" type="matrix" values="0 0 0 0 0 0 0 0 0 0 0 0 0 0 0 0 0 0 127 0" result="hardAlpha"/>
<feOffset dx="1.44871" dy="-7.24355"/>
<feGaussianBlur stdDeviation="8.33008"/>
<feComposite in2="hardAlpha" operator="arithmetic" k2="-1" k3="1"/>
<feColorMatrix type="matrix" values="0 0 0 0 0.796575 0 0 0 0 0.16125 0 0 0 0 0.9 0 0 0 0.6 0"/>
<feBlend mode="normal" in2="shape" result="effect1_innerShadow_254_1873"/>
<feColorMatrix in="SourceAlpha" type="matrix" values="0 0 0 0 0 0 0 0 0 0 0 0 0 0 0 0 0 0 127 0" result="hardAlpha"/>
<feOffset dx="-2.17307" dy="5.79484"/>
<feGaussianBlur stdDeviation="4.34613"/>
<feComposite in2="hardAlpha" operator="arithmetic" k2="-1" k3="1"/>
<feColorMatrix type="matrix" values="0 0 0 0 1 0 0 0 0 1 0 0 0 0 1 0 0 0 0.6 0"/>
<feBlend mode="normal" in2="effect1_innerShadow_254_1873" result="effect2_innerShadow_254_1873"/>
</filter>
<filter id="filter11_f_254_1873" x="179.799" y="135.201" width="78.3138" height="90.9945" filterUnits="userSpaceOnUse" color-interpolation-filters="sRGB">
<feFlood flood-opacity="0" result="BackgroundImageFix"/>
<feBlend mode="normal" in="SourceGraphic" in2="BackgroundImageFix" result="shape"/>
<feGaussianBlur stdDeviation="11.5897" result="effect1_foregroundBlur_254_1873"/>
</filter>
<radialGradient id="paint0_radial_254_1873" cx="0" cy="0" r="1" gradientUnits="userSpaceOnUse" gradientTransform="translate(109 16) rotate(86.5167) scale(230.426)">
<stop offset="0.576389" stop-color="#FFBB0C"/>
<stop offset="1" stop-color="#FFC907"/>
</radialGradient>
<linearGradient id="paint1_linear_254_1873" x1="123.5" y1="42" x2="123.5" y2="163" gradientUnits="userSpaceOnUse">
<stop stop-color="#201721"/>
<stop offset="1" stop-color="#2B1F2C"/>
</linearGradient>
<clipPath id="clip0_254_1873">
<rect width="246" height="246" fill="white"/>
</clipPath>
</defs>
</svg>
