<svg width="246" height="246" viewBox="0 0 246 246" fill="none" xmlns="http://www.w3.org/2000/svg">
<g clip-path="url(#clip0_254_1863)">
<g filter="url(#filter0_iii_254_1863)">
<path d="M0 115C0 51.4872 51.4873 0 115 0H127C192.722 0 246 53.2781 246 119V127C246 192.722 192.722 246 127 246H123C55.069 246 0 190.931 0 123V115Z" fill="url(#paint0_radial_254_1863)"/>
</g>
<g filter="url(#filter1_f_254_1863)">
<circle cx="59.5" cy="132.5" r="35.5" fill="#FF4242"/>
</g>
<g filter="url(#filter2_f_254_1863)">
<circle cx="188.5" cy="132.5" r="35.5" fill="#FF4242"/>
</g>
<g filter="url(#filter3_i_254_1863)">
<path d="M101.54 97.5C105.66 97.5 109.081 94.1218 108.197 90.0978C106.794 83.7112 103.591 77.8008 98.8952 73.1048C92.4252 66.6348 83.65 63 74.5 63C65.35 63 56.5748 66.6348 50.1048 73.1048C45.6509 77.5587 42.5406 83.105 41.0346 89.114C39.8974 93.6519 43.7924 97.5 48.4706 97.5C52.8564 97.5 56.2631 93.7812 58.1273 89.8113C59.0089 87.9338 60.215 86.2045 61.7097 84.7097C65.1019 81.3176 69.7027 79.4118 74.5 79.4118C79.2973 79.4118 83.8981 81.3176 87.2903 84.7097C88.5423 85.9618 89.5918 87.3785 90.4178 88.9089C92.7658 93.2597 96.5961 97.5 101.54 97.5Z" fill="#C4C4C4"/>
<path d="M101.54 97.5C105.66 97.5 109.081 94.1218 108.197 90.0978C106.794 83.7112 103.591 77.8008 98.8952 73.1048C92.4252 66.6348 83.65 63 74.5 63C65.35 63 56.5748 66.6348 50.1048 73.1048C45.6509 77.5587 42.5406 83.105 41.0346 89.114C39.8974 93.6519 43.7924 97.5 48.4706 97.5C52.8564 97.5 56.2631 93.7812 58.1273 89.8113C59.0089 87.9338 60.215 86.2045 61.7097 84.7097C65.1019 81.3176 69.7027 79.4118 74.5 79.4118C79.2973 79.4118 83.8981 81.3176 87.2903 84.7097C88.5423 85.9618 89.5918 87.3785 90.4178 88.9089C92.7658 93.2597 96.5961 97.5 101.54 97.5Z" fill="#221725"/>
</g>
<g filter="url(#filter4_i_254_1863)">
<path d="M198.54 97.5C202.66 97.5 206.081 94.1218 205.197 90.0978C203.794 83.7112 200.591 77.8008 195.895 73.1048C189.425 66.6348 180.65 63 171.5 63C162.35 63 153.575 66.6348 147.105 73.1048C142.651 77.5587 139.541 83.105 138.035 89.114C136.897 93.6519 140.792 97.5 145.471 97.5C149.856 97.5 153.263 93.7812 155.127 89.8113C156.009 87.9338 157.215 86.2045 158.71 84.7097C162.102 81.3176 166.703 79.4118 171.5 79.4118C176.297 79.4118 180.898 81.3176 184.29 84.7097C185.542 85.9618 186.592 87.3785 187.418 88.9089C189.766 93.2597 193.596 97.5 198.54 97.5Z" fill="#C4C4C4"/>
<path d="M198.54 97.5C202.66 97.5 206.081 94.1218 205.197 90.0978C203.794 83.7112 200.591 77.8008 195.895 73.1048C189.425 66.6348 180.65 63 171.5 63C162.35 63 153.575 66.6348 147.105 73.1048C142.651 77.5587 139.541 83.105 138.035 89.114C136.897 93.6519 140.792 97.5 145.471 97.5C149.856 97.5 153.263 93.7812 155.127 89.8113C156.009 87.9338 157.215 86.2045 158.71 84.7097C162.102 81.3176 166.703 79.4118 171.5 79.4118C176.297 79.4118 180.898 81.3176 184.29 84.7097C185.542 85.9618 186.592 87.3785 187.418 88.9089C189.766 93.2597 193.596 97.5 198.54 97.5Z" fill="#221725"/>
</g>
<g filter="url(#filter5_diiii_254_1863)">
<mask id="path-6-inside-1_254_1863" fill="white">
<path d="M179.462 112.5C184.178 112.5 188.065 116.344 187.359 121.006C186.599 126.026 185.168 130.947 183.09 135.652C179.849 142.993 175.098 149.662 169.108 155.28C163.119 160.898 156.009 165.354 148.183 168.395C140.358 171.435 131.97 173 123.5 173C115.03 173 106.642 171.435 98.8169 168.395C90.9914 165.354 83.881 160.898 77.8916 155.28C71.9022 149.662 67.1512 142.993 63.9098 135.652C61.832 130.947 60.4006 126.026 59.6406 121.006C58.9348 116.344 62.8225 112.5 67.5377 112.5C72.253 112.5 75.9891 116.361 76.9448 120.978C77.5493 123.899 78.4659 126.762 79.6854 129.523C82.0687 134.92 85.562 139.824 89.9658 143.955C94.3695 148.085 99.5976 151.362 105.351 153.597C111.105 155.833 117.272 156.983 123.5 156.983C129.728 156.983 135.895 155.833 141.649 153.597C147.402 151.362 152.63 148.085 157.034 143.955C161.438 139.824 164.931 134.92 167.315 129.523C168.534 126.762 169.451 123.899 170.055 120.978C171.011 116.361 174.747 112.5 179.462 112.5Z"/>
</mask>
<path d="M179.462 112.5C184.178 112.5 188.065 116.344 187.359 121.006C186.599 126.026 185.168 130.947 183.09 135.652C179.849 142.993 175.098 149.662 169.108 155.28C163.119 160.898 156.009 165.354 148.183 168.395C140.358 171.435 131.97 173 123.5 173C115.03 173 106.642 171.435 98.8169 168.395C90.9914 165.354 83.881 160.898 77.8916 155.28C71.9022 149.662 67.1512 142.993 63.9098 135.652C61.832 130.947 60.4006 126.026 59.6406 121.006C58.9348 116.344 62.8225 112.5 67.5377 112.5C72.253 112.5 75.9891 116.361 76.9448 120.978C77.5493 123.899 78.4659 126.762 79.6854 129.523C82.0687 134.92 85.562 139.824 89.9658 143.955C94.3695 148.085 99.5976 151.362 105.351 153.597C111.105 155.833 117.272 156.983 123.5 156.983C129.728 156.983 135.895 155.833 141.649 153.597C147.402 151.362 152.63 148.085 157.034 143.955C161.438 139.824 164.931 134.92 167.315 129.523C168.534 126.762 169.451 123.899 170.055 120.978C171.011 116.361 174.747 112.5 179.462 112.5Z" stroke="url(#paint1_linear_254_1863)" stroke-width="22" stroke-linejoin="round" mask="url(#path-6-inside-1_254_1863)"/>
</g>
</g>
<defs>
<filter id="filter0_iii_254_1863" x="-11" y="-24" width="278" height="326" filterUnits="userSpaceOnUse" color-interpolation-filters="sRGB">
<feFlood flood-opacity="0" result="BackgroundImageFix"/>
<feBlend mode="normal" in="SourceGraphic" in2="BackgroundImageFix" result="shape"/>
<feColorMatrix in="SourceAlpha" type="matrix" values="0 0 0 0 0 0 0 0 0 0 0 0 0 0 0 0 0 0 127 0" result="hardAlpha"/>
<feMorphology radius="8" operator="erode" in="SourceAlpha" result="effect1_innerShadow_254_1863"/>
<feOffset dx="21" dy="73"/>
<feGaussianBlur stdDeviation="24"/>
<feComposite in2="hardAlpha" operator="arithmetic" k2="-1" k3="1"/>
<feColorMatrix type="matrix" values="0 0 0 0 0.682806 0 0 0 0 0.0652778 0 0 0 0 0.783333 0 0 0 0.14 0"/>
<feBlend mode="normal" in2="shape" result="effect1_innerShadow_254_1863"/>
<feColorMatrix in="SourceAlpha" type="matrix" values="0 0 0 0 0 0 0 0 0 0 0 0 0 0 0 0 0 0 127 0" result="hardAlpha"/>
<feOffset dy="-24"/>
<feGaussianBlur stdDeviation="15.5"/>
<feComposite in2="hardAlpha" operator="arithmetic" k2="-1" k3="1"/>
<feColorMatrix type="matrix" values="0 0 0 0 0.943639 0 0 0 0 0.223611 0 0 0 0 0.958333 0 0 0 0.44 0"/>
<feBlend mode="normal" in2="effect1_innerShadow_254_1863" result="effect2_innerShadow_254_1863"/>
<feColorMatrix in="SourceAlpha" type="matrix" values="0 0 0 0 0 0 0 0 0 0 0 0 0 0 0 0 0 0 127 0" result="hardAlpha"/>
<feOffset dx="-11" dy="30"/>
<feGaussianBlur stdDeviation="15.5"/>
<feComposite in2="hardAlpha" operator="arithmetic" k2="-1" k3="1"/>
<feColorMatrix type="matrix" values="0 0 0 0 1 0 0 0 0 0.766722 0 0 0 0 0.693056 0 0 0 0.68 0"/>
<feBlend mode="normal" in2="effect2_innerShadow_254_1863" result="effect3_innerShadow_254_1863"/>
</filter>
<filter id="filter1_f_254_1863" x="-15" y="58" width="149" height="149" filterUnits="userSpaceOnUse" color-interpolation-filters="sRGB">
<feFlood flood-opacity="0" result="BackgroundImageFix"/>
<feBlend mode="normal" in="SourceGraphic" in2="BackgroundImageFix" result="shape"/>
<feGaussianBlur stdDeviation="19.5" result="effect1_foregroundBlur_254_1863"/>
</filter>
<filter id="filter2_f_254_1863" x="114" y="58" width="149" height="149" filterUnits="userSpaceOnUse" color-interpolation-filters="sRGB">
<feFlood flood-opacity="0" result="BackgroundImageFix"/>
<feBlend mode="normal" in="SourceGraphic" in2="BackgroundImageFix" result="shape"/>
<feGaussianBlur stdDeviation="19.5" result="effect1_foregroundBlur_254_1863"/>
</filter>
<filter id="filter3_i_254_1863" x="40.835" y="63" width="67.502" height="34.5" filterUnits="userSpaceOnUse" color-interpolation-filters="sRGB">
<feFlood flood-opacity="0" result="BackgroundImageFix"/>
<feBlend mode="normal" in="SourceGraphic" in2="BackgroundImageFix" result="shape"/>
<feColorMatrix in="SourceAlpha" type="matrix" values="0 0 0 0 0 0 0 0 0 0 0 0 0 0 0 0 0 0 127 0" result="hardAlpha"/>
<feMorphology radius="26.45" operator="dilate" in="SourceAlpha" result="effect1_innerShadow_254_1863"/>
<feOffset dx="9.2" dy="-7"/>
<feGaussianBlur stdDeviation="10.35"/>
<feComposite in2="hardAlpha" operator="arithmetic" k2="-1" k3="1"/>
<feColorMatrix type="matrix" values="0 0 0 0 0.462111 0 0 0 0 0.203767 0 0 0 0 0.504167 0 0 0 0.35 0"/>
<feBlend mode="normal" in2="shape" result="effect1_innerShadow_254_1863"/>
</filter>
<filter id="filter4_i_254_1863" x="137.835" y="63" width="67.502" height="34.5" filterUnits="userSpaceOnUse" color-interpolation-filters="sRGB">
<feFlood flood-opacity="0" result="BackgroundImageFix"/>
<feBlend mode="normal" in="SourceGraphic" in2="BackgroundImageFix" result="shape"/>
<feColorMatrix in="SourceAlpha" type="matrix" values="0 0 0 0 0 0 0 0 0 0 0 0 0 0 0 0 0 0 127 0" result="hardAlpha"/>
<feMorphology radius="26.45" operator="dilate" in="SourceAlpha" result="effect1_innerShadow_254_1863"/>
<feOffset dx="9.2" dy="-9"/>
<feGaussianBlur stdDeviation="10.35"/>
<feComposite in2="hardAlpha" operator="arithmetic" k2="-1" k3="1"/>
<feColorMatrix type="matrix" values="0 0 0 0 0.462111 0 0 0 0 0.203767 0 0 0 0 0.504167 0 0 0 0.35 0"/>
<feBlend mode="normal" in2="shape" result="effect1_innerShadow_254_1863"/>
</filter>
<filter id="filter5_diiii_254_1863" x="26.2243" y="95.8333" width="194.551" height="127.167" filterUnits="userSpaceOnUse" color-interpolation-filters="sRGB">
<feFlood flood-opacity="0" result="BackgroundImageFix"/>
<feColorMatrix in="SourceAlpha" type="matrix" values="0 0 0 0 0 0 0 0 0 0 0 0 0 0 0 0 0 0 127 0" result="hardAlpha"/>
<feOffset dy="16.6667"/>
<feGaussianBlur stdDeviation="16.6667"/>
<feColorMatrix type="matrix" values="0 0 0 0 0.0298758 0 0 0 0 0.0216858 0 0 0 0 0.0308333 0 0 0 0.24 0"/>
<feBlend mode="normal" in2="BackgroundImageFix" result="effect1_dropShadow_254_1863"/>
<feBlend mode="normal" in="SourceGraphic" in2="effect1_dropShadow_254_1863" result="shape"/>
<feColorMatrix in="SourceAlpha" type="matrix" values="0 0 0 0 0 0 0 0 0 0 0 0 0 0 0 0 0 0 127 0" result="hardAlpha"/>
<feOffset dy="5.18518"/>
<feGaussianBlur stdDeviation="2.59259"/>
<feComposite in2="hardAlpha" operator="arithmetic" k2="-1" k3="1"/>
<feColorMatrix type="matrix" values="0 0 0 0 0.17328 0 0 0 0 0.125777 0 0 0 0 0.178833 0 0 0 1 0"/>
<feBlend mode="normal" in2="shape" result="effect2_innerShadow_254_1863"/>
<feColorMatrix in="SourceAlpha" type="matrix" values="0 0 0 0 0 0 0 0 0 0 0 0 0 0 0 0 0 0 127 0" result="hardAlpha"/>
<feOffset dy="-2.59259"/>
<feGaussianBlur stdDeviation="1.2963"/>
<feComposite in2="hardAlpha" operator="arithmetic" k2="-1" k3="1"/>
<feColorMatrix type="matrix" values="0 0 0 0 0.119503 0 0 0 0 0.086743 0 0 0 0 0.123333 0 0 0 1 0"/>
<feBlend mode="normal" in2="effect2_innerShadow_254_1863" result="effect3_innerShadow_254_1863"/>
<feColorMatrix in="SourceAlpha" type="matrix" values="0 0 0 0 0 0 0 0 0 0 0 0 0 0 0 0 0 0 127 0" result="hardAlpha"/>
<feMorphology radius="26.45" operator="dilate" in="SourceAlpha" result="effect4_innerShadow_254_1863"/>
<feOffset dx="9.2" dy="-9"/>
<feGaussianBlur stdDeviation="10.35"/>
<feComposite in2="hardAlpha" operator="arithmetic" k2="-1" k3="1"/>
<feColorMatrix type="matrix" values="0 0 0 0 0.462111 0 0 0 0 0.203767 0 0 0 0 0.504167 0 0 0 0.35 0"/>
<feBlend mode="normal" in2="effect3_innerShadow_254_1863" result="effect4_innerShadow_254_1863"/>
<feColorMatrix in="SourceAlpha" type="matrix" values="0 0 0 0 0 0 0 0 0 0 0 0 0 0 0 0 0 0 127 0" result="hardAlpha"/>
<feMorphology radius="26.45" operator="dilate" in="SourceAlpha" result="effect5_innerShadow_254_1863"/>
<feOffset dx="9.2" dy="-9"/>
<feGaussianBlur stdDeviation="10.35"/>
<feComposite in2="hardAlpha" operator="arithmetic" k2="-1" k3="1"/>
<feColorMatrix type="matrix" values="0 0 0 0 0.462111 0 0 0 0 0.203767 0 0 0 0 0.504167 0 0 0 0.35 0"/>
<feBlend mode="normal" in2="effect4_innerShadow_254_1863" result="effect5_innerShadow_254_1863"/>
</filter>
<radialGradient id="paint0_radial_254_1863" cx="0" cy="0" r="1" gradientUnits="userSpaceOnUse" gradientTransform="translate(109 16) rotate(86.5167) scale(230.426)">
<stop offset="0.576389" stop-color="#FFBB0C"/>
<stop offset="1" stop-color="#FFC907"/>
</radialGradient>
<linearGradient id="paint1_linear_254_1863" x1="123.5" y1="52" x2="123.5" y2="173" gradientUnits="userSpaceOnUse">
<stop stop-color="#201721"/>
<stop offset="1" stop-color="#2B1F2C"/>
</linearGradient>
<clipPath id="clip0_254_1863">
<rect width="246" height="246" fill="white"/>
</clipPath>
</defs>
</svg>
